<?xml version="1.0" encoding="utf-8"?>
<!-- Generator: Adobe Illustrator 23.0.0, SVG Export Plug-In . SVG Version: 6.00 Build 0)  -->
<svg version="1.1" xmlns="http://www.w3.org/2000/svg" xmlns:xlink="http://www.w3.org/1999/xlink" x="0px" y="0px" width="1280px"
	 height="720px" viewBox="0 0 1280 720" style="enable-background:new 0 0 1280 720;" xml:space="preserve">
<style type="text/css">
	.st0{fill:#C5E0C2;}
	.st1{fill:#64B16A;}
	.st2{opacity:0.6;}
	.st3{fill:#ABCD8B;}
	.st4{fill:#95C583;}
	.st5{opacity:0.4;}
	.st6{fill:#FFFFFF;}
	.st7{fill:none;stroke:#919395;stroke-width:1.5;stroke-miterlimit:10;}
	.st8{fill:none;stroke:#919395;stroke-width:1.5;stroke-miterlimit:10;stroke-dasharray:7.8247,7.8247;}
	.st9{fill:none;stroke:#919395;stroke-width:1.5;stroke-miterlimit:10;stroke-dasharray:8.0116,8.0116;}
	.st10{fill:none;stroke:#919395;stroke-width:1.5;stroke-miterlimit:10;stroke-dasharray:7.7332,7.7332;}
	.st11{fill:none;stroke:#919395;stroke-width:1.5;stroke-miterlimit:10;stroke-dasharray:8.1982,8.1982;}
	.st12{fill:none;stroke:#919395;stroke-width:1.5;stroke-miterlimit:10;stroke-dasharray:9.0031,9.0031;}
	.st13{fill:none;stroke:#919395;stroke-width:1.5;stroke-miterlimit:10;stroke-dasharray:7.9357,7.9357;}
	.st14{fill:none;stroke:#C3C7CD;stroke-width:2;stroke-miterlimit:10;}
	.st15{display:none;fill:#C3C7CD;}
	.st16{fill:#C3C7CD;}
	.st17{fill:#FFFFFF;stroke:#FFFFFF;stroke-width:16;stroke-linecap:round;stroke-linejoin:round;stroke-miterlimit:10;}
	.st18{fill:none;stroke:#FFFFFF;stroke-width:10;stroke-linecap:round;stroke-linejoin:round;stroke-miterlimit:10;}
	.st19{fill:none;stroke:#FFFFFF;stroke-miterlimit:10;}
	.st20{fill:none;stroke:#EEF2F5;stroke-width:1.0086;stroke-miterlimit:10;}
	.st21{fill:#EEF2F5;}
	.st22{fill:#EEF3F6;}
	.st23{fill:none;stroke:#EEF3F6;stroke-width:2.25;stroke-miterlimit:10;}
	.st24{opacity:0.8;fill:#FFFFFF;enable-background:new    ;}
	.st25{fill:#919395;}
	.st26{opacity:0.8;}
	.st27{fill:#676767;}
	.st28{opacity:0.8;fill:#919395;}
	.st29{opacity:0.8;fill:#FFFFFF;stroke:#919395;stroke-width:1.2;stroke-miterlimit:10;}
	.st30{opacity:0.8;enable-background:new    ;}
</style>
<g id="фон_1_">
	<polygon class="st0" points="1336,734.2 -19.3,731.1 -19.3,-34.9 1336,-31.9 	"/>
</g>
<g id="зелень">
	<g>
		<g>
			<path class="st1" d="M627.8,671.8c10,0,19.5-8.8,19-19c-0.5-10.3-8.4-19-19-19c-10,0-19.5,8.8-19,19
				C609.3,663.1,617.2,671.8,627.8,671.8L627.8,671.8z"/>
		</g>
	</g>
	<g>
		<g>
			<path class="st1" d="M908.4,697.2c14.3,0,28-12.6,27.4-27.4c-0.7-14.8-12-27.4-27.4-27.4c-14.3,0-28,12.6-27.4,27.4
				C881.7,684.6,893.1,697.2,908.4,697.2L908.4,697.2z"/>
		</g>
	</g>
	<g>
		<g>
			<path class="st1" d="M558.1,203.5c13.7,0,26.8-12,26.1-26.1c-0.6-14.2-11.5-26.1-26.1-26.1c-13.7,0-26.8,12-26.1,26.1
				C532.6,191.5,543.4,203.5,558.1,203.5L558.1,203.5z"/>
		</g>
	</g>
	<g>
		<g>
			<path class="st1" d="M1149.7,99.7c17.3,0,17.3-26.9,0-26.9C1132.4,72.9,1132.4,99.7,1149.7,99.7L1149.7,99.7z"/>
		</g>
	</g>
	<g>
		<g>
			<path class="st1" d="M138.9,238.2c16.4,0,16.4-25.4,0-25.4C122.6,212.8,122.5,238.2,138.9,238.2L138.9,238.2z"/>
		</g>
	</g>
	<g>
		<g>
			<path class="st1" d="M125.1,541.5c9.6,0,18.8-8.5,18.4-18.4c-0.4-10-8.1-18.4-18.4-18.4c-9.6,0-18.8,8.5-18.4,18.4
				C107.2,533.1,114.8,541.5,125.1,541.5L125.1,541.5z"/>
		</g>
	</g>
	<g class="st2">
		<g>
			<path class="st1" d="M509.4,237.7c14.3,0,28-12.6,27.3-27.3c-0.7-14.8-12-27.3-27.3-27.3c-14.3,0-28,12.6-27.3,27.3
				C482.8,225.1,494.1,237.7,509.4,237.7L509.4,237.7z"/>
		</g>
	</g>
	<g class="st2">
		<g>
			<path class="st1" d="M572.6,244.9c12.3,0,24.1-10.8,23.6-23.6c-0.6-12.8-10.4-23.6-23.6-23.6c-12.3,0-24.1,10.8-23.6,23.6
				C549.6,234.1,559.4,244.9,572.6,244.9L572.6,244.9z"/>
		</g>
	</g>
	<g class="st2">
		<g>
			<path class="st1" d="M1111.4,86.1c9.3,0,18.3-8.2,17.9-17.9c-0.4-9.7-7.9-17.9-17.9-17.9c-9.3,0-18.3,8.2-17.9,17.9
				C1094,77.9,1101.4,86.1,1111.4,86.1L1111.4,86.1z"/>
		</g>
	</g>
	<g class="st2">
		<g>
			<path class="st1" d="M1185.8,70c8.7,0,17-7.7,16.6-16.6c-0.4-9-7.3-16.6-16.6-16.6c-8.7,0-17,7.7-16.6,16.6
				C1169.6,62.4,1176.5,70,1185.8,70L1185.8,70z"/>
		</g>
	</g>
	<g class="st2">
		<g>
			<path class="st1" d="M1174.1,145c11.3,0,22.1-9.9,21.5-21.5c-0.5-11.7-9.5-21.5-21.5-21.5c-11.3,0-22.1,9.9-21.5,21.5
				C1153.1,135.2,1162.1,145,1174.1,145L1174.1,145z"/>
		</g>
	</g>
	<g class="st2">
		<g>
			<path class="st1" d="M1177.3,96.1c16.7,0,16.8-26,0-26C1160.6,70.1,1160.6,96.1,1177.3,96.1L1177.3,96.1z"/>
		</g>
	</g>
	<g class="st2">
		<g>
			<path class="st1" d="M943.5,636.6c9.9,0,19.4-8.7,18.9-18.9c-0.5-10.2-8.3-18.9-18.9-18.9c-9.9,0-19.4,8.7-18.9,18.9
				C925.1,628,932.9,636.6,943.5,636.6L943.5,636.6z"/>
		</g>
	</g>
	<g class="st2">
		<g>
			<path class="st1" d="M845.7,675.8c13.1,0,25.7-11.5,25.1-25.1c-0.6-13.6-11-25.1-25.1-25.1c-13.1,0-25.7,11.5-25.1,25.1
				C821.2,664.3,831.7,675.8,845.7,675.8L845.7,675.8z"/>
		</g>
	</g>
	<g class="st2">
		<g>
			<path class="st1" d="M915.9,517.6c11,0,21.6-9.7,21.1-21.1c-0.5-11.4-9.3-21.1-21.1-21.1c-11,0-21.6,9.7-21.1,21.1
				C895.3,508,904.1,517.6,915.9,517.6L915.9,517.6z"/>
		</g>
	</g>
	<g class="st2">
		<g>
			<path class="st1" d="M1205.1,540.7c7.8,0,15.3-6.9,15-15c-0.4-8.1-6.6-15-15-15c-7.8,0-15.3,6.9-15,15
				C1190.6,533.9,1196.8,540.7,1205.1,540.7L1205.1,540.7z"/>
		</g>
	</g>
	<g class="st2">
		<g>
			<path class="st1" d="M1178.6,546.6c8.1,0,15.9-7.1,15.5-15.5c-0.4-8.4-6.8-15.5-15.5-15.5c-8.1,0-15.9,7.1-15.5,15.5
				C1163.5,539.5,1169.9,546.6,1178.6,546.6L1178.6,546.6z"/>
		</g>
	</g>
	<g class="st2">
		<g>
			<path class="st1" d="M1144.4,423.3c7.5,0,13.9-6.4,13.9-13.9c0-7.6-6.4-13.9-13.9-13.9c-7.5,0-13.9,6.4-13.9,13.9
				C1130.4,417,1136.8,423.3,1144.4,423.3L1144.4,423.3z"/>
		</g>
	</g>
	<g class="st2">
		<g>
			<path class="st1" d="M1119.3,562.6c10.4,0,20.3-9.1,19.8-19.8c-0.5-10.7-8.7-19.8-19.8-19.8c-10.4,0-20.3,9.1-19.8,19.8
				C1100,553.5,1108.2,562.6,1119.3,562.6L1119.3,562.6z"/>
		</g>
	</g>
	<g class="st2">
		<g>
			<path class="st1" d="M1171.7,316.2c11.4,0,22.2-10,21.7-21.7c-0.5-11.8-9.5-21.7-21.7-21.7c-11.4,0-22.2,10-21.7,21.7
				C1150.5,306.3,1159.5,316.2,1171.7,316.2L1171.7,316.2z"/>
		</g>
	</g>
	<g class="st2">
		<g>
			<path class="st1" d="M1239.3,645.9c11.1,0,21.7-9.7,21.2-21.2c-0.5-11.5-9.3-21.2-21.2-21.2c-11.1,0-21.7,9.7-21.2,21.2
				C1218.6,636.2,1227.4,645.9,1239.3,645.9L1239.3,645.9z"/>
		</g>
	</g>
	<g class="st2">
		<g>
			<path class="st1" d="M1160.1,662.8c7.9,0,14.7-6.7,14.7-14.7c0-8-6.7-14.7-14.7-14.7c-7.9,0-14.7,6.7-14.7,14.7
				C1145.5,656.1,1152.2,662.8,1160.1,662.8L1160.1,662.8z"/>
		</g>
	</g>
	<g class="st2">
		<g>
			<path class="st1" d="M133.6,258.1c17.3,0,17.3-26.9,0-26.9C116.3,231.2,116.3,258.1,133.6,258.1L133.6,258.1z"/>
		</g>
	</g>
	<g class="st2">
		<g>
			<path class="st1" d="M134.7,219.3c12.9,0,25.2-11.3,24.6-24.6c-0.6-13.4-10.8-24.6-24.6-24.6c-12.9,0-25.2,11.3-24.6,24.6
				C110.6,208.1,120.9,219.3,134.7,219.3L134.7,219.3z"/>
		</g>
	</g>
	<g class="st2">
		<g>
			<path class="st3" d="M124.1,264.6c17.5,0,17.5-27.2,0-27.2C106.6,237.5,106.6,264.6,124.1,264.6L124.1,264.6z"/>
		</g>
	</g>
	<g class="st2">
		<g>
			<path class="st3" d="M140,325.2c16.1,0,16.2-25.1,0-25.1C123.9,300.2,123.9,325.2,140,325.2L140,325.2z"/>
		</g>
	</g>
	<g class="st2">
		<g>
			<path class="st3" d="M131.5,317.8c10.5,0,20.5-9.2,20-20c-0.5-10.9-8.8-20-20-20c-10.5,0-20.5,9.2-20,20
				C112,308.7,120.3,317.8,131.5,317.8L131.5,317.8z"/>
		</g>
	</g>
	<g class="st2">
		<g>
			<path class="st3" d="M535.4,157.9c15.6,0,15.6-24.2,0-24.2C519.8,133.7,519.8,157.9,535.4,157.9L535.4,157.9z"/>
		</g>
	</g>
	<g class="st2">
		<g>
			<path class="st3" d="M506.7,191c7.8,0,14.4-6.6,14.4-14.4c0-7.8-6.6-14.4-14.4-14.4c-7.8,0-14.4,6.6-14.4,14.4
				C492.3,184.5,498.9,191,506.7,191L506.7,191z"/>
		</g>
	</g>
	<g class="st2">
		<g>
			<path class="st3" d="M496.1,258.2c17.4,0,17.4-27,0-27C478.7,231.2,478.6,258.2,496.1,258.2L496.1,258.2z"/>
		</g>
	</g>
	<g class="st2">
		<g>
			<path class="st3" d="M1178,282.2c17,0,17.1-26.5,0-26.5C1161,255.7,1161,282.2,1178,282.2L1178,282.2z"/>
		</g>
	</g>
	<g class="st2">
		<g>
			<path class="st3" d="M1206.7,327.7c11.8,0,23.1-10.4,22.5-22.5c-0.5-12.2-9.9-22.5-22.5-22.5c-11.8,0-23.1,10.4-22.5,22.5
				C1184.7,317.3,1194.1,327.7,1206.7,327.7L1206.7,327.7z"/>
		</g>
	</g>
	<g class="st2">
		<g>
			<path class="st3" d="M1197.5,136.3c10.6,0,20.7-9.3,20.2-20.2c-0.5-10.9-8.9-20.2-20.2-20.2c-10.6,0-20.7,9.3-20.2,20.2
				C1177.8,127,1186.2,136.3,1197.5,136.3L1197.5,136.3z"/>
		</g>
	</g>
	<g class="st2">
		<g>
			<path class="st3" d="M1111.4,103.5c8.4,0,16.5-7.4,16.1-16.1c-0.4-8.7-7.1-16.1-16.1-16.1c-8.4,0-16.5,7.4-16.1,16.1
				C1095.7,96.1,1102.4,103.5,1111.4,103.5L1111.4,103.5z"/>
		</g>
	</g>
	<g class="st2">
		<g>
			<path class="st3" d="M1151.8,66.6c7.7,0,14.3-6.6,14.3-14.3c0-7.8-6.6-14.3-14.3-14.3c-7.7,0-14.3,6.6-14.3,14.3
				C1137.5,60.1,1144.1,66.6,1151.8,66.6L1151.8,66.6z"/>
		</g>
	</g>
	<g class="st2">
		<g>
			<path class="st3" d="M1053,66.9c11,0,21.5-9.7,21-21c-0.5-11.4-9.2-21-21-21c-11,0-21.5,9.7-21,21
				C1032.5,57.3,1041.2,66.9,1053,66.9L1053,66.9z"/>
		</g>
	</g>
	<g class="st2">
		<g>
			<path class="st3" d="M1079.6,83.2c16.5,0,16.5-25.6,0-25.6C1063.1,57.5,1063,83.2,1079.6,83.2L1079.6,83.2z"/>
		</g>
	</g>
	<g class="st2">
		<g>
			<path class="st3" d="M921.2,664.7c7.6,0,14.1-6.5,14.1-14.1c0-7.6-6.4-14.1-14.1-14.1c-7.6,0-14.1,6.5-14.1,14.1
				C907.1,658.3,913.6,664.7,921.2,664.7L921.2,664.7z"/>
		</g>
	</g>
	<g class="st2">
		<g>
			<path class="st3" d="M873.4,651.9c15.2,0,15.3-23.7,0-23.7C858.1,628.2,858.1,651.9,873.4,651.9L873.4,651.9z"/>
		</g>
	</g>
	<g class="st2">
		<g>
			<path class="st3" d="M916.9,540.5c13.5,0,26.5-11.9,25.9-25.9c-0.6-14-11.4-25.9-25.9-25.9c-13.5,0-26.5,11.9-25.9,25.9
				C891.7,528.6,902.4,540.5,916.9,540.5L916.9,540.5z"/>
		</g>
	</g>
	<g class="st2">
		<g>
			<path class="st3" d="M892.5,619.6c14.3,0,28-12.6,27.4-27.4c-0.7-14.8-12-27.4-27.4-27.4c-14.3,0-28,12.6-27.4,27.4
				C865.8,607,877.1,619.6,892.5,619.6L892.5,619.6z"/>
		</g>
	</g>
	<g class="st2">
		<g>
			<path class="st3" d="M878.7,578.1c8.2,0,16.1-7.2,15.7-15.7c-0.4-8.5-6.9-15.7-15.7-15.7c-8.2,0-16.1,7.2-15.7,15.7
				C863.4,570.9,869.9,578.1,878.7,578.1L878.7,578.1z"/>
		</g>
	</g>
	<g class="st2">
		<g>
			<path class="st3" d="M926.5,633.8c14,0,27.3-12.3,26.7-26.7c-0.6-14.5-11.7-26.7-26.7-26.7c-14,0-27.3,12.3-26.7,26.7
				C900.5,621.5,911.5,633.8,926.5,633.8L926.5,633.8z"/>
		</g>
	</g>
	<g class="st2">
		<g>
			<path class="st3" d="M1192.4,522.4c9.3,0,18.3-8.2,17.8-17.8c-0.4-9.7-7.8-17.8-17.8-17.8c-9.3,0-18.3,8.2-17.8,17.8
				C1175,514.2,1182.4,522.4,1192.4,522.4L1192.4,522.4z"/>
		</g>
	</g>
	<g class="st2">
		<g>
			<path class="st3" d="M1160.1,486.2c13.4,0,26.3-11.8,25.7-25.7c-0.6-13.9-11.3-25.7-25.7-25.7c-13.4,0-26.3,11.8-25.7,25.7
				C1135,474.4,1145.7,486.2,1160.1,486.2L1160.1,486.2z"/>
		</g>
	</g>
	<g class="st2">
		<g>
			<path class="st3" d="M1000.9,575.4c8.4,0,16.5-7.4,16.1-16.1c-0.4-8.7-7.1-16.1-16.1-16.1c-8.4,0-16.5,7.4-16.1,16.1
				C985.2,568,991.9,575.4,1000.9,575.4L1000.9,575.4z"/>
		</g>
	</g>
	<g class="st2">
		<g>
			<path class="st3" d="M1050.9,685.7c9.4,0,18.4-8.3,18-18c-0.4-9.7-7.9-18-18-18c-9.4,0-18.4,8.3-18,18
				C1033.3,677.4,1040.8,685.7,1050.9,685.7L1050.9,685.7z"/>
		</g>
	</g>
	<g class="st2">
		<g>
			<path class="st3" d="M657.6,674.3c7.9,0,15.5-7,15.2-15.2c-0.4-8.2-6.7-15.2-15.2-15.2c-7.9,0-15.5,7-15.2,15.2
				C642.8,667.4,649.1,674.3,657.6,674.3L657.6,674.3z"/>
		</g>
	</g>
	<g class="st2">
		<g>
			<path class="st3" d="M713.9,681.5c10.6,0,20.7-9.3,20.2-20.2c-0.5-11-8.9-20.2-20.2-20.2c-10.6,0-20.7,9.3-20.2,20.2
				C694.2,672.3,702.6,681.5,713.9,681.5L713.9,681.5z"/>
		</g>
	</g>
	<g class="st2">
		<g>
			<path class="st3" d="M574.7,690.7c14.3,0,27.9-12.5,27.2-27.2c-0.7-14.8-12-27.2-27.2-27.2c-14.3,0-27.9,12.5-27.2,27.2
				C548.1,678.2,559.4,690.7,574.7,690.7L574.7,690.7z"/>
		</g>
	</g>
	<g class="st2">
		<g>
			<path class="st3" d="M689.5,671c11.7,0,23-10.3,22.4-22.4c-0.5-12.1-9.8-22.4-22.4-22.4c-11.7,0-23,10.3-22.4,22.4
				C667.6,660.7,676.9,671,689.5,671L689.5,671z"/>
		</g>
	</g>
	<g class="st2">
		<g>
			<path class="st3" d="M811.7,649.1c17.1,0,17.1-26.6,0-26.6C794.6,622.5,794.6,649.1,811.7,649.1L811.7,649.1z"/>
		</g>
	</g>
	<g class="st2">
		<g>
			<path class="st3" d="M1178.1,678.2c11.9,0,23.2-10.4,22.7-22.7c-0.6-12.3-10-22.7-22.7-22.7c-11.9,0-23.2,10.4-22.7,22.7
				C1155.9,667.8,1165.4,678.2,1178.1,678.2L1178.1,678.2z"/>
		</g>
	</g>
	<g class="st2">
		<g>
			<path class="st3" d="M1099.3,599.7c8.6,0,16.7-7.5,16.4-16.4c-0.4-8.9-7.2-16.4-16.4-16.4c-8.6,0-16.7,7.5-16.4,16.4
				C1083.4,592.2,1090.1,599.7,1099.3,599.7L1099.3,599.7z"/>
		</g>
	</g>
	<g class="st2">
		<g>
			<path class="st3" d="M1057.6,649c7.7,0,14.2-6.5,14.2-14.2c0-7.7-6.5-14.2-14.2-14.2c-7.7,0-14.2,6.5-14.2,14.2
				C1043.4,642.5,1049.9,649,1057.6,649L1057.6,649z"/>
		</g>
	</g>
	<g class="st2">
		<g>
			<path class="st3" d="M164.4,572.5c12.4,0,24.3-10.9,23.7-23.7c-0.6-12.8-10.4-23.7-23.7-23.7c-12.4,0-24.3,10.9-23.7,23.7
				C141.3,561.6,151.2,572.5,164.4,572.5L164.4,572.5z"/>
		</g>
	</g>
	<g class="st2">
		<g>
			<path class="st3" d="M130.4,460.1c16,0,16-24.8,0-24.8C114.5,435.3,114.5,460.1,130.4,460.1L130.4,460.1z"/>
		</g>
	</g>
	<g class="st2">
		<g>
			<path class="st3" d="M191,676.6c16.9,0,16.9-26.3,0-26.3C174.1,650.3,174.1,676.6,191,676.6L191,676.6z"/>
		</g>
	</g>
	<g class="st2">
		<g>
			<path class="st3" d="M144.3,363.1c14.1,0,27.7-12.4,27-27c-0.7-14.6-11.9-27-27-27c-14.1,0-27.7,12.4-27,27
				C117.9,350.7,129.1,363.1,144.3,363.1L144.3,363.1z"/>
		</g>
	</g>
	<g class="st2">
		<g>
			<path class="st3" d="M406.8,400.3c17.1,0,17.1-26.5,0-26.5C389.7,373.8,389.7,400.3,406.8,400.3L406.8,400.3z"/>
		</g>
	</g>
	<g class="st2">
		<g>
			<path class="st3" d="M428,406.7c9.7,0,19-8.5,18.5-18.5c-0.4-10-8.1-18.5-18.5-18.5c-9.7,0-19,8.5-18.5,18.5
				C410,398.2,417.7,406.7,428,406.7L428,406.7z"/>
		</g>
	</g>
	<g class="st2">
		<g>
			<path class="st3" d="M428,550.2c12.5,0,24.5-11,23.9-23.9c-0.6-13-10.5-23.9-23.9-23.9c-12.5,0-24.5,11-23.9,23.9
				C404.7,539.3,414.6,550.2,428,550.2L428,550.2z"/>
		</g>
	</g>
	<g class="st2">
		<g>
			<path class="st3" d="M413.2,553.6c7.9,0,14.5-6.7,14.5-14.5c0-7.9-6.7-14.5-14.5-14.5c-7.9,0-14.5,6.7-14.5,14.5
				C398.6,547,405.3,553.6,413.2,553.6L413.2,553.6z"/>
		</g>
	</g>
	<g class="st2">
		<g>
			<path class="st3" d="M683.1,270.1c14.9,0,14.9-23.2,0-23.2C668.2,246.9,668.2,270.1,683.1,270.1L683.1,270.1z"/>
		</g>
	</g>
	<g class="st2">
		<g>
			<path class="st3" d="M718.2,258.7c15.4,0,15.4-23.9,0-23.9C702.8,234.9,702.8,258.7,718.2,258.7L718.2,258.7z"/>
		</g>
	</g>
	<g class="st2">
		<g>
			<path class="st3" d="M820.2,281.9c9.5,0,18.5-8.3,18.1-18.1c-0.4-9.8-8-18.1-18.1-18.1c-9.5,0-18.5,8.3-18.1,18.1
				C802.5,273.6,810.1,281.9,820.2,281.9L820.2,281.9z"/>
		</g>
	</g>
	<g class="st2">
		<g>
			<path class="st3" d="M142.1,75.2c14.2,0,27.8-12.5,27.1-27.1c-0.7-14.7-11.9-27.1-27.1-27.1c-14.2,0-27.8,12.5-27.1,27.1
				C115.7,62.7,126.9,75.2,142.1,75.2L142.1,75.2z"/>
		</g>
	</g>
	<g class="st2">
		<g>
			<path class="st3" d="M182.5,87.4c12.2,0,23.9-10.8,23.4-23.4c-0.6-12.7-10.3-23.4-23.4-23.4c-12.2,0-23.9,10.8-23.4,23.4
				C159.7,76.6,169.4,87.4,182.5,87.4L182.5,87.4z"/>
		</g>
	</g>
	<g class="st2">
		<g>
			<path class="st3" d="M155.9,71.8c15.6,0,15.6-24.2,0-24.2C140.4,47.6,140.4,71.8,155.9,71.8L155.9,71.8z"/>
		</g>
	</g>
	<g class="st2">
		<g>
			<path class="st4" d="M179.3,64.2c12.9,0,25.3-11.4,24.7-24.7c-0.6-13.4-10.9-24.7-24.7-24.7c-12.9,0-25.3,11.4-24.7,24.7
				C155.2,52.9,165.5,64.2,179.3,64.2L179.3,64.2z"/>
		</g>
	</g>
	<g class="st2">
		<g>
			<path class="st4" d="M541.8,193.6c14.9,0,15-23.2,0-23.2C526.8,170.4,526.8,193.6,541.8,193.6L541.8,193.6z"/>
		</g>
	</g>
	<g class="st2">
		<g>
			<path class="st4" d="M510.9,175.2c10.3,0,20.2-9.1,19.8-19.8c-0.5-10.7-8.7-19.8-19.8-19.8c-10.3,0-20.2,9.1-19.8,19.8
				C491.6,166.1,499.9,175.2,510.9,175.2L510.9,175.2z"/>
		</g>
	</g>
	<g class="st2">
		<g>
			<path class="st4" d="M461,190.7c9.6,0,18.8-8.4,18.3-18.3c-0.4-9.9-8.1-18.3-18.3-18.3c-9.6,0-18.8,8.4-18.3,18.3
				C443.1,182.3,450.7,190.7,461,190.7L461,190.7z"/>
		</g>
	</g>
	<g class="st2">
		<g>
			<path class="st4" d="M558.1,139.9c11.9,0,23.4-10.5,22.8-22.8c-0.6-12.4-10-22.8-22.8-22.8c-11.9,0-23.4,10.5-22.8,22.8
				C535.8,129.4,545.3,139.9,558.1,139.9L558.1,139.9z"/>
		</g>
	</g>
	<g class="st2">
		<g>
			<path class="st4" d="M597,278.1c8.6,0,16.8-7.6,16.4-16.4c-0.4-8.9-7.2-16.4-16.4-16.4c-8.6,0-16.8,7.6-16.4,16.4
				C581,270.6,587.8,278.1,597,278.1L597,278.1z"/>
		</g>
	</g>
	<g class="st2">
		<g>
			<path class="st4" d="M865.9,273.2c8.8,0,17.2-7.7,16.8-16.8c-0.4-9.1-7.4-16.8-16.8-16.8c-8.8,0-17.2,7.7-16.8,16.8
				C849.5,265.5,856.5,273.2,865.9,273.2L865.9,273.2z"/>
		</g>
	</g>
	<g class="st2">
		<g>
			<path class="st4" d="M783,270.4c11.8,0,23-10.4,22.5-22.5c-0.5-12.2-9.9-22.5-22.5-22.5c-11.8,0-23,10.4-22.5,22.5
				C761.1,260,770.4,270.4,783,270.4L783,270.4z"/>
		</g>
	</g>
	<g class="st2">
		<g>
			<path class="st4" d="M946.7,576.1c17.6,0,17.6-27.4,0-27.4C929.1,548.8,929.1,576.1,946.7,576.1L946.7,576.1z"/>
		</g>
	</g>
	<g class="st2">
		<g>
			<path class="st4" d="M772.4,650.7c9.5,0,18.5-8.3,18.1-18.1c-0.4-9.8-7.9-18.1-18.1-18.1c-9.5,0-18.5,8.3-18.1,18.1
				C754.8,642.4,762.3,650.7,772.4,650.7L772.4,650.7z"/>
		</g>
	</g>
	<g class="st2">
		<g>
			<path class="st4" d="M1002,665.2c12.1,0,23.6-10.6,23-23c-0.6-12.5-10.1-23-23-23c-12.1,0-23.6,10.6-23,23
				C979.5,654.7,989,665.2,1002,665.2L1002,665.2z"/>
		</g>
	</g>
	<g class="st2">
		<g>
			<path class="st4" d="M1093.4,454.6c14.2,0,27.8-12.5,27.1-27.1c-0.7-14.7-11.9-27.1-27.1-27.1c-14.2,0-27.8,12.5-27.1,27.1
				C1066.9,442.2,1078.2,454.6,1093.4,454.6L1093.4,454.6z"/>
		</g>
	</g>
	<g class="st2">
		<g>
			<path class="st4" d="M530.1,553.9c8.9,0,17.3-7.8,16.9-16.9c-0.4-9.2-7.4-16.9-16.9-16.9c-8.9,0-17.3,7.8-16.9,16.9
				C513.5,546.1,520.6,553.9,530.1,553.9L530.1,553.9z"/>
		</g>
	</g>
	<g class="st2">
		<g>
			<path class="st4" d="M543.9,551.9c12.3,0,24-10.8,23.4-23.4c-0.6-12.7-10.3-23.4-23.4-23.4c-12.3,0-24,10.8-23.4,23.4
				C521,541.1,530.7,551.9,543.9,551.9L543.9,551.9z"/>
		</g>
	</g>
	<g class="st2">
		<g>
			<path class="st4" d="M721.4,520.2c15.3,0,15.4-23.8,0-23.8C706,496.3,706,520.2,721.4,520.2L721.4,520.2z"/>
		</g>
	</g>
	<g class="st2">
		<g>
			<path class="st4" d="M699.1,519.8c14.9,0,14.9-23.1,0-23.1C684.2,496.7,684.1,519.8,699.1,519.8L699.1,519.8z"/>
		</g>
	</g>
	<g>
		<g>
			<path class="st4" d="M138.9,288.9c17.3,0,17.3-26.9,0-26.9C121.6,262,121.6,288.9,138.9,288.9L138.9,288.9z"/>
		</g>
	</g>
	<g>
		<g>
			<path class="st4" d="M125.1,192.3c11.5,0,22.5-10.1,22-22c-0.5-11.9-9.7-22-22-22c-11.5,0-22.5,10.1-22,22
				C103.7,182.2,112.8,192.3,125.1,192.3L125.1,192.3z"/>
		</g>
	</g>
	<g>
		<g>
			<path class="st4" d="M214.4,71c8.7,0,17-7.6,16.6-16.6c-0.4-9-7.3-16.6-16.6-16.6c-8.7,0-17,7.6-16.6,16.6
				C198.2,63.4,205.1,71,214.4,71L214.4,71z"/>
		</g>
	</g>
	<g>
		<g>
			<path class="st4" d="M294.1,84.1c10.5,0,20.6-9.2,20.1-20.1c-0.5-10.9-8.8-20.1-20.1-20.1c-10.5,0-20.6,9.2-20.1,20.1
				C274.5,74.9,282.8,84.1,294.1,84.1L294.1,84.1z"/>
		</g>
	</g>
	<g>
		<g>
			<path class="st4" d="M558.1,166.4c10.8,0,21.2-9.5,20.7-20.7c-0.5-11.2-9.1-20.7-20.7-20.7c-10.8,0-21.2,9.5-20.7,20.7
				C537.9,157,546.5,166.4,558.1,166.4L558.1,166.4z"/>
		</g>
	</g>
	<g>
		<g>
			<path class="st4" d="M1225.2,173.3c17.5,0,17.6-27.2,0-27.2C1207.6,146,1207.6,173.3,1225.2,173.3L1225.2,173.3z"/>
		</g>
	</g>
	<g>
		<g>
			<path class="st4" d="M1065.7,526.7c11.9,0,23.2-10.4,22.7-22.7c-0.6-12.3-10-22.7-22.7-22.7c-11.9,0-23.2,10.4-22.7,22.7
				C1043.6,516.3,1053,526.7,1065.7,526.7L1065.7,526.7z"/>
		</g>
	</g>
	<g>
		<g>
			<path class="st4" d="M1225.2,508.5c11.7,0,22.9-10.3,22.3-22.3c-0.5-12.1-9.8-22.3-22.3-22.3c-11.7,0-22.9,10.3-22.3,22.3
				C1203.4,498.2,1212.6,508.5,1225.2,508.5L1225.2,508.5z"/>
		</g>
	</g>
	<g>
		<g>
			<path class="st4" d="M769.2,695.6c10.2,0,19.9-9,19.5-19.5c-0.5-10.6-8.6-19.5-19.5-19.5c-10.2,0-19.9,9-19.5,19.5
				C750.2,686.7,758.3,695.6,769.2,695.6L769.2,695.6z"/>
		</g>
	</g>
	<g>
		<g>
			<path class="st4" d="M583.2,713c13.1,0,25.7-11.5,25.1-25.1c-0.6-13.6-11-25.1-25.1-25.1c-13.1,0-25.7,11.5-25.1,25.1
				C558.7,701.5,569.1,713,583.2,713L583.2,713z"/>
		</g>
	</g>
	<g>
		<g>
			<path class="st4" d="M1127.5,652.8c12.5,0,24.5-11,23.9-23.9c-0.6-13-10.5-23.9-23.9-23.9c-12.5,0-24.5,11-23.9,23.9
				C1104.2,641.8,1114.1,652.8,1127.5,652.8L1127.5,652.8z"/>
		</g>
	</g>
	<g>
		<g>
			<path class="st4" d="M1046,598.2c8,0,14.9-6.8,14.9-14.9c0-8.1-6.8-14.9-14.9-14.9c-8,0-14.9,6.8-14.9,14.9
				C1031.1,591.4,1037.9,598.2,1046,598.2L1046,598.2z"/>
		</g>
	</g>
	<g>
		<g>
			<path class="st4" d="M1236,707.7c10.2,0,19.9-8.9,19.4-19.4c-0.5-10.5-8.5-19.4-19.4-19.4c-10.2,0-19.9,8.9-19.4,19.4
				C1217,698.8,1225.1,707.7,1236,707.7L1236,707.7z"/>
		</g>
	</g>
	<g>
		<g>
			<path class="st4" d="M120.9,496.8c10.1,0,19.8-8.9,19.3-19.3c-0.5-10.5-8.5-19.3-19.3-19.3c-10.1,0-19.8,8.9-19.3,19.3
				C102,487.9,110,496.8,120.9,496.8L120.9,496.8z"/>
		</g>
	</g>
	<g>
		<g>
			<path class="st4" d="M963.7,537.5c9.2,0,18-8.1,17.6-17.6c-0.4-9.5-7.7-17.6-17.6-17.6c-9.2,0-18,8.1-17.6,17.6
				C946.5,529.5,953.8,537.5,963.7,537.5L963.7,537.5z"/>
		</g>
	</g>
	<g>
		<g>
			<path class="st4" d="M1024.3,674.3c9.9,0,9.9-15.3,0-15.3C1014.4,659,1014.4,674.3,1024.3,674.3L1024.3,674.3z"/>
		</g>
	</g>
	<g>
		<g>
			<path class="st4" d="M1203.6,274c10.6,0,10.6-16.4,0-16.4C1193,257.6,1193,274,1203.6,274L1203.6,274z"/>
		</g>
	</g>
	<g>
		<g>
			<path class="st4" d="M1191.2,429.9c7.2,0,7.2-11.2,0-11.2C1183.9,418.7,1183.9,429.9,1191.2,429.9L1191.2,429.9z"/>
		</g>
	</g>
	<g>
		<g>
			<path class="st4" d="M1234.9,570.9c6.1,0,6.1-9.5,0-9.5C1228.8,561.4,1228.8,570.9,1234.9,570.9L1234.9,570.9z"/>
		</g>
	</g>
	<g>
		<g>
			<path class="st4" d="M588.5,527.8c7.4,0,7.4-11.5,0-11.5C581.1,516.3,581.1,527.8,588.5,527.8L588.5,527.8z"/>
		</g>
	</g>
	<g>
		<g>
			<path class="st4" d="M606.6,531.3c7.8,0,7.8-12.1,0-12.1C598.8,519.2,598.8,531.3,606.6,531.3L606.6,531.3z"/>
		</g>
	</g>
	<g>
		<g>
			<path class="st4" d="M594.9,541.2c15.1,0,15.1-23.4,0-23.4C579.8,517.8,579.8,541.2,594.9,541.2L594.9,541.2z"/>
		</g>
	</g>
	<g>
		<g>
			<path class="st1" d="M575.8,540c14.8,0,14.8-23,0-23C561,516.9,560.9,540,575.8,540L575.8,540z"/>
		</g>
	</g>
	<g>
		<g>
			<path class="st1" d="M663.4,513.6c0,0.4,0,0.7,0,1.1c-0.1,1.8,0.3,3.5,1.1,5.1c0.5,1.7,1.5,3.1,2.8,4.3c1.2,1.3,2.6,2.2,4.3,2.8
				c1.6,0.8,3.3,1.2,5.1,1.1c1.2-0.2,2.4-0.3,3.5-0.5c2.3-0.6,4.2-1.8,5.9-3.4c0.7-0.9,1.4-1.8,2.1-2.7c1.2-2.1,1.8-4.3,1.8-6.7
				c0-0.4,0-0.7,0-1.1c0.1-1.8-0.3-3.5-1.1-5.1c-0.5-1.7-1.5-3.1-2.8-4.3c-1.2-1.3-2.6-2.2-4.3-2.8c-1.6-0.8-3.3-1.2-5.1-1.1
				c-1.2,0.2-2.4,0.3-3.5,0.5c-2.3,0.6-4.2,1.8-5.9,3.4c-0.7,0.9-1.4,1.8-2.1,2.7C664,508.9,663.4,511.2,663.4,513.6L663.4,513.6z"
				/>
		</g>
	</g>
	<g>
		<g>
			<path class="st1" d="M640.5,680.4c0,0.4,0,0.7,0,1.1c0,1.7,0.7,3.4,1.9,4.6c1.1,1.1,3,2,4.6,1.9c1.7-0.1,3.4-0.6,4.6-1.9
				c1.2-1.3,1.9-2.8,1.9-4.6c0-0.4,0-0.7,0-1.1c0-1.7-0.7-3.4-1.9-4.6c-1.1-1.1-3-2-4.6-1.9c-1.7,0.1-3.4,0.6-4.6,1.9
				C641.2,677.1,640.5,678.7,640.5,680.4L640.5,680.4z"/>
		</g>
	</g>
	<g>
		<g>
			<path class="st1" d="M518.4,268c8,0,14.8-6.8,14.8-14.8c0-8-6.8-14.8-14.8-14.8c-8,0-14.8,6.8-14.8,14.8
				C503.6,261.2,510.3,268,518.4,268L518.4,268z"/>
		</g>
	</g>
	<g>
		<g>
			<path class="st1" d="M238.8,68.5c7.6,0,14.1-6.5,14.1-14.1c0-7.6-6.4-14.1-14.1-14.1c-7.6,0-14.1,6.5-14.1,14.1
				C224.8,62.1,231.2,68.5,238.8,68.5L238.8,68.5z"/>
		</g>
	</g>
	<g>
		<g>
			<path class="st1" d="M318.6,76.4c9.3,0,18.2-8.2,17.8-17.8c-0.4-9.6-7.8-17.8-17.8-17.8c-9.3,0-18.2,8.2-17.8,17.8
				C301.2,68.3,308.6,76.4,318.6,76.4L318.6,76.4z"/>
		</g>
	</g>
	<g>
		<g>
			<path class="st1" d="M1062.5,88.2c9.3,0,18.3-8.2,17.8-17.8c-0.4-9.7-7.8-17.8-17.8-17.8c-9.3,0-18.3,8.2-17.8,17.8
				C1045.2,80,1052.6,88.2,1062.5,88.2L1062.5,88.2z"/>
		</g>
	</g>
	<g>
		<g>
			<path class="st1" d="M161.2,485.9c0.4,0.4,0.7,0.7,1.1,1.1c0.8,0.8,2,1.3,3.2,1.3c1.1,0,2.4-0.5,3.2-1.3c0.8-0.9,1.4-2,1.3-3.2
				c-0.1-1.2-0.5-2.3-1.3-3.2c-0.4-0.4-0.7-0.7-1.1-1.1c-0.8-0.8-2-1.3-3.2-1.3c-1.1,0-2.4,0.5-3.2,1.3c-0.8,0.9-1.4,2-1.3,3.2
				C160,483.9,160.4,485.1,161.2,485.9L161.2,485.9z"/>
		</g>
	</g>
	<g>
		<g>
			<path class="st1" d="M152.4,357.3c0,0,0-0.1,0-0.1c-0.1,0.7-0.2,1.4-0.3,2.1c0,0,0-0.1,0-0.1c-0.3,0.6-0.5,1.3-0.8,1.9
				c0-0.1,0.1-0.1,0.1-0.2c-0.4,0.5-0.8,1.1-1.3,1.6c0-0.1,0.1-0.1,0.2-0.1c-0.5,0.4-1.1,0.8-1.6,1.3c0.1,0,0.1-0.1,0.2-0.1
				c-0.6,0.3-1.3,0.5-1.9,0.8c0.1,0,0.1,0,0.2-0.1c-0.7,0.1-1.4,0.2-2.1,0.3c0.1,0,0.1,0,0.2,0c-0.7-0.1-1.4-0.2-2.1-0.3
				c0,0,0.1,0,0.1,0c-0.6-0.3-1.3-0.5-1.9-0.8c0.1,0,0.1,0.1,0.2,0.1c-0.5-0.4-1.1-0.8-1.6-1.3c0,0,0.1,0,0.1,0.1
				c-0.4-0.5-0.8-1.1-1.3-1.6c0,0.1,0.1,0.1,0.1,0.2c-0.3-0.6-0.5-1.3-0.8-1.9c0,0.1,0,0.1,0,0.2c-0.1-0.7-0.2-1.4-0.3-2.1
				c0,0.1,0,0.1,0,0.2c0.1-0.7,0.2-1.4,0.3-2.1c0,0.1,0,0.1-0.1,0.2c0.3-0.6,0.5-1.3,0.8-1.9c0,0.1-0.1,0.1-0.1,0.2
				c0.4-0.5,0.8-1.1,1.3-1.6c0,0,0,0.1-0.1,0.1c0.5-0.4,1.1-0.8,1.6-1.3c-0.1,0-0.1,0.1-0.2,0.1c0.6-0.3,1.3-0.5,1.9-0.8
				c0,0-0.1,0-0.1,0c-2,0.6-3.7,1.9-4.8,3.7c-0.6,0.9-0.9,1.9-1,3c-0.2,1.1-0.2,2.1,0.1,3.2c0.6,1.9,1.8,3.8,3.7,4.8
				c1.9,1,4.1,1.5,6.2,0.8c3-0.9,5.3-3.2,6.1-6.2c0.1-0.7,0.2-1.4,0.3-2.1c0-0.1,0-0.1,0-0.2c-0.1-0.7-0.2-1.4-0.3-2.1
				c0-0.1,0-0.1,0-0.2c-0.2-0.7-0.5-1.5-0.9-2.1c-0.8-1.3-1.1-1.6-2.2-2.4c-0.5-0.4-0.6-0.5-1-0.7c-0.6-0.4-1.3-0.7-2-0.8
				c-0.7-0.1-1.4-0.2-2.1-0.3c-1.6,0-3.1,0.4-4.5,1.2c-1.3,0.7-2.5,1.9-3.2,3.1c-0.2,0.4-0.3,0.7-0.5,1.1c-0.5,1.3-0.6,1.6-0.7,3.3
				c0,1.1,0.2,2.1,0.7,3.1c0.3,1,0.9,1.9,1.7,2.6c0.7,0.8,1.6,1.3,2.6,1.7c1,0.5,2,0.7,3.1,0.7c2.1-0.1,4.2-0.8,5.7-2.4
				c0.4-0.5,0.8-1.1,1.3-1.6C152,360.1,152.4,358.8,152.4,357.3L152.4,357.3z"/>
		</g>
	</g>
	<g>
		<g>
			<path class="st1" d="M393,379.1c17.1,0,17.1-26.6,0-26.6C375.8,352.5,375.8,379.1,393,379.1L393,379.1z"/>
		</g>
	</g>
	<g>
		<g>
			<path class="st1" d="M219.3,394.1c0.4-0.4,0.7-0.7,1.1-1.1c1.1-1,1.9-2.3,2.4-3.7c0.7-1.4,1-2.8,1-4.4c0.1-1.6-0.3-3-1-4.4
				c-0.5-1.4-1.3-2.7-2.4-3.7c-0.8-0.6-1.5-1.2-2.3-1.8c-1.8-1-3.7-1.6-5.8-1.6c-1,0.1-2,0.3-3,0.4c-1.9,0.5-3.6,1.5-5.1,2.9
				c-0.4,0.4-0.7,0.7-1.1,1.1c-1.1,1-1.9,2.3-2.4,3.7c-0.7,1.4-1,2.8-1,4.4c-0.1,1.6,0.3,3,1,4.4c0.5,1.4,1.3,2.7,2.4,3.7
				c0.8,0.6,1.5,1.2,2.3,1.8c1.8,1,3.7,1.6,5.8,1.6c1-0.1,2-0.3,3-0.4C216.2,396.5,217.9,395.5,219.3,394.1L219.3,394.1z"/>
		</g>
	</g>
	<g>
		<g>
			<path class="st1" d="M1193.9,572.5c0,0.4,0,0.7,0,1.1c-0.1,2.4,0.4,4.7,1.5,6.8c0.7,2.2,1.9,4.1,3.6,5.7c1.6,1.7,3.5,2.9,5.7,3.6
				c2.1,1.1,4.4,1.6,6.8,1.5c1.6-0.2,3.1-0.4,4.7-0.6c3-0.8,5.6-2.3,7.8-4.5c0.9-1.2,1.8-2.4,2.8-3.6c1.6-2.7,2.4-5.7,2.4-8.9
				c0-0.4,0-0.7,0-1.1c0.1-2.4-0.4-4.7-1.5-6.8c-0.7-2.2-1.9-4.1-3.6-5.7c-1.6-1.7-3.5-2.9-5.7-3.6c-2.1-1.1-4.4-1.6-6.8-1.5
				c-1.6,0.2-3.1,0.4-4.7,0.6c-3,0.8-5.6,2.3-7.8,4.5c-0.9,1.2-1.8,2.4-2.8,3.6C1194.7,566.4,1193.9,569.4,1193.9,572.5
				L1193.9,572.5z"/>
		</g>
	</g>
	<g>
		<g>
			<path class="st1" d="M803.6,612.4c0,0.4,0,0.7,0,1.1c-0.1,2.7,0.5,5.3,1.7,7.6c0.8,2.5,2.2,4.6,4.1,6.4c1.8,1.9,3.9,3.3,6.4,4.1
				c2.4,1.2,4.9,1.8,7.6,1.7c1.8-0.2,3.5-0.5,5.3-0.7c3.4-0.9,6.3-2.6,8.8-5.1c1-1.3,2.1-2.7,3.1-4c1.8-3.1,2.7-6.4,2.7-10
				c0-0.4,0-0.7,0-1.1c0.1-2.7-0.5-5.3-1.7-7.6c-0.8-2.5-2.2-4.6-4.1-6.4c-1.8-1.9-3.9-3.3-6.4-4.1c-2.4-1.2-4.9-1.8-7.6-1.7
				c-1.8,0.2-3.5,0.5-5.3,0.7c-3.4,0.9-6.3,2.6-8.8,5.1c-1,1.3-2.1,2.7-3.1,4C804.5,605.5,803.6,608.8,803.6,612.4L803.6,612.4z"/>
		</g>
	</g>
	<g class="st2">
		<g>
			<path class="st1" d="M413,391.1c0.1,0,0.1,0,0.2,0c-1.7,0.2-3.5,0.5-5.2,0.7c0.2,0,0.5,0,0.7,0c-1.7-0.2-3.5-0.5-5.2-0.7
				c0.2,0,0.4,0.1,0.7,0.2c-1.6-0.7-3.1-1.3-4.7-2c0.2,0.1,0.4,0.2,0.6,0.3c-1.3-1-2.6-2-3.9-3.1c0.2,0.2,0.4,0.4,0.6,0.6
				c-1-1.3-2-2.6-3.1-3.9c0.1,0.2,0.2,0.4,0.3,0.6c-0.7-1.6-1.3-3.1-2-4.7c0,0.1,0.1,0.2,0.1,0.3c0.6,2.5,1.8,4.8,3.5,6.6
				c1.4,2.1,3.2,3.8,5.5,5c2.2,1.4,4.7,2.2,7.3,2.3c2.6,0.6,5.2,0.5,7.8-0.3c1.6-0.7,3.1-1.3,4.7-2c2.9-1.7,5.3-4.1,7-7
				c0.7-1.6,1.3-3.1,2-4.7c0.9-3.5,0.9-6.9,0-10.4c-1.5-5.6-5.2-10.4-10.2-13.3c-1.7-1-3.7-1.9-5.6-2.4c-4.6-1.2-6.8-0.7-11.4,0
				c-2.5,0.6-4.8,1.8-6.6,3.5c-2.1,1.4-3.8,3.2-5,5.5c-1.4,2.2-2.2,4.7-2.3,7.3c-0.6,2.6-0.5,5.2,0.3,7.8c0.7,1.6,1.3,3.1,2,4.7
				c1.7,2.9,4.1,5.3,7,7c1.6,0.7,3.1,1.3,4.7,2C406.1,392,409.6,392,413,391.1L413,391.1z"/>
		</g>
	</g>
	<g class="st2">
		<g>
			<path class="st1" d="M425.5,542.3c0,0.4,0,0.7,0,1.1c-0.1,1.4,0.2,2.6,0.9,3.8c0.4,1.2,1.1,2.3,2.1,3.2c0.9,1,2,1.7,3.2,2.1
				c1.2,0.6,2.5,0.9,3.8,0.9c0.9-0.1,1.8-0.2,2.6-0.4c1.7-0.5,3.2-1.3,4.4-2.6c1.8-1.9,2.9-4.3,2.9-7c0-0.4,0-0.7,0-1.1
				c0.1-1.4-0.2-2.6-0.9-3.8c-0.4-1.2-1.1-2.3-2.1-3.2c-0.9-1-2-1.7-3.2-2.1c-1.2-0.6-2.5-0.9-3.8-0.9c-0.9,0.1-1.8,0.2-2.6,0.4
				c-1.7,0.5-3.2,1.3-4.4,2.6C426.6,537.2,425.5,539.6,425.5,542.3L425.5,542.3z"/>
		</g>
	</g>
	<g class="st2">
		<g>
			<path class="st1" d="M208.7,397.4c-0.4,0.4-0.7,0.7-1.1,1.1c-1.1,1-1.8,2.2-2.3,3.5c-0.7,1.3-1,2.7-0.9,4.2
				c-0.1,1.5,0.3,2.9,0.9,4.2c0.4,1.4,1.2,2.5,2.3,3.5c0.7,0.6,1.5,1.1,2.2,1.7c1.7,1,3.6,1.5,5.6,1.5c1-0.1,2-0.3,2.9-0.4
				c1.9-0.5,3.5-1.5,4.9-2.8c0.4-0.4,0.7-0.7,1.1-1.1c1.1-1,1.8-2.2,2.3-3.5c0.7-1.3,1-2.7,0.9-4.2c0.1-1.5-0.3-2.9-0.9-4.2
				c-0.4-1.4-1.2-2.5-2.3-3.5c-0.7-0.6-1.5-1.1-2.2-1.7c-1.7-1-3.6-1.5-5.6-1.5c-1,0.1-2,0.3-2.9,0.4
				C211.7,395,210.1,396,208.7,397.4L208.7,397.4z"/>
		</g>
	</g>
	<g class="st2">
		<g>
			<path class="st1" d="M210,373.4c0.4,0.4,0.7,0.7,1.1,1.1c1.5,1.6,3.3,2.8,5.4,3.5c2,1,4.1,1.5,6.4,1.4c2.3,0.1,4.5-0.4,6.4-1.4
				c2.1-0.7,3.9-1.8,5.4-3.5c0.9-1.1,1.7-2.3,2.6-3.4c1.5-2.6,2.3-5.4,2.3-8.4c-0.2-1.5-0.4-3-0.6-4.4c-0.8-2.8-2.2-5.3-4.3-7.4
				c-0.4-0.4-0.7-0.7-1.1-1.1c-1.5-1.6-3.3-2.8-5.4-3.5c-2-1-4.1-1.5-6.4-1.4c-2.3-0.1-4.5,0.4-6.4,1.4c-2.1,0.7-3.9,1.8-5.4,3.5
				c-0.9,1.1-1.7,2.3-2.6,3.4c-1.5,2.6-2.3,5.4-2.3,8.4c0.2,1.5,0.4,3,0.6,4.4C206.5,368.9,207.9,371.3,210,373.4L210,373.4z"/>
		</g>
	</g>
	<g class="st2">
		<g>
			<path class="st1" d="M589.2,677.8c0.4,1.4,0.8,2.8,1.1,4.2c0.6,2.4,1.6,4.4,3.2,6.2c1.3,2,3,3.5,5.1,4.7c2.1,1.3,4.3,2,6.7,2.2
				c2.4,0.5,4.8,0.4,7.2-0.3c1.4-0.6,2.9-1.2,4.3-1.8c2.7-1.6,4.9-3.8,6.5-6.5c0.6-1.4,1.2-2.9,1.8-4.3c0.9-3.2,0.9-6.4,0-9.6
				c-0.4-1.4-0.8-2.8-1.1-4.2c-0.6-2.4-1.6-4.4-3.2-6.2c-1.3-2-3-3.5-5.1-4.7c-2.1-1.3-4.3-2-6.7-2.2c-2.4-0.5-4.8-0.4-7.2,0.3
				c-1.4,0.6-2.9,1.2-4.3,1.8c-2.7,1.6-4.9,3.8-6.5,6.5c-0.6,1.4-1.2,2.9-1.8,4.3C588.3,671.4,588.3,674.6,589.2,677.8L589.2,677.8z
				"/>
		</g>
	</g>
	<g class="st2">
		<g>
			<path class="st1" d="M718,197.5c-1.6,0.5-3.1,1.6-3.9,3.1c-0.5,1-0.8,1.9-0.8,3c0,1.2,0.3,2,0.8,3c0.5,1,1.8,1.9,2.9,2.2
				c1.2,0.3,2.7,0.2,3.7-0.5c1-0.7,1.9-1.7,2.2-2.9c0.1-0.4,0.1-0.9,0.2-1.3c0-0.9-0.2-1.7-0.7-2.4c0,0,0-0.1-0.1-0.1
				c0.2,0.4,0.3,0.8,0.5,1.2c0-0.1-0.1-0.2-0.1-0.2c0.1,0.4,0.1,0.9,0.2,1.3c0-0.2,0-0.3,0-0.5c-0.1,0.4-0.1,0.9-0.2,1.3
				c0-0.1,0.1-0.2,0.1-0.4c-0.2,0.4-0.3,0.8-0.5,1.2c0.1-0.1,0.1-0.2,0.2-0.3c-0.3,0.3-0.5,0.7-0.8,1c0.1-0.1,0.2-0.2,0.4-0.3
				c-0.3,0.3-0.7,0.5-1,0.8c0.1,0,0.1-0.1,0.2-0.1c-0.4,0.2-0.8,0.3-1.2,0.5c0.1,0,0.2-0.1,0.2-0.1c1.2-0.3,2.3-1.2,2.9-2.2
				c0.6-1,0.9-2.6,0.5-3.7c-0.4-1.2-1.1-2.3-2.2-2.9C720.5,197.4,719.2,197.1,718,197.5L718,197.5z"/>
		</g>
	</g>
	<g class="st2">
		<g>
			<path class="st1" d="M730.6,242.4c0.4,0.7,0.7,1.4,1.1,2.1c0.7,1.2,1.5,2.2,2.7,2.9c1,0.9,2.2,1.5,3.5,1.9
				c1.4,0.4,2.8,0.5,4.1,0.2c1.4-0.1,2.7-0.5,3.9-1.2c0.7-0.5,1.4-1.1,2.1-1.6c1.3-1.3,2.2-2.8,2.7-4.6c0.1-0.9,0.2-1.8,0.4-2.8
				c0-1.9-0.5-3.6-1.4-5.2c-0.4-0.7-0.7-1.4-1.1-2.1c-0.7-1.2-1.5-2.2-2.7-2.9c-1-0.9-2.2-1.5-3.5-1.9c-1.4-0.4-2.8-0.5-4.1-0.2
				c-1.4,0.1-2.7,0.5-3.9,1.2c-0.7,0.5-1.4,1.1-2.1,1.6c-1.3,1.3-2.2,2.8-2.7,4.6c-0.1,0.9-0.2,1.8-0.4,2.8
				C729.2,239,729.7,240.8,730.6,242.4L730.6,242.4z"/>
		</g>
	</g>
	<g class="st2">
		<g>
			<path class="st1" d="M804.6,321.2c0,0.4,0,0.7,0,1.1c0,1.3,0.2,2.5,0.8,3.6c0.4,1.1,1,2.1,1.9,3c0.8,0.9,1.8,1.5,3,1.9
				c1.1,0.6,2.3,0.8,3.6,0.8c0.8-0.1,1.6-0.2,2.5-0.3c1.6-0.4,2.9-1.2,4.1-2.4c1.7-1.8,2.7-4,2.7-6.5c0-0.4,0-0.7,0-1.1
				c0-1.3-0.2-2.5-0.8-3.6c-0.4-1.1-1-2.1-1.9-3c-0.8-0.9-1.8-1.5-3-1.9c-1.1-0.6-2.3-0.8-3.6-0.8c-0.8,0.1-1.6,0.2-2.5,0.3
				c-1.6,0.4-2.9,1.2-4.1,2.4C805.7,316.5,804.6,318.7,804.6,321.2L804.6,321.2z"/>
		</g>
	</g>
	<g class="st2">
		<g>
			<path class="st1" d="M833.9,280.7c-0.4,0.4-0.7,0.7-1.1,1.1c-1.4,1.4-2.3,3.5-2.3,5.5c0,1.1,0.2,2.1,0.7,3c0.3,1,0.8,1.8,1.6,2.5
				c1.5,1.3,3.4,2.3,5.5,2.3c2-0.1,4-0.8,5.5-2.3c0.4-0.4,0.7-0.7,1.1-1.1c1.4-1.4,2.3-3.5,2.3-5.5c0-1.1-0.2-2.1-0.7-3
				c-0.3-1-0.8-1.8-1.6-2.5c-1.5-1.3-3.4-2.3-5.5-2.3C837.3,278.5,835.4,279.2,833.9,280.7L833.9,280.7z"/>
		</g>
	</g>
	<g class="st2">
		<g>
			<path class="st1" d="M818.1,286c-0.4,0-0.7,0-1.1,0c-1.8-0.1-3.4,0.3-5,1.1c-1.6,0.5-3,1.4-4.2,2.7c-1.3,1.2-2.1,2.6-2.7,4.2
				c-0.8,1.5-1.2,3.2-1.1,5c0.2,1.1,0.3,2.3,0.5,3.4c0.6,2.2,1.7,4.1,3.3,5.7c0.9,0.7,1.7,1.3,2.6,2c2,1.2,4.2,1.8,6.5,1.8
				c0.4,0,0.7,0,1.1,0c1.8,0.1,3.4-0.3,5-1.1c1.6-0.5,3-1.4,4.2-2.7c1.3-1.2,2.1-2.6,2.7-4.2c0.8-1.5,1.2-3.2,1.1-5
				c-0.2-1.1-0.3-2.3-0.5-3.4c-0.6-2.2-1.7-4.1-3.3-5.7c-0.9-0.7-1.7-1.3-2.6-2C822.6,286.6,820.4,286,818.1,286L818.1,286z"/>
		</g>
	</g>
	<g class="st2">
		<g>
			<path class="st1" d="M125.9,53.4c0,0.4,0,0.7,0,1.1c-0.1,1.8,0.3,3.5,1.1,5c0.5,1.6,1.4,3,2.7,4.2c1.2,1.3,2.6,2.2,4.2,2.7
				c1.6,0.8,3.2,1.2,5,1.1c1.2-0.2,2.3-0.3,3.5-0.5c2.2-0.6,4.1-1.7,5.7-3.3c0.7-0.9,1.4-1.8,2-2.6c1.2-2,1.8-4.2,1.8-6.6
				c0-0.4,0-0.7,0-1.1c0.1-1.8-0.3-3.5-1.1-5c-0.5-1.6-1.4-3-2.7-4.2c-1.2-1.3-2.6-2.2-4.2-2.7c-1.6-0.8-3.2-1.2-5-1.1
				c-1.2,0.2-2.3,0.3-3.5,0.5c-2.2,0.6-4.1,1.7-5.7,3.3c-0.7,0.9-1.4,1.8-2,2.6C126.5,48.8,125.9,51,125.9,53.4L125.9,53.4z"/>
		</g>
	</g>
	<g class="st2">
		<g>
			<path class="st1" d="M1051.7,498.3c-0.7,0.4-1.4,0.7-2.1,1.1c-1.8,0.9-3.2,2.2-4.2,3.9c-1.3,1.5-2.2,3.2-2.7,5.1
				c-0.6,2-0.7,4-0.3,6c0.1,2,0.7,3.9,1.8,5.6c0.8,1,1.6,2,2.3,3c1.9,1.9,4.1,3.1,6.6,3.9c1.3,0.2,2.7,0.4,4,0.5
				c2.7,0,5.2-0.7,7.6-2.1c0.7-0.4,1.4-0.7,2.1-1.1c1.8-0.9,3.2-2.2,4.2-3.9c1.3-1.5,2.2-3.2,2.7-5.1c0.6-2,0.7-4,0.3-6
				c-0.1-2-0.7-3.9-1.8-5.6c-0.8-1-1.6-2-2.3-3c-1.9-1.9-4.1-3.1-6.6-3.9c-1.3-0.2-2.7-0.4-4-0.5
				C1056.6,496.3,1054.1,497,1051.7,498.3L1051.7,498.3z"/>
		</g>
	</g>
	<g class="st2">
		<g>
			<path class="st1" d="M1192.5,312.2c-0.4,0.4-0.7,0.7-1.1,1.1c-1.7,1.5-2.8,3.4-3.5,5.5c-1.1,2-1.6,4.2-1.5,6.6
				c-0.1,2.4,0.4,4.5,1.5,6.6c0.7,2.1,1.9,3.9,3.5,5.5c1.2,0.9,2.3,1.8,3.5,2.7c2.7,1.5,5.5,2.3,8.6,2.3c1.5-0.2,3-0.4,4.5-0.6
				c2.9-0.8,5.4-2.3,7.5-4.4c0.4-0.4,0.7-0.7,1.1-1.1c1.7-1.5,2.8-3.4,3.5-5.5c1.1-2,1.6-4.2,1.5-6.6c0.1-2.4-0.4-4.5-1.5-6.6
				c-0.7-2.1-1.9-3.9-3.5-5.5c-1.2-0.9-2.3-1.8-3.5-2.7c-2.7-1.5-5.5-2.3-8.6-2.3c-1.5,0.2-3,0.4-4.5,0.6
				C1197.2,308.6,1194.7,310.1,1192.5,312.2L1192.5,312.2z"/>
		</g>
	</g>
	<g class="st2">
		<g>
			<path class="st1" d="M651.2,54.2c13.4,0,13.4-20.8,0-20.8C637.8,33.4,637.8,54.2,651.2,54.2L651.2,54.2z"/>
		</g>
	</g>
	<g class="st2">
		<g>
			<path class="st1" d="M662.9,63.3c8,0,15.7-7,15.3-15.3c-0.4-8.3-6.7-15.3-15.3-15.3c-8,0-15.7,7-15.3,15.3
				C648,56.3,654.3,63.3,662.9,63.3L662.9,63.3z"/>
		</g>
	</g>
	<g class="st2">
		<g>
			<path class="st1" d="M877.6,58.2c15.8,0,15.8-24.6,0-24.6C861.8,33.6,861.8,58.2,877.6,58.2L877.6,58.2z"/>
		</g>
	</g>
	<g class="st2">
		<g>
			<path class="st1" d="M860.6,56.3c7.9,0,7.9-12.3,0-12.3C852.7,44,852.7,56.3,860.6,56.3L860.6,56.3z"/>
		</g>
	</g>
	<g class="st2">
		<g>
			<path class="st1" d="M844.7,41c8.7,0,8.8-13.6,0-13.6C835.9,27.4,835.9,41,844.7,41L844.7,41z"/>
		</g>
	</g>
	<g class="st2">
		<g>
			<path class="st1" d="M859.6,39.5c0,0.7,0,1.4,0,2.1c0,1.3,0.6,2.7,1.5,3.7c0.9,0.9,2.4,1.6,3.7,1.5c1.3-0.1,2.7-0.5,3.7-1.5
				c0.9-1,1.5-2.3,1.5-3.7c0-0.7,0-1.4,0-2.1c0-1.3-0.6-2.7-1.5-3.7c-0.9-0.9-2.4-1.6-3.7-1.5c-1.3,0.1-2.7,0.5-3.7,1.5
				C860.2,36.9,859.6,38.1,859.6,39.5L859.6,39.5z"/>
		</g>
	</g>
	<g class="st2">
		<g>
			<path class="st1" d="M839.6,33.7c-0.4,0.7-0.7,1.4-1.1,2.1c-1.1,1.8-1.8,3.7-1.9,5.8c-0.5,2.1-0.4,4.2,0.3,6.2
				c0.5,2,1.4,3.8,2.8,5.3c1.1,1.7,2.6,3,4.4,4c1.2,0.5,2.5,1.1,3.7,1.6c2.8,0.7,5.5,0.7,8.3,0c1.2-0.5,2.5-1.1,3.7-1.6
				c2.3-1.4,4.2-3.3,5.6-5.6c0.4-0.7,0.7-1.4,1.1-2.1c1.1-1.8,1.8-3.7,1.9-5.8c0.5-2.1,0.4-4.2-0.3-6.2c-0.5-2-1.4-3.8-2.8-5.3
				c-1.1-1.7-2.6-3-4.4-4c-1.2-0.5-2.5-1.1-3.7-1.6c-2.8-0.7-5.5-0.7-8.3,0c-1.2,0.5-2.5,1.1-3.7,1.6
				C842.8,29.5,841,31.4,839.6,33.7L839.6,33.7z"/>
		</g>
	</g>
	<g class="st2">
		<g>
			<path class="st3" d="M847.3,37.5c-0.3,0-0.7-0.1-1-0.1c-1.3-0.4-2.6-0.5-3.9-0.2c-1.3,0.1-2.5,0.4-3.6,1.1
				c-1.1,0.6-2,1.4-2.7,2.5c-0.9,0.9-1.4,2-1.7,3.3c-0.1,0.9-0.2,1.7-0.3,2.6c0,1.7,0.4,3.4,1.3,4.9c0.5,0.7,1,1.3,1.5,2
				c1.2,1.2,2.6,2,4.3,2.5c0.3,0,0.7,0.1,1,0.1c1.3,0.4,2.6,0.5,3.9,0.2c1.3-0.1,2.5-0.4,3.6-1.1c1.1-0.6,2-1.4,2.7-2.5
				c0.9-0.9,1.4-2,1.7-3.3c0.1-0.9,0.2-1.7,0.3-2.6c0-1.7-0.4-3.4-1.3-4.9c-0.5-0.7-1-1.3-1.5-2C850.3,38.8,848.9,38,847.3,37.5
				L847.3,37.5z"/>
		</g>
	</g>
	<g class="st2">
		<g>
			<path class="st3" d="M819.2,29.8c-0.4,0-0.7,0-1.1,0c-1.5-0.1-2.9,0.3-4.2,0.9c-1.3,0.4-2.5,1.2-3.5,2.2c-1.1,1-1.8,2.1-2.2,3.5
				c-0.7,1.3-1,2.7-0.9,4.2c0.1,1,0.3,1.9,0.4,2.9c0.5,1.8,1.4,3.4,2.8,4.8c0.7,0.6,1.5,1.1,2.2,1.7c1.7,1,3.5,1.5,5.4,1.5
				c0.4,0,0.7,0,1.1,0c1.5,0.1,2.9-0.3,4.2-0.9c1.3-0.4,2.5-1.2,3.5-2.2c1.1-1,1.8-2.1,2.2-3.5c0.7-1.3,1-2.7,0.9-4.2
				c-0.1-1-0.3-1.9-0.4-2.9c-0.5-1.8-1.4-3.4-2.8-4.8c-0.7-0.6-1.5-1.1-2.2-1.7C822.9,30.3,821.1,29.8,819.2,29.8L819.2,29.8z"/>
		</g>
	</g>
	<g class="st2">
		<g>
			<path class="st3" d="M852.2,52.3c0,0.7,0,1.4,0,2.1c-0.1,1.9,0.3,3.7,1.2,5.3c0.6,1.7,1.5,3.2,2.8,4.4c1.2,1.3,2.7,2.3,4.4,2.8
				c1.6,0.9,3.4,1.3,5.3,1.2c1.2-0.2,2.4-0.3,3.7-0.5c2.3-0.7,4.4-1.8,6.1-3.5c0.7-0.9,1.4-1.9,2.2-2.8c1.2-2.1,1.9-4.5,1.9-6.9
				c0-0.7,0-1.4,0-2.1c0.1-1.9-0.3-3.7-1.2-5.3c-0.6-1.7-1.5-3.2-2.8-4.4c-1.2-1.3-2.7-2.3-4.4-2.8c-1.6-0.9-3.4-1.3-5.3-1.2
				c-1.2,0.2-2.4,0.3-3.7,0.5c-2.3,0.7-4.4,1.8-6.1,3.5c-0.7,0.9-1.4,1.9-2.2,2.8C852.8,47.5,852.2,49.8,852.2,52.3L852.2,52.3z"/>
		</g>
	</g>
	<g class="st2">
		<g>
			<path class="st3" d="M675.7,70.8c15.6,0,15.6-24.3,0-24.3C660.1,46.5,660,70.8,675.7,70.8L675.7,70.8z"/>
		</g>
	</g>
	<g class="st2">
		<g>
			<path class="st3" d="M632.1,59.5c9.9,0,19.3-8.7,18.9-18.9c-0.5-10.2-8.3-18.9-18.9-18.9c-9.9,0-19.3,8.7-18.9,18.9
				C613.7,50.8,621.5,59.5,632.1,59.5L632.1,59.5z"/>
		</g>
	</g>
</g>
<g id="подземка">
	<g class="st5">
		<polygon class="st6" points="415,322.2 418.6,87.4 1005.6,87.4 1133.4,165.9 1133.4,351.8 1064.9,351.8 1018.2,375.3 827.7,375.3 
			827.7,322.2 		"/>
		<g>
			<polyline class="st7" points="419,322.2 415,322.2 415,318.3 			"/>
			<line class="st8" x1="415.2" y1="310.4" x2="418.5" y2="95.3"/>
			<polyline class="st7" points="418.5,91.4 418.6,87.4 422.6,87.4 			"/>
			<polyline class="st9" points="430.6,87.4 1005.6,87.4 1126.6,161.7 			"/>
			<polyline class="st7" points="1130,163.8 1133.4,165.9 1133.4,169.9 			"/>
			<line class="st10" x1="1133.4" y1="177.6" x2="1133.4" y2="343.9"/>
			<polyline class="st7" points="1133.4,347.8 1133.4,351.8 1129.4,351.8 			"/>
			<polyline class="st11" points="1121.3,351.8 1064.9,351.8 1018.2,375.3 835.8,375.3 			"/>
			<polyline class="st7" points="831.7,375.3 827.7,375.3 827.7,371.3 			"/>
			<line class="st12" x1="827.7" y1="362.3" x2="827.7" y2="330.8"/>
			<polyline class="st7" points="827.7,326.2 827.7,322.2 823.7,322.2 			"/>
			<line class="st13" x1="815.8" y1="322.2" x2="422.9" y2="322.2"/>
		</g>
	</g>
</g>
<g id="стадион">
	<g id="XMLID_1_">
		<g>
			<path class="st6" d="M873.3,122.1c24.3,0,44.1,19.8,44.1,44.1c0,24.3-19.8,44.1-44.1,44.1h-91.2c-24.3,0-44.1-19.8-44.1-44.1
				c0-24.3,19.8-44.1,44.1-44.1H873.3z"/>
		</g>
		<g>
			<path class="st14" d="M873.3,210.3h-91.2c-24.3,0-44.1-19.8-44.1-44.1c0-24.3,19.8-44.1,44.1-44.1h91.2
				c24.3,0,44.1,19.8,44.1,44.1C917.4,190.5,897.6,210.3,873.3,210.3z"/>
		</g>
	</g>
	<path class="st15" d="M750.5,144.3c-22.4,0-40.7,18.2-40.7,40.7s18.2,40.7,40.7,40.7H839c22.4,0,40.7-18.2,40.7-40.7
		s-18.2-40.7-40.7-40.7H750.5z"/>
	<g>
		<g>
			<g id="LWPOLYLINE-5_1_">
				<path class="st16" d="M874.1,200.5l-93.2-0.3l0.2-68l93.2,0.3L874.1,200.5z M783.2,198l88.8,0.3l0.2-63.5l-88.8-0.3L783.2,198z"
					/>
			</g>
			<g id="LWPOLYLINE-6_1_">
				<path class="st16" d="M777.5,186.3l-22.6-0.1l0.1-40.5l22.6,0.1L777.5,186.3z M757.2,184l18.1,0.1l0.1-36l-18.1-0.1L757.2,184z"
					/>
			</g>
			<g id="LWPOLYLINE-7_1_">
				<path class="st16" d="M900.5,186.9l-22.6-0.1l0.1-40.5l22.6,0.1L900.5,186.9z M880.2,184.6l18.1,0.1l0.1-36l-18.1-0.1
					L880.2,184.6z"/>
			</g>
			<g id="LINE_1_">
				
					<rect x="794.3" y="165.2" transform="matrix(2.493758e-03 -1 1 2.493758e-03 659.4637 993.2432)" class="st16" width="66.5" height="1.8"/>
			</g>
			<g id="CIRCLE_1_">
				<path class="st16" d="M826.4,179c-1.9,0-3.7-0.4-5.2-1.2c-2.8-1.5-4.8-4.4-5.8-8.5c-1.7-6.8,2.4-13.7,9.2-15.4
					c3.3-0.8,6.7-0.3,9.6,1.4c2.9,1.7,5,4.5,5.8,7.8c1.7,6.8-2.4,13.7-9.2,15.4l-0.1,0C829.1,178.8,827.7,179,826.4,179z
					 M830.2,176.2l0.3,1.1L830.2,176.2c5.6-1.4,9-7.1,7.6-12.7c-0.7-2.7-2.4-5-4.8-6.4c-2.4-1.4-5.2-1.8-7.9-1.1
					c-5.6,1.4-9,7.1-7.6,12.7c0.9,3.5,2.5,5.9,4.7,7.1C824.3,176.9,826.9,177,830.2,176.2z"/>
			</g>
			<g id="LWPOLYLINE-8_1_">
				<path class="st16" d="M873.1,181.9l-7.3-0.1c-3.2-0.9-5.4-3.5-5.4-6.4l0-18.4c0-3.2,2.6-5.7,5.8-5.7c0,0,0,0,0,0l8.1,0l0,15
					l-2.2,0l0-12.8l-5.8,0c0,0,0,0,0,0c-1.9,0-3.5,1.6-3.5,3.5l0,18.4c0,1.8,1.5,3.6,3.7,4.2l6.8,0L873.1,181.9z"/>
			</g>
			<g id="LWPOLYLINE-9_1_">
				<path class="st16" d="M789.2,181c-0.1,0-0.1,0-0.2,0l-6.9,0l0-2.2l6.9,0c2.4,0,3.5,0,3.5-3.5l0.1-18.6c0-1-0.4-1.8-1-2.5
					c-0.7-0.7-1.5-1-2.5-1c0,0,0,0,0,0l-5.8,0l0,12.8l-2.2,0l0-15l8.1,0c0,0,0,0,0,0c1.5,0,3,0.6,4,1.7c1.1,1.1,1.7,2.5,1.7,4.1
					l-0.1,18.6C794.8,180.8,791.6,181,789.2,181z"/>
			</g>
		</g>
	</g>
</g>
<g id="дороги">
	<line class="st17" x1="63.1" y1="-50.5" x2="63.1" y2="763.2"/>
	<line class="st17" x1="90" y1="-50.5" x2="90" y2="763.2"/>
	<path class="st18" d="M94.8,345.6c0.9,2.6,105.1,111.2,150.5,158.4c13.3,13.8,20.7,32.3,20.7,51.4V633c0,22.2-9.9,43.2-26.9,57.3
		L100.5,805.3"/>
	<path class="st18" d="M94.3,96.7h309.2l-0.2,204.5c0,24.9,21.2,44.5,46,42.6l60.6-4.7c4.9-0.4,9.7-0.6,14.6-0.6H750
		c11.6,0,20.9-9.4,20.9-20.9v0c0-10.9-8.9-19.8-19.8-19.8h0c-10.4,0-19,8.2-19.5,18.6l-1,21.3"/>
	<path class="st18" d="M266,611.2h222.8c13.6,0,26.4-5.9,35.3-16.1l2.1-2.4c13.5-15.5,31.9-25.9,52.2-29.3l224-37.3
		c23.2-3.9,43.6-17.8,55.7-38v0c8.4-14.1,23.6-22.8,40.1-22.8h77.2"/>
	<path class="st18" d="M403.9,143.2H441c18.5,0,33.5-14.8,33.8-33.3v0C475.1,91.3,460,76,441.4,76h-2.1c-19.7,0-35.7,16-35.7,35.7
		v1.6"/>
	<line class="st18" x1="453.2" y1="76" x2="453.2" y2="-88.4"/>
	<polyline class="st18" points="453.3,78 900.1,78 971.4,-56.9 	"/>
	<line class="st18" x1="817" y1="-32.2" x2="1364.2" y2="285"/>
	<line class="st18" x1="618.1" y1="76.6" x2="453.3" y2="0.4"/>
	<polyline class="st18" points="816.7,520.5 816.7,384.2 1018.3,384.2 1067.3,360 1346.6,360 	"/>
	<line class="st18" x1="1142.6" y1="157.4" x2="1142.6" y2="356.3"/>
	<polyline class="st18" points="183,96.7 183,191.8 183,438.8 	"/>
	<polyline class="st18" points="403.5,191.8 379.5,191.8 183,191.8 	"/>
</g>
<g id="дома">
	<g>
		<g>
			<path d="M260.9,228.1H327v19.2h24.2v59h-21v41.9h-69.4V329H251v-83.8h9.9V228.1z M410.6,439.4h-19.8l-21.1-21.1
				l7.3-7.3l-29.9-29.9l-7.4,7.4L317.3,366v-17.8h-56.4v22.3h-8v25H249v24.7l36.7,36.7l-5.5,5.5l15.6,15.6l5.7-5.7l36.7,36.7h24.3
				v-4.9H388v-8h23L410.6,439.4z" fill="silver" name="11"/>
		</g>
	</g>
	<g>
		<g>
			<path d="M461.6,508.5l-11.8-84.4l41.1-6l1,10.6l19.3-2.7l-3-24.8l42.8-5.8l3.3,23.7l19.8-2.9l-1.4-10.9l40.1-5.5
				l12.1,86.2l-24.9,3.4l0.8,5.4l-15.9,2.3l-0.9-6.4l-82.5,11.6l-0.8-5.2l-17.1,2.4l0.6,5.7L461.6,508.5z M647.5,483l-0.6-5.7
				l17.1-2.4l0.8,5.2l82.5-11.6l0.9,6.4l15.9-2.3l-0.8-5.4l24.9-3.4l-12.1-86.2l-40.1,5.5l1.4,10.9l-19.8,2.9l-3.3-23.7l-42.8,5.8
				l3,24.8l-19.3,2.7l-1-10.6l-41.1,6l11.8,84.4L647.5,483z" fill="silver" name="10"/>
		</g>
	</g>
</g>
<g id="парк">
	<g>
		<path class="st20" d="M519.8,98.5l-8.7-4.5l-8.7,4.5V112h17.4V98.5z"/>
		<path class="st21" d="M508.2,108.8v-9h4.3c1.6,0,2.9,1.3,2.9,2.9s-1.3,2.9-2.9,2.9h-2.3v3.2L508.2,108.8L508.2,108.8z
			 M513.5,102.7c0-0.7-0.6-1.2-1.2-1.2h-0.1h-2v2.5h2.1C512.9,104,513.5,103.4,513.5,102.7C513.5,102.8,513.5,102.7,513.5,102.7z"/>
	</g>
</g>
<g id="площадки">
	<rect x="840.3" y="300.2" class="st16" width="71" height="65.5"/>
	<rect x="923.4" y="93.5" class="st16" width="49.8" height="145.1"/>
	<rect x="613.1" y="102.3" class="st16" width="87.5" height="134.1"/>
	<polygon class="st16" points="923.4,277.1 1021.2,277.1 1056,336.8 1056,344.9 1017.5,365.7 923.4,365.7 	"/>
	<path class="st16" d="M1017.9,254h33.3c0,0-1.1,12.5,0,12.5s78.8,0,78.8,0v-89.2L981.3,92v97.8L1017.9,254z"/>
	<polygon class="st16" points="1043.9,282.2 1130,282.2 1130,341.2 1122,347.8 1065.9,347.8 1066.3,331.3 1043.9,294.7 	"/>
	<polygon class="st16" points="1150.6,190.2 1150.6,248.9 1248.4,248.9 1260.8,238.6 1157.1,176.7 	"/>
</g>
<g id="Слой_13">
	<g>
		<path class="st22" d="M1064.6,202.1c1.2,2.1,3.4,3.7,5.9,4.3c1.6,0.4,3,0.4,4.4,0c1.1-1.2,2-2.7,2.3-4.3c1.4-5.3-2-10.8-7.3-12.1
			c-1.1-0.2-2.1-0.4-3-0.2c-1.6,1.2-2.8,3-3.4,5.1C1062.9,197.5,1063.4,200,1064.6,202.1"/>
		<path class="st22" d="M1072.4,208.2c-0.9,0-1.8-0.2-2.7-0.4c-2.8-0.7-5.1-2.5-6.7-5c-1.4-2.5-2-5.5-1.2-8.2
			c0.4-1.6,1.2-3.2,2.3-4.4c-3.2,1.1-5.7,3.5-6.6,7.1c-1.4,5.3,2,10.8,7.3,12.1C1067.6,210.1,1070.5,209.6,1072.4,208.2
			C1072.6,208.2,1072.6,208.2,1072.4,208.2"/>
	</g>
	<g>
		<path class="st22" d="M946.7,163.1c1.2,2.1,3.4,3.7,5.9,4.3c1.6,0.4,3,0.4,4.4,0c1.1-1.2,2-2.7,2.3-4.3c1.4-5.3-2-10.8-7.3-12.1
			c-1.1-0.2-2.1-0.4-3-0.2c-1.6,1.2-2.8,3-3.4,5.1C944.9,158.5,945.4,161,946.7,163.1"/>
		<path class="st22" d="M954.5,169.2c-0.9,0-1.8-0.2-2.7-0.4c-2.8-0.7-5.1-2.5-6.7-5c-1.4-2.5-2-5.5-1.2-8.2
			c0.4-1.6,1.2-3.2,2.3-4.4c-3.2,1.1-5.7,3.5-6.6,7.1c-1.4,5.3,2,10.8,7.3,12.1C949.7,171.1,952.5,170.6,954.5,169.2
			C954.7,169.2,954.7,169.2,954.5,169.2"/>
	</g>
	<g>
		<path class="st22" d="M1181.1,224.7c1.2,2.1,3.4,3.7,5.9,4.3c1.6,0.4,3,0.4,4.4,0c1.1-1.2,2-2.7,2.3-4.3c1.4-5.3-2-10.8-7.3-12.1
			c-1.1-0.2-2.1-0.4-3-0.2c-1.6,1.2-2.8,3-3.4,5.1C1179.3,220,1179.9,222.5,1181.1,224.7"/>
		<path class="st22" d="M1188.9,230.7c-0.9,0-1.8-0.2-2.7-0.4c-2.8-0.7-5.1-2.5-6.7-5c-1.4-2.5-2-5.5-1.2-8.2
			c0.4-1.6,1.2-3.2,2.3-4.4c-3.2,1.1-5.7,3.5-6.6,7.1c-1.4,5.3,2,10.8,7.3,12.1C1184.1,232.6,1187,232.1,1188.9,230.7
			C1189.1,230.7,1189.1,230.7,1188.9,230.7"/>
	</g>
	<g>
		<path class="st22" d="M978.8,325.2c1.2,2.1,3.4,3.7,5.9,4.3c1.6,0.4,3,0.4,4.4,0c1.1-1.2,2-2.7,2.3-4.3c1.4-5.3-2-10.8-7.3-12.1
			c-1.1-0.2-2.1-0.4-3-0.2c-1.6,1.2-2.8,3-3.4,5.1C977,320.6,977.5,323.1,978.8,325.2"/>
		<path class="st22" d="M986.6,331.2c-0.9,0-1.8-0.2-2.7-0.4c-2.8-0.7-5.1-2.5-6.7-5c-1.4-2.5-2-5.5-1.2-8.2
			c0.4-1.6,1.2-3.2,2.3-4.4c-3.2,1.1-5.7,3.5-6.6,7.1c-1.4,5.3,2,10.8,7.3,12.1C981.8,333.2,984.6,332.6,986.6,331.2
			C986.8,331.2,986.8,331.2,986.6,331.2"/>
	</g>
	<g>
		<path class="st22" d="M871.6,335.1c1.2,2.1,3.4,3.7,5.9,4.3c1.6,0.4,3,0.4,4.4,0c1.1-1.2,2-2.7,2.3-4.3c1.4-5.3-2-10.8-7.3-12.1
			c-1.1-0.2-2.1-0.4-3-0.2c-1.6,1.2-2.8,3-3.4,5.1C869.8,330.5,870.4,333,871.6,335.1"/>
		<path class="st22" d="M879.4,341.2c-0.9,0-1.8-0.2-2.7-0.4c-2.8-0.7-5.1-2.5-6.7-5c-1.4-2.5-2-5.5-1.2-8.2
			c0.4-1.6,1.2-3.2,2.3-4.4c-3.2,1.1-5.7,3.5-6.6,7.1c-1.4,5.3,2,10.8,7.3,12.1C874.6,343.1,877.5,342.6,879.4,341.2
			C879.6,341.2,879.6,341.2,879.4,341.2"/>
	</g>
	<g>
		<g>
			<g>
				<path class="st22" d="M1087.8,315.3"/>
			</g>
		</g>
		<g>
			<path class="st22" d="M1091.6,320.1h-1.7c-0.4,0-0.8-0.4-0.8-0.8v-14.7c0-0.4,0.4-0.8,0.8-0.8h1.7c0.4,0,0.8,0.4,0.8,0.8v14.7
				C1092.3,319.7,1092,320.1,1091.6,320.1z"/>
			<path class="st22" d="M1104.6,320.1h-1.7c-0.4,0-0.8-0.4-0.8-0.8v-14.7c0-0.4,0.4-0.8,0.8-0.8h1.7c0.4,0,0.8,0.4,0.8,0.8v14.7
				C1105.3,319.7,1105,320.1,1104.6,320.1z"/>
			<path class="st22" d="M1089.9,316.9h-3.2c-0.4,0-0.8-0.4-0.8-0.8v-7.7c0-0.4,0.4-0.8,0.8-0.8h3.2c0.4,0,0.8,0.4,0.8,0.8v7.7
				C1090.7,316.5,1090.3,316.9,1089.9,316.9z"/>
			<path class="st22" d="M1107.8,316.9h-4.9c-0.4,0-0.8-0.4-0.8-0.8v-7.7c0-0.4,0.4-0.8,0.8-0.8h4.9c0.4,0,0.8,0.4,0.8,0.8v7.7
				C1108.6,316.5,1108.2,316.9,1107.8,316.9z"/>
			<line class="st23" x1="1089.5" y1="312" x2="1104.8" y2="312"/>
		</g>
	</g>
	<g>
		<g>
			<g>
				<path class="st22" d="M646.8,172.6"/>
			</g>
		</g>
		<g>
			<path class="st22" d="M650.5,177.3h-1.7c-0.4,0-0.8-0.4-0.8-0.8v-14.7c0-0.4,0.4-0.8,0.8-0.8h1.7c0.4,0,0.8,0.4,0.8,0.8v14.7
				C651.2,176.9,651,177.3,650.5,177.3z"/>
			<path class="st22" d="M663.5,177.3h-1.7c-0.4,0-0.8-0.4-0.8-0.8v-14.7c0-0.4,0.4-0.8,0.8-0.8h1.7c0.4,0,0.8,0.4,0.8,0.8v14.7
				C664.2,176.9,664,177.3,663.5,177.3z"/>
			<path class="st22" d="M648.9,174.1h-3.2c-0.4,0-0.8-0.4-0.8-0.8v-7.7c0-0.4,0.4-0.8,0.8-0.8h3.2c0.4,0,0.8,0.4,0.8,0.8v7.7
				C649.7,173.7,649.3,174.1,648.9,174.1z"/>
			<path class="st22" d="M666.7,174.1h-4.9c-0.4,0-0.8-0.4-0.8-0.8v-7.7c0-0.4,0.4-0.8,0.8-0.8h4.9c0.4,0,0.8,0.4,0.8,0.8v7.7
				C667.6,173.7,667.2,174.1,666.7,174.1z"/>
			<line class="st23" x1="648.4" y1="169.2" x2="663.8" y2="169.2"/>
		</g>
	</g>
</g>
<g id="компас">
	<g>
		<path class="st24" d="M82.5,543.3c-39.8,6.9-66.2,45.2-58.3,85.1c7.6,37.4,43.5,62.9,81.3,57.2c40.1-6.1,67.2-43.8,60.4-83.6l0,0
			C159.1,562.6,121.7,536.6,82.5,543.3"/>
		<path class="st25" d="M85.2,643.7l-0.6-30.4l22.1,8.9L85.2,643.7z M82.4,609.6L82.4,609.6l0.7,39.1l27.7-27.7l-0.8-39.1
			L82.4,609.6z"/>
		<path class="st25" d="M126,627c-5.6,14.3-20.8,22.3-35.7,19.2l0.4-1.4c16.2,3.4,32.4-7.3,35.6-23.5c2.6-12.6-2.9-25.2-13.8-31.9
			l0.8-1.3C126.2,596.3,131.6,612.6,126,627"/>
		<path class="st25" d="M81.1,641.2l-0.7,1.3c-14.9-9-19.9-28.5-10.9-43.5c7-11.7,20.8-17.5,34.1-14.5l-0.4,1.4
			c-14.5-3.4-29.3,4.3-34.7,18.2C63,617.8,68.5,633.6,81.1,641.2"/>
		<polygon class="st25" points="134.5,630.4 130.1,624.7 127.3,631.5 		"/>
		<polygon class="st25" points="58.7,599.9 63.2,605.6 65.8,598.9 		"/>
		<path class="st25" d="M110.1,573.5c-0.5-1.3-0.7-2.8-0.1-4.1c0.4-1.3,1.4-2.5,2.7-3.1c1.3-0.7,2.7-0.8,4.1-0.1
			c0.9,0.3,1.8,0.9,2.4,1.7l-0.4,1c-0.7-0.8-1.5-1.4-2.4-1.8c-1-0.4-2.3-0.3-3.3,0.2c-2,1.1-2.9,3.7-2,5.8c0.5,1,1.3,1.8,2.5,2.1
			c1,0.4,2.1,0.5,3.1,0l-0.4,1c-1.1,0.3-2.2,0.3-3.2-0.2C112,575.7,110.8,574.8,110.1,573.5"/>
		<path class="st25" d="M79.1,665.7c1,0.4,1.9,0.3,3-0.1c2-1.1,3-3.6,2.3-5.9c-0.4-1-1.1-1.7-2-2c-1-0.4-1.9-0.3-3,0.1
			c-2,1.1-3,3.6-2.3,5.9C77.4,664.5,78.3,665.3,79.1,665.7 M76.2,664c-0.5-1.2-0.5-2.6,0-3.9l-2-0.7l-1.7,4.4l-1-0.4l3.7-9.6l1,0.4
			l-1.7,4.3l2,0.7c0.5-1.2,1.6-2,2.7-2.7c2.5-1,5.1,0.1,6.1,2.4l0,0.1c0.4,1.3,0.5,2.8-0.1,4.1c-0.5,1.3-1.5,2.4-2.6,3
			s-2.5,0.7-3.8,0.1C77.5,666.1,76.7,665.3,76.2,664"/>
	</g>
</g>
<g id="подписи">
	<g class="st26">
		<path class="st27" d="M98.2,302l-3.4-1.2l-7.8,2.9l0-2.3l4.9-1.7L87,298l0-2.1l11.2,4L98.2,302z"/>
		<path class="st27" d="M94.8,295.9l-1.8,0c0-0.1,0-0.2,0-0.3c0-0.5-0.5-0.8-1.5-0.9c-0.3,0-0.9,0-1.6-0.1c-0.8,0-1.5-0.1-2.1-0.1
			l-0.9,0l-0.1-5.9l7.8-0.1l0,2.3l-6,0.1l0,1.8c1.9,0.1,3,0.2,3.1,0.2c1,0.1,1.8,0.3,2.3,0.7c0.5,0.4,0.8,0.9,0.8,1.7
			c0,0.1,0,0.3,0,0.4C94.8,295.7,94.8,295.8,94.8,295.9L94.8,295.9z"/>
		<path class="st27" d="M94.6,281.6l-4.5,0l4.5,2.8l0,2.2l-7.8,0.1l0-2.3l4.6,0l-4.6-2.8l0-2.2l7.8-0.1L94.6,281.6z"/>
		<path class="st27" d="M94.6,277.6l-7.8,0.1l0-2.3l6-0.1l0-2.5l-6,0.1l0-2.3l6-0.1l0-1.1l3.8,0l0,2l-2,0L94.6,277.6z"/>
		<path class="st27" d="M94.6,262.2c0,0.5-0.1,0.9-0.3,1.1c-0.2,0.3-0.5,0.4-0.9,0.5c0.8,0.6,1.2,1.4,1.2,2.4c0,0.8-0.2,1.4-0.6,1.9
			c-0.4,0.5-1,0.7-1.7,0.7c-0.8,0-1.4-0.3-1.8-0.8c-0.4-0.6-0.7-1.3-0.7-2.3l0-1.4l-0.2,0c-0.5,0-0.8,0.1-1,0.4
			c-0.2,0.2-0.3,0.7-0.3,1.2c0,0.4,0,0.7,0.1,1.1c0.1,0.4,0.1,0.7,0.2,0.9l0.1,0.3l-1.6,0c-0.3-0.8-0.4-1.6-0.4-2.6
			c0-1.2,0.2-2.2,0.7-2.7c0.5-0.6,1.2-0.9,2.2-0.9l3,0c0.2,0,0.4-0.1,0.5-0.2c0.1-0.1,0.1-0.3,0.1-0.5l0-0.2l1.4,0
			C94.5,261.4,94.6,261.7,94.6,262.2z M92.7,266.3c0.1-0.2,0.2-0.4,0.2-0.7s-0.1-0.5-0.2-0.8c-0.1-0.2-0.2-0.4-0.3-0.5l-0.2-0.1
			l-1.2,0l0,0.8c0.1,1,0.4,1.5,1,1.5C92.4,266.5,92.6,266.4,92.7,266.3z"/>
		<path class="st27" d="M94.3,256.7l-10.8,0.1l0-2.2l8.8-0.1l0-2.8l-8.8,0.1l0-2.2l8.8-0.1l0-2.8l-8.8,0.1l0-2.2l10.8-0.1
			L94.3,256.7z"/>
		<path class="st27" d="M94.3,238.6c0,1.3-0.3,2.3-1,3c-0.7,0.7-1.7,1.1-2.9,1.1c-1.3,0-2.3-0.3-3.1-1c-0.8-0.6-1.1-1.6-1.1-2.7
			c0-0.6,0.1-1.1,0.3-1.6c0.2-0.4,0.5-0.8,0.8-1c0.3-0.3,0.7-0.4,1.1-0.6c0.4-0.1,0.8-0.2,1.3-0.2l1.2,0l0,4.7
			c1.2-0.1,1.8-0.9,1.8-2.3c0-0.3,0-0.7-0.1-1c-0.1-0.4-0.1-0.6-0.2-0.8l-0.1-0.3l1.6,0C94.1,236.7,94.3,237.5,94.3,238.6z
			 M89.5,240.5l0-2.7c-1.1,0-1.7,0.4-1.7,1.3C87.8,239.9,88.4,240.4,89.5,240.5z"/>
		<path class="st27" d="M97.5,230.3l-3.2,0c0,1.3-0.4,2.3-1.1,3.1c-0.7,0.8-1.7,1.2-3,1.2c-1.2,0-2.2-0.4-3-1.2
			c-0.7-0.8-1.1-1.8-1.1-3.1l-1.3,0c-0.2,0-0.4,0.1-0.5,0.2c-0.1,0.1-0.1,0.3-0.1,0.5l0,0.2l-1.4,0c-0.1-0.3-0.2-0.8-0.2-1.3
			c0-1.1,0.5-1.7,1.6-1.7l1.9,0c0-1.3,0.4-2.3,1.1-3.1c0.7-0.8,1.7-1.2,3-1.2c1.2,0,2.2,0.4,3,1.2c0.7,0.8,1.1,1.8,1.1,3l3.2,0
			L97.5,230.3z M92.6,228.2c0-0.6-0.3-1.1-0.7-1.5c-0.4-0.4-1-0.5-1.7-0.5c-0.8,0-1.4,0.2-1.8,0.6c-0.4,0.4-0.7,0.9-0.7,1.5
			L92.6,228.2z M90.2,232.5c0.8,0,1.4-0.2,1.8-0.6c0.4-0.4,0.7-0.9,0.7-1.5l-4.9,0.1c0,0.6,0.3,1.1,0.7,1.5
			C88.8,232.3,89.4,232.5,90.2,232.5z"/>
		<path class="st27" d="M94.1,218.9c0,1.2-0.3,2.2-1,2.9c-0.7,0.7-1.7,1.1-3,1.1c-1.2,0-2.2-0.3-3-1c-0.7-0.7-1.1-1.7-1.1-2.9
			c0-0.4,0-0.7,0.1-1c0.1-0.3,0.1-0.5,0.2-0.7l0.1-0.2l1.6,0c-0.2,0.4-0.3,1-0.3,1.5c0,0.7,0.2,1.2,0.6,1.5c0.4,0.3,1,0.5,1.8,0.5
			c0.8,0,1.4-0.2,1.8-0.5c0.4-0.3,0.6-0.9,0.6-1.5c0-0.3,0-0.5-0.1-0.8c0-0.3-0.1-0.4-0.1-0.6l-0.1-0.2l1.6,0
			C94,217.5,94.1,218.1,94.1,218.9z"/>
		<path class="st27" d="M93.9,210.7l-3,2l0,0.6l3.1,0l0,2.3l-7.8,0.1l0-2.3l2.9,0l0-0.6l-3-1.9l0-2.3l3.7,2.4l4.1-2.7L93.9,210.7z"
			/>
		<path class="st27" d="M93.9,201.5c0,0.5-0.1,0.9-0.3,1.1c-0.2,0.3-0.5,0.4-0.9,0.5c0.8,0.6,1.2,1.4,1.2,2.4c0,0.8-0.2,1.4-0.6,1.9
			s-1,0.7-1.7,0.7c-0.8,0-1.4-0.3-1.8-0.8c-0.4-0.6-0.7-1.3-0.7-2.3l0-1.4l-0.2,0c-0.5,0-0.8,0.1-1,0.4c-0.2,0.2-0.3,0.7-0.3,1.2
			c0,0.4,0,0.7,0.1,1.1c0.1,0.4,0.1,0.7,0.2,0.9l0.1,0.3l-1.6,0c-0.3-0.8-0.4-1.6-0.4-2.6c0-1.2,0.2-2.2,0.7-2.7
			c0.5-0.6,1.2-0.9,2.2-0.9l3,0c0.2,0,0.4-0.1,0.5-0.2c0.1-0.1,0.1-0.3,0.1-0.5l0-0.2l1.4,0C93.9,200.7,93.9,201.1,93.9,201.5z
			 M92.1,205.6c0.1-0.2,0.2-0.4,0.2-0.7s-0.1-0.5-0.2-0.8c-0.1-0.2-0.2-0.4-0.3-0.5l-0.2-0.1l-1.2,0l0,0.8c0.1,1,0.4,1.5,1,1.5
			C91.7,205.8,91.9,205.7,92.1,205.6z"/>
		<path class="st27" d="M91.1,195.2l0,0.8l2.6,1.5l0,2.4l-3-1.8c-0.4,1-1.1,1.6-2.2,1.6c-0.8,0-1.4-0.3-1.9-0.8
			c-0.5-0.5-0.7-1.3-0.8-2.3l0-3.6l7.8-0.1l0,2.3L91.1,195.2z M89.6,195.2l-2.1,0l0,1c0,0.4,0.1,0.7,0.3,0.9s0.5,0.3,0.8,0.3
			s0.6-0.1,0.8-0.3c0.2-0.2,0.3-0.5,0.3-0.9L89.6,195.2z"/>
	</g>
</g>
<g id="p">
	<g>
		<g>
		</g>
		<g>
		</g>
	</g>
	<polygon class="st28" points="420.9,174.2 411.4,168.8 411.4,180 	"/>
	<g class="st30">
		<path class="st27" d="M294.2,177.6v-5.2h5.1v5.2h-1.6v-4h-1.9v4H294.2z"/>
		<path class="st27" d="M303.1,177.7c-0.9,0-1.5-0.2-2-0.7c-0.5-0.5-0.8-1.1-0.8-2s0.3-1.5,0.8-2c0.5-0.5,1.2-0.7,2-0.7
			c0.9,0,1.5,0.2,2,0.7c0.5,0.5,0.8,1.1,0.8,2c0,0.8-0.3,1.5-0.8,2S303.9,177.7,303.1,177.7z M303.1,176.6c0.7,0,1.1-0.5,1.1-1.6
			c0-1.1-0.4-1.6-1.1-1.6c-0.8,0-1.1,0.5-1.1,1.6C302,176.1,302.3,176.6,303.1,176.6z"/>
		<path class="st27" d="M307.8,177.6v1.3h-1.4v-2.5h0.6c0.2-0.2,0.4-0.6,0.5-1.2c0-0.2,0.1-0.5,0.1-1c0-0.5,0.1-0.9,0.1-1.2l0-0.5
			h4.4v4h0.8v2.5h-1.4v-1.3H307.8z M308.8,175.2c-0.1,0.6-0.2,1-0.4,1.2h2v-2.8H309C308.9,174.4,308.9,174.9,308.8,175.2z"/>
		<path class="st27" d="M315.2,177.7c-0.3,0-0.7,0-0.9-0.1s-0.5-0.1-0.6-0.1l-0.2-0.1v-1.1c0.4,0.2,0.9,0.2,1.5,0.2
			c0.7,0,1.1-0.2,1.1-0.6c0-0.3-0.3-0.5-1-0.5h-0.9v-1h0.9c0.5,0,0.8-0.2,0.8-0.5c0-0.3-0.3-0.5-0.9-0.5c-0.2,0-0.5,0-0.7,0
			c-0.3,0-0.4,0.1-0.6,0.1l-0.2,0v-1.1c0.5-0.1,1.1-0.2,1.8-0.2c0.7,0,1.3,0.1,1.7,0.4c0.4,0.2,0.6,0.6,0.6,1c0,0.5-0.3,0.9-0.8,1.1
			c0.7,0.2,1,0.6,1,1.2c0,0.5-0.2,0.9-0.7,1.2C316.7,177.5,316,177.7,315.2,177.7z"/>
		<path class="st27" d="M321.5,177.7c-0.9,0-1.7-0.2-2.2-0.7s-0.8-1.1-0.8-1.9c0-0.9,0.2-1.5,0.7-2c0.5-0.5,1.1-0.7,2-0.7
			c0.4,0,0.8,0.1,1.1,0.2c0.3,0.1,0.6,0.3,0.7,0.5c0.2,0.2,0.3,0.5,0.4,0.7s0.1,0.5,0.1,0.8l0,0.8h-3.4c0.1,0.8,0.6,1.2,1.6,1.2
			c0.2,0,0.5,0,0.8-0.1c0.3,0,0.5-0.1,0.6-0.1l0.2-0.1v1C322.9,177.6,322.3,177.7,321.5,177.7z M320.2,174.5h2
			c0-0.7-0.3-1.1-0.9-1.1C320.6,173.4,320.3,173.7,320.2,174.5z"/>
		<path class="st27" d="M327.3,177.3l-1.2-3l-0.1,3.2h-1.3l0.2-5.2h1.9l1.3,3.2l1.3-3.2h1.9l0.2,5.2h-1.5l-0.1-3.4l-1.3,3.1
			L327.3,177.3z"/>
		<path class="st27" d="M332.6,177.6v-5.2h1.6v1.9h1.9v-1.9h1.6v5.2h-1.6v-2h-1.9v2H332.6z"/>
		<path class="st27" d="M339.1,177.6v-5.2h1.6v1.6h0.9c0.7,0,1.3,0.2,1.6,0.5c0.4,0.3,0.6,0.7,0.6,1.3c0,0.5-0.2,1-0.6,1.3
			c-0.4,0.3-1,0.5-1.7,0.5H339.1z M340.7,176.5h0.6c0.3,0,0.5-0.1,0.7-0.2c0.2-0.1,0.3-0.3,0.3-0.6c0-0.2-0.1-0.4-0.2-0.5
			s-0.4-0.2-0.7-0.2h-0.6V176.5z M344.4,177.6v-5.2h1.6v5.2H344.4z"/>
		<path class="st27" d="M351,177.6v-3l-2,3h-1.6v-5.2h1.6v3l2.1-3h1.6v5.2H351z M350,171.6c-0.5,0-1-0.1-1.3-0.4
			c-0.4-0.3-0.5-0.7-0.5-1.2h1.2c0,0.1,0,0.2,0,0.3c0,0.1,0.1,0.2,0.2,0.3c0.1,0.1,0.3,0.2,0.4,0.2c0.2,0,0.4-0.1,0.5-0.3
			s0.1-0.4,0.1-0.5h1.2c0,0.5-0.2,0.9-0.5,1.2C350.9,171.5,350.5,171.6,350,171.6z"/>
		<path class="st27" d="M356.2,177.6v-5.2h5.1v5.2h-1.6v-4h-1.9v4H356.2z"/>
		<path class="st27" d="M366.9,177.7c-0.3,0-0.6-0.1-0.8-0.2c-0.2-0.1-0.3-0.3-0.4-0.6c-0.5,0.5-1,0.8-1.7,0.8c-0.6,0-1-0.1-1.3-0.4
			c-0.3-0.3-0.5-0.7-0.5-1.1c0-0.5,0.2-0.9,0.6-1.2c0.4-0.3,1-0.4,1.7-0.5l1,0v-0.1c0-0.3-0.1-0.5-0.3-0.7c-0.2-0.1-0.5-0.2-0.9-0.2
			c-0.3,0-0.5,0-0.8,0.1c-0.3,0-0.5,0.1-0.6,0.1l-0.2,0.1v-1.1c0.5-0.2,1.2-0.3,1.9-0.3c0.9,0,1.6,0.2,2,0.5
			c0.4,0.3,0.6,0.8,0.6,1.5v2c0,0.2,0,0.3,0.1,0.3c0.1,0.1,0.2,0.1,0.4,0.1h0.1v0.9C367.5,177.6,367.2,177.7,366.9,177.7z
			 M363.9,176.4c0.1,0.1,0.3,0.1,0.5,0.1c0.2,0,0.4,0,0.6-0.1s0.3-0.1,0.4-0.2l0.1-0.1v-0.8l-0.6,0c-0.7,0-1.1,0.3-1.1,0.7
			C363.8,176.2,363.8,176.3,363.9,176.4z"/>
		<path class="st27" d="M371.6,177.7c-0.5,0-1-0.1-1.3-0.4v2.5h-1.6v-6.1c0-0.2,0-0.3-0.1-0.3s-0.2-0.1-0.4-0.1h-0.1v-1
			c0.2-0.1,0.5-0.1,0.8-0.1c0.7,0,1.1,0.3,1.2,0.8c0.1-0.2,0.3-0.4,0.6-0.5c0.3-0.2,0.6-0.3,1.1-0.3c0.8,0,1.4,0.2,1.7,0.7
			c0.4,0.5,0.5,1.1,0.5,1.9c0,0.8-0.2,1.5-0.6,2C373,177.4,372.4,177.7,371.6,177.7z M371.2,176.5c0.4,0,0.6-0.1,0.8-0.4
			s0.3-0.6,0.3-1.1c0-0.9-0.4-1.4-1.1-1.4c-0.2,0-0.4,0-0.5,0.1s-0.3,0.2-0.3,0.2l-0.1,0.1v2.2c0,0,0,0,0.1,0.1
			c0.1,0,0.1,0.1,0.1,0.1c0,0,0.1,0,0.2,0.1c0.1,0,0.2,0.1,0.2,0.1C371,176.5,371.1,176.5,371.2,176.5z"/>
		<path class="st27" d="M378.5,177.6l-1.4-2h-0.4v2h-1.6v-5.2h1.6v1.9l0.4,0l1.4-1.9h1.7l-1.7,2.4l1.9,2.7H378.5z"/>
		<path class="st27" d="M384.6,177.6v-3l-2,3H381v-5.2h1.6v3l2.1-3h1.6v5.2H384.6z"/>
		<path class="st27" d="M387.5,177.6v-5.2h1.6v1.9h1.9v-1.9h1.6v5.2H391v-2h-1.9v2H387.5z"/>
		<path class="st27" d="M394,177.6v-5.2h3.8v1.2h-2.2v4H394z"/>
	</g>
</g>
</svg>
