<?xml version="1.0" encoding="utf-8"?>
<!-- Generator: Adobe Illustrator 23.0.0, SVG Export Plug-In . SVG Version: 6.00 Build 0)  -->
<svg version="1.1" xmlns="http://www.w3.org/2000/svg" xmlns:xlink="http://www.w3.org/1999/xlink" x="0px" y="0px" width="1280px"
	 height="720px" viewBox="0 0 1280 720" style="enable-background:new 0 0 1280 720;" xml:space="preserve">
<style type="text/css">
	.st0{fill:#C5E0C2;}
	.st1{opacity:0.4;}
	.st2{fill:#FFFFFF;}
	.st3{fill:none;stroke:#919395;stroke-width:1.5;stroke-miterlimit:10;}
	.st4{fill:none;stroke:#919395;stroke-width:1.5;stroke-miterlimit:10;stroke-dasharray:7.9686,7.9686;}
	.st5{fill:none;stroke:#919395;stroke-width:1.5;stroke-miterlimit:10;stroke-dasharray:8.1255,8.1255;}
	.st6{fill:none;stroke:#919395;stroke-width:1.5;stroke-miterlimit:10;stroke-dasharray:7.8764,7.8764;}
	.st7{fill:none;stroke:#919395;stroke-width:1.5;stroke-miterlimit:10;stroke-dasharray:8.0207,8.0207;}
	.st8{fill:#64B16A;}
	.st9{opacity:0.6;}
	.st10{fill:#ABCD8B;}
	.st11{fill:#95C583;}
	.st12{fill:none;stroke:#FFFFFF;stroke-width:16;stroke-linecap:round;stroke-miterlimit:10;}
	.st13{fill:none;stroke:#FFFFFF;stroke-width:16;stroke-miterlimit:10;}
	.st14{fill:none;stroke:#FFFFFF;stroke-width:6;stroke-linecap:round;stroke-miterlimit:10;}
	.st15{opacity:0.8;}
	.st16{fill:#676767;}
	.st17{fill:#C3C7CD;}
	.st18{fill:none;stroke:#FFFFFF;stroke-miterlimit:10;}
	.st19{fill:#EEF2F5;}
	.st20{opacity:0.8;fill:#919395;}
	.st21{opacity:0.8;fill:#FFFFFF;stroke:#919395;stroke-width:1.2;stroke-miterlimit:10;}
	.st22{opacity:0.8;enable-background:new    ;}
	.st23{opacity:0.8;fill:#FFFFFF;enable-background:new    ;}
	.st24{fill:#919395;}
</style>
<g id="фон">
	<g id="фон_1_">
		<polygon class="st0" points="1301.1,742.7 -14.9,739.7 -14.9,-13 1301.1,-10 		"/>
	</g>
</g>
<g id="подземка">
	<g class="st1">
		<g>
			<polyline class="st3" points="439.1,293.1 435.1,293.1 435.1,297.1 			"/>
			<line class="st4" x1="435.1" y1="305.1" x2="435.1" y2="572"/>
			<polyline class="st3" points="435.1,576 435.1,580 439.1,580 			"/>
			<line class="st5" x1="447.3" y1="580" x2="800.7" y2="580"/>
			<polyline class="st3" points="804.8,580 808.8,580 811.6,577.1 			"/>
			<polyline class="st6" points="817.1,571.5 916.4,470.6 916.4,301 			"/>
			<polyline class="st3" points="916.4,297.1 916.4,293.1 912.4,293.1 			"/>
			<line class="st7" x1="904.3" y1="293.1" x2="443.2" y2="293.1"/>
		</g>
	</g>
</g>
<g id="зелень">
	<g>
		<g>
			<path class="st8" d="M1157.7,120.9c12.9,0,12.9-20,0-20C1144.8,100.9,1144.8,120.9,1157.7,120.9L1157.7,120.9z"/>
		</g>
	</g>
	<g>
		<g>
			<path class="st8" d="M1176.1,292.3c12.3,0,24.1-10.8,23.5-23.5c-0.6-12.7-10.3-23.5-23.5-23.5c-12.3,0-24.1,10.8-23.5,23.5
				C1153.1,281.5,1162.9,292.3,1176.1,292.3L1176.1,292.3z"/>
		</g>
	</g>
	<g>
		<g>
			<path class="st8" d="M1207.7,238.3c14.9,0,15-23.2,0-23.2C1192.7,215.1,1192.7,238.3,1207.7,238.3L1207.7,238.3z"/>
		</g>
	</g>
	<g>
		<g>
			<path class="st8" d="M1141,493.3c12.8,0,25.1-11.3,24.5-24.5c-0.6-13.3-10.8-24.5-24.5-24.5c-12.8,0-25.1,11.3-24.5,24.5
				C1117.1,482.1,1127.2,493.3,1141,493.3L1141,493.3z"/>
		</g>
	</g>
	<g>
		<g>
			<path class="st8" d="M1227.8,375c12.4,0,24.3-10.9,23.7-23.7c-0.6-12.9-10.4-23.7-23.7-23.7c-12.4,0-24.3,10.9-23.7,23.7
				C1204.7,364.1,1214.5,375,1227.8,375L1227.8,375z"/>
		</g>
	</g>
	<g>
		<g>
			<path class="st8" d="M96.3,170.3c10.5,0,20.5-9.2,20-20c-0.5-10.8-8.8-20-20-20c-10.5,0-20.5,9.2-20,20
				C76.8,161.2,85.1,170.3,96.3,170.3L96.3,170.3z"/>
		</g>
	</g>
	<g>
		<g>
			<path class="st8" d="M173.5,164.6c16.1,0,16.2-25.1,0-25.1C157.3,139.6,157.3,164.6,173.5,164.6L173.5,164.6z"/>
		</g>
	</g>
	<g>
		<g>
			<path class="st8" d="M89.2,353.9c9.2,0,18-8.1,17.6-17.6c-0.4-9.5-7.7-17.6-17.6-17.6c-9.2,0-18,8.1-17.6,17.6
				C72.1,345.9,79.4,353.9,89.2,353.9L89.2,353.9z"/>
		</g>
	</g>
	<g>
		<g>
			<path class="st8" d="M119.9,279.6c17.3,0,17.3-26.8,0-26.8C102.7,252.7,102.6,279.6,119.9,279.6L119.9,279.6z"/>
		</g>
	</g>
	<g>
		<g>
			<path class="st8" d="M106.8,560.6c12.7,0,24.9-11.2,24.3-24.3c-0.6-13.2-10.7-24.3-24.3-24.3c-12.7,0-24.9,11.2-24.3,24.3
				C83.1,549.5,93.2,560.6,106.8,560.6L106.8,560.6z"/>
		</g>
	</g>
	<g>
		<g>
			<path class="st8" d="M177,426.3c13.1,0,25.7-11.5,25.1-25.1c-0.6-13.6-11-25.1-25.1-25.1c-13.1,0-25.7,11.5-25.1,25.1
				C152.5,414.8,162.9,426.3,177,426.3L177,426.3z"/>
		</g>
	</g>
	<g>
		<g>
			<path class="st8" d="M277,571.6c8.8,0,17.2-7.7,16.8-16.8c-0.4-9.1-7.4-16.8-16.8-16.8c-8.8,0-17.2,7.7-16.8,16.8
				C260.6,563.8,267.5,571.6,277,571.6L277,571.6z"/>
		</g>
	</g>
	<g>
		<g>
			<path class="st8" d="M682.2,321.4c8.2,0,16.2-7.3,15.8-15.8c-0.4-8.5-6.9-15.8-15.8-15.8c-8.2,0-16.2,7.3-15.8,15.8
				C666.8,314.2,673.4,321.4,682.2,321.4L682.2,321.4z"/>
		</g>
	</g>
	<g>
		<g>
			<path class="st8" d="M986.6,636c9.5,0,18.6-8.3,18.1-18.1c-0.4-9.8-8-18.1-18.1-18.1c-9.5,0-18.6,8.3-18.1,18.1
				C968.9,627.7,976.4,636,986.6,636L986.6,636z"/>
		</g>
	</g>
	<g class="st9">
		<g>
			<path class="st8" d="M115.6,190.7c9.2,0,18-8.1,17.6-17.6c-0.4-9.5-7.7-17.6-17.6-17.6c-9.2,0-18,8.1-17.6,17.6
				C98.4,182.7,105.7,190.7,115.6,190.7L115.6,190.7z"/>
		</g>
	</g>
	<g class="st9">
		<g>
			<path class="st8" d="M162.9,419.2c10.8,0,21.1-9.5,20.6-20.6c-0.5-11.2-9.1-20.6-20.6-20.6c-10.8,0-21.1,9.5-20.6,20.6
				C142.8,409.8,151.4,419.2,162.9,419.2L162.9,419.2z"/>
		</g>
	</g>
	<g class="st9">
		<g>
			<path class="st8" d="M119.9,531.1c11.1,0,21.7-9.7,21.1-21.1c-0.5-11.5-9.3-21.1-21.1-21.1c-11.1,0-21.7,9.7-21.1,21.1
				C99.3,521.5,108.1,531.1,119.9,531.1L119.9,531.1z"/>
		</g>
	</g>
	<g class="st9">
		<g>
			<path class="st8" d="M283.1,546.6c7.4,0,13.8-6.3,13.8-13.8c0-7.5-6.3-13.8-13.8-13.8c-7.4,0-13.8,6.3-13.8,13.8
				C269.3,540.3,275.6,546.6,283.1,546.6L283.1,546.6z"/>
		</g>
	</g>
	<g class="st9">
		<g>
			<path class="st8" d="M696.3,307.7c16.3,0,16.3-25.3,0-25.3C680,282.4,679.9,307.7,696.3,307.7L696.3,307.7z"/>
		</g>
	</g>
	<g class="st9">
		<g>
			<path class="st8" d="M1152.4,294.1c14.6,0,14.6-22.6,0-22.6C1137.8,271.5,1137.8,294.1,1152.4,294.1L1152.4,294.1z"/>
		</g>
	</g>
	<g class="st9">
		<g>
			<path class="st8" d="M1214.7,239.1c12.5,0,24.4-11,23.8-23.8c-0.6-12.9-10.5-23.8-23.8-23.8c-12.5,0-24.4,11-23.8,23.8
				C1191.4,228.2,1201.3,239.1,1214.7,239.1L1214.7,239.1z"/>
		</g>
	</g>
	<g class="st9">
		<g>
			<path class="st8" d="M1176.1,126.1c11.7,0,22.8-10.2,22.3-22.3c-0.5-12.1-9.8-22.3-22.3-22.3c-11.7,0-22.8,10.2-22.3,22.3
				C1154.3,115.9,1163.6,126.1,1176.1,126.1L1176.1,126.1z"/>
		</g>
	</g>
	<g class="st9">
		<g>
			<path class="st8" d="M1241,352.6c10.4,0,20.3-9.1,19.8-19.8c-0.5-10.7-8.7-19.8-19.8-19.8c-10.4,0-20.3,9.1-19.8,19.8
				C1221.7,343.5,1229.9,352.6,1241,352.6L1241,352.6z"/>
		</g>
	</g>
	<g class="st9">
		<g>
			<path class="st8" d="M1224.3,51.6c8,0,15.6-7,15.3-15.3c-0.4-8.3-6.7-15.3-15.3-15.3c-8,0-15.6,7-15.3,15.3
				C1209.4,44.6,1215.8,51.6,1224.3,51.6L1224.3,51.6z"/>
		</g>
	</g>
	<g class="st9">
		<g>
			<path class="st8" d="M1169.1,452.5c14,0,14.1-21.8,0-21.8C1155,430.7,1155,452.5,1169.1,452.5L1169.1,452.5z"/>
		</g>
	</g>
	<g class="st9">
		<g>
			<path class="st8" d="M1224.3,496.4c14.1,0,14.1-21.9,0-21.9C1210.3,474.5,1210.2,496.4,1224.3,496.4L1224.3,496.4z"/>
		</g>
	</g>
	<g class="st9">
		<g>
			<path class="st8" d="M1149.8,535.8c17.4,0,17.4-27,0-27C1132.4,508.8,1132.4,535.8,1149.8,535.8L1149.8,535.8z"/>
		</g>
	</g>
	<g class="st9">
		<g>
			<path class="st8" d="M1006,616.2c16.9,0,17-26.3,0-26.3C989.1,589.8,989,616.2,1006,616.2L1006,616.2z"/>
		</g>
	</g>
	<g class="st9">
		<g>
			<path class="st8" d="M1043,565c7.6,0,14-6.4,14-14c0-7.6-6.4-14-14-14c-7.6,0-14,6.4-14,14C1029,558.6,1035.4,565,1043,565
				L1043,565z"/>
		</g>
	</g>
	<g class="st9">
		<g>
			<path class="st8" d="M259,711.5c8.6,0,16.9-7.6,16.5-16.5c-0.4-8.9-7.2-16.5-16.5-16.5c-8.6,0-16.9,7.6-16.5,16.5
				C242.9,703.9,249.8,711.5,259,711.5L259,711.5z"/>
		</g>
	</g>
	<g class="st9">
		<g>
			<path class="st8" d="M304,715.1c7.6,0,14.1-6.5,14.1-14.1c0-7.6-6.4-14.1-14.1-14.1c-7.6,0-14.1,6.5-14.1,14.1
				C289.9,708.6,296.4,715.1,304,715.1L304,715.1z"/>
		</g>
	</g>
	<g class="st9">
		<g>
			<path class="st8" d="M284,712.2c11.6,0,22.7-10.2,22.2-22.2c-0.5-12-9.7-22.2-22.2-22.2c-11.6,0-22.7,10.2-22.2,22.2
				C262.4,702,271.6,712.2,284,712.2L284,712.2z"/>
		</g>
	</g>
	<g class="st9">
		<g>
			<path class="st8" d="M297,159c11,0,21.5-9.7,21-21c-0.5-11.4-9.2-21-21-21c-11,0-21.5,9.7-21,21C276.5,149.4,285.2,159,297,159
				L297,159z"/>
		</g>
	</g>
	<g class="st9">
		<g>
			<path class="st8" d="M417,195c16.7,0,16.7-26,0-26C400.3,169,400.3,195,417,195L417,195z"/>
		</g>
	</g>
	<g class="st9">
		<g>
			<path class="st8" d="M755,403.4c8.1,0,15.8-7.1,15.4-15.4c-0.4-8.4-6.8-15.4-15.4-15.4c-8.1,0-15.8,7.1-15.4,15.4
				C739.9,396.4,746.3,403.4,755,403.4L755,403.4z"/>
		</g>
	</g>
	<g class="st9">
		<g>
			<path class="st8" d="M1034,140.9c10.9,0,21.4-9.6,20.9-20.9c-0.5-11.3-9.2-20.9-20.9-20.9c-10.9,0-21.4,9.6-20.9,20.9
				C1013.6,131.3,1022.3,140.9,1034,140.9L1034,140.9z"/>
		</g>
	</g>
	<g class="st9">
		<g>
			<path class="st8" d="M1036,386.7c11.3,0,22.2-10,21.7-21.7c-0.5-11.7-9.5-21.7-21.7-21.7c-11.3,0-22.2,10-21.7,21.7
				C1014.8,376.7,1023.8,386.7,1036,386.7L1036,386.7z"/>
		</g>
	</g>
	<g class="st9">
		<g>
			<path class="st8" d="M1046,459.6c10.8,0,21.1-9.5,20.6-20.6c-0.5-11.2-9.1-20.6-20.6-20.6c-10.8,0-21.1,9.5-20.6,20.6
				C1025.9,450.2,1034.4,459.6,1046,459.6L1046,459.6z"/>
		</g>
	</g>
	<g class="st9">
		<g>
			<path class="st8" d="M26.6,419.9c10.9,0,21.3-9.6,20.8-20.8c-0.5-11.3-9.2-20.8-20.8-20.8c-10.9,0-21.3,9.6-20.8,20.8
				C6.3,410.3,14.9,419.9,26.6,419.9L26.6,419.9z"/>
		</g>
	</g>
	<g>
		<g>
			<path class="st10" d="M174,207c12,0,23.5-10.6,23-23c-0.6-12.4-10.1-23-23-23c-12,0-23.5,10.6-23,23
				C151.6,196.4,161.1,207,174,207L174,207z"/>
		</g>
	</g>
	<g>
		<g>
			<path class="st10" d="M185,327.5c13.5,0,13.5-21,0-21C171.5,306.5,171.5,327.5,185,327.5L185,327.5z"/>
		</g>
	</g>
	<g>
		<g>
			<path class="st10" d="M82,469c16.8,0,16.8-26.1,0-26.1C65.2,443,65.2,469,82,469L82,469z"/>
		</g>
	</g>
	<g>
		<g>
			<path class="st10" d="M202,526.9c9.4,0,18.4-8.2,17.9-17.9c-0.4-9.7-7.9-17.9-17.9-17.9c-9.4,0-18.4,8.2-17.9,17.9
				C184.5,518.7,192,526.9,202,526.9L202,526.9z"/>
		</g>
	</g>
	<g>
		<g>
			<path class="st10" d="M141,629.8c8,0,14.8-6.8,14.8-14.8c0-8-6.8-14.8-14.8-14.8c-8,0-14.8,6.8-14.8,14.8
				C126.2,623,133,629.8,141,629.8L141,629.8z"/>
		</g>
	</g>
	<g>
		<g>
			<path class="st10" d="M295,233.4c12.2,0,23.9-10.8,23.4-23.4c-0.6-12.7-10.3-23.4-23.4-23.4c-12.2,0-23.9,10.8-23.4,23.4
				C272.2,222.7,281.9,233.4,295,233.4L295,233.4z"/>
		</g>
	</g>
	<g>
		<g>
			<path class="st10" d="M279,467.8c13,0,25.4-11.4,24.8-24.8c-0.6-13.4-10.9-24.8-24.8-24.8c-13,0-25.4,11.4-24.8,24.8
				C254.8,456.4,265.1,467.8,279,467.8L279,467.8z"/>
		</g>
	</g>
	<g>
		<g>
			<path class="st10" d="M369,622.5c14.8,0,14.8-23,0-23C354.2,599.5,354.2,622.5,369,622.5L369,622.5z"/>
		</g>
	</g>
	<g>
		<g>
			<path class="st10" d="M578,241.5c14.8,0,14.8-23,0-23C563.2,218.5,563.2,241.5,578,241.5L578,241.5z"/>
		</g>
	</g>
	<g>
		<g>
			<path class="st10" d="M1035,159.9c8.3,0,16.3-7.3,15.9-15.9c-0.4-8.6-7-15.9-15.9-15.9c-8.3,0-16.3,7.3-15.9,15.9
				C1019.5,152.6,1026.1,159.9,1035,159.9L1035,159.9z"/>
		</g>
	</g>
	<g>
		<g>
			<path class="st10" d="M1034,399c16.8,0,16.8-26.1,0-26.1C1017.2,373,1017.2,399,1034,399L1034,399z"/>
		</g>
	</g>
	<g>
		<g>
			<path class="st10" d="M1038,560.5c10.2,0,19.9-9,19.5-19.5c-0.5-10.6-8.6-19.5-19.5-19.5c-10.2,0-19.9,9-19.5,19.5
				C1019,551.6,1027.1,560.5,1038,560.5L1038,560.5z"/>
		</g>
	</g>
	<g>
		<g>
			<path class="st10" d="M964,641.3c9.1,0,17.7-8,17.3-17.3c-0.4-9.4-7.6-17.3-17.3-17.3c-9.1,0-17.7,8-17.3,17.3
				C947.1,633.4,954.3,641.3,964,641.3L964,641.3z"/>
		</g>
	</g>
	<g>
		<g>
			<path class="st10" d="M1195,384.5c13.5,0,13.5-20.9,0-20.9C1181.5,363.5,1181.5,384.5,1195,384.5L1195,384.5z"/>
		</g>
	</g>
	<g>
		<g>
			<path class="st10" d="M1147,358c7.6,0,14-6.4,14-14c0-7.6-6.4-14-14-14c-7.6,0-14,6.4-14,14C1133,351.6,1139.4,358,1147,358
				L1147,358z"/>
		</g>
	</g>
	<g>
		<g>
			<path class="st10" d="M29.6,116.4c10.6,0,20.8-9.4,20.3-20.3C49.5,85,41,75.7,29.6,75.7C19,75.7,8.8,85,9.3,96
				C9.8,107,18.2,116.4,29.6,116.4L29.6,116.4z"/>
		</g>
	</g>
	<g>
		<g>
			<path class="st10" d="M1127,183.8c10.9,0,21.3-9.6,20.8-20.8c-0.5-11.3-9.1-20.8-20.8-20.8c-10.9,0-21.3,9.6-20.8,20.8
				C1106.7,174.3,1115.3,183.8,1127,183.8L1127,183.8z"/>
		</g>
	</g>
	<g>
		<g>
			<path class="st10" d="M1126,61.3c14.5,0,14.5-22.6,0-22.6C1111.5,38.7,1111.5,61.3,1126,61.3L1126,61.3z"/>
		</g>
	</g>
	<g>
		<g>
			<path class="st10" d="M1210,56.8c16.5,0,16.5-25.6,0-25.6C1193.5,31.2,1193.5,56.8,1210,56.8L1210,56.8z"/>
		</g>
	</g>
	<g>
		<g>
			<path class="st10" d="M55.6,44.9c8.3,0,16.3-7.3,15.9-15.9c-0.4-8.6-7-15.9-15.9-15.9c-8.3,0-16.3,7.3-15.9,15.9
				C40.1,37.6,46.7,44.9,55.6,44.9L55.6,44.9z"/>
		</g>
	</g>
	<g>
		<g>
			<path class="st10" d="M31.6,265.1c11.6,0,22.6-10.2,22.1-22.1c-0.5-12-9.7-22.1-22.1-22.1C20.1,220.9,9,231.1,9.5,243
				C10.1,255,19.2,265.1,31.6,265.1L31.6,265.1z"/>
		</g>
	</g>
	<g>
		<g>
			<path class="st10" d="M62.6,194.9c12.7,0,12.7-19.7,0-19.7C50,175.2,50,194.9,62.6,194.9L62.6,194.9z"/>
		</g>
	</g>
	<g>
		<g>
			<path class="st10" d="M33.6,486.3c11.1,0,21.8-9.8,21.3-21.3c-0.5-11.5-9.4-21.3-21.3-21.3c-11.1,0-21.8,9.8-21.3,21.3
				C12.9,476.6,21.7,486.3,33.6,486.3L33.6,486.3z"/>
		</g>
	</g>
	<g>
		<g>
			<path class="st10" d="M1120,708.5c11.2,0,22-9.9,21.5-21.5c-0.5-11.6-9.4-21.5-21.5-21.5c-11.2,0-22,9.9-21.5,21.5
				C1099.1,698.6,1108,708.5,1120,708.5L1120,708.5z"/>
		</g>
	</g>
	<g>
		<g>
			<path class="st10" d="M1028,221.3c13.3,0,13.3-20.6,0-20.6C1014.7,200.7,1014.7,221.3,1028,221.3L1028,221.3z"/>
		</g>
	</g>
	<g>
		<g>
			<path class="st10" d="M957,137.1c8.9,0,17.5-7.9,17.1-17.1c-0.4-9.3-7.5-17.1-17.1-17.1c-8.9,0-17.5,7.9-17.1,17.1
				C940.3,129.3,947.4,137.1,957,137.1L957,137.1z"/>
		</g>
	</g>
	<g>
		<g>
			<path class="st10" d="M1041,324.1c12.1,0,23.6-10.6,23.1-23.1c-0.6-12.5-10.1-23.1-23.1-23.1c-12.1,0-23.6,10.6-23.1,23.1
				C1018.5,313.5,1028.1,324.1,1041,324.1L1041,324.1z"/>
		</g>
	</g>
	<g>
		<g>
			<path class="st10" d="M1042,501.3c15.8,0,15.8-24.5,0-24.5C1026.2,476.7,1026.2,501.3,1042,501.3L1042,501.3z"/>
		</g>
	</g>
	<g>
		<g>
			<path class="st10" d="M724,410.3c13.3,0,13.3-20.6,0-20.6C710.7,389.7,710.7,410.3,724,410.3L724,410.3z"/>
		</g>
	</g>
	<g>
		<g>
			<path class="st10" d="M674,332.3c14.6,0,14.6-22.7,0-22.7C659.4,309.7,659.4,332.3,674,332.3L674,332.3z"/>
		</g>
	</g>
	<g>
		<g>
			<path class="st10" d="M389,700.2c8.5,0,16.6-7.4,16.2-16.2c-0.4-8.8-7.1-16.2-16.2-16.2c-8.5,0-16.6,7.4-16.2,16.2
				C373.2,692.8,379.9,700.2,389,700.2L389,700.2z"/>
		</g>
	</g>
	<g class="st9">
		<g>
			<path class="st10" d="M98,384.7c9.8,0,19.2-8.6,18.7-18.7c-0.5-10.1-8.2-18.7-18.7-18.7c-9.8,0-19.2,8.6-18.7,18.7
				C79.8,376.1,87.5,384.7,98,384.7L98,384.7z"/>
		</g>
	</g>
	<g class="st9">
		<g>
			<path class="st10" d="M128,349.6c12.9,0,25.2-11.3,24.6-24.6c-0.6-13.3-10.8-24.6-24.6-24.6c-12.9,0-25.2,11.3-24.6,24.6
				C104,338.3,114.2,349.6,128,349.6L128,349.6z"/>
		</g>
	</g>
	<g class="st9">
		<g>
			<path class="st10" d="M99,318.4c13.3,0,26-11.7,25.4-25.4c-0.6-13.7-11.1-25.4-25.4-25.4c-13.3,0-26,11.7-25.4,25.4
				C74.2,306.7,84.8,318.4,99,318.4L99,318.4z"/>
		</g>
	</g>
	<g class="st9">
		<g>
			<path class="st10" d="M84,209.3c14.6,0,14.6-22.7,0-22.7C69.4,186.7,69.4,209.3,84,209.3L84,209.3z"/>
		</g>
	</g>
	<g class="st9">
		<g>
			<path class="st10" d="M184,270.1c16.8,0,16.8-26.1,0-26.1C167.2,243.9,167.2,270.1,184,270.1L184,270.1z"/>
		</g>
	</g>
	<g class="st9">
		<g>
			<path class="st10" d="M103,463.5c16,0,16.1-24.9,0-24.9C87,438.5,86.9,463.5,103,463.5L103,463.5z"/>
		</g>
	</g>
	<g class="st9">
		<g>
			<path class="st10" d="M127,469.1c7.9,0,15.5-6.9,15.1-15.1c-0.4-8.2-6.6-15.1-15.1-15.1c-7.9,0-15.5,6.9-15.1,15.1
				C112.3,462.2,118.5,469.1,127,469.1L127,469.1z"/>
		</g>
	</g>
	<g class="st9">
		<g>
			<path class="st10" d="M151,599.1c12.9,0,13-20.1,0-20.1C138.1,578.9,138,599.1,151,599.1L151,599.1z"/>
		</g>
	</g>
	<g class="st9">
		<g>
			<path class="st10" d="M178,589.2c11.6,0,22.8-10.2,22.2-22.2c-0.5-12-9.8-22.2-22.2-22.2c-11.6,0-22.8,10.2-22.2,22.2
				C156.3,579,165.5,589.2,178,589.2L178,589.2z"/>
		</g>
	</g>
	<g class="st9">
		<g>
			<path class="st10" d="M287,203.5c12.3,0,24-10.8,23.5-23.5c-0.6-12.7-10.3-23.5-23.5-23.5c-12.3,0-24,10.8-23.5,23.5
				C264.1,192.7,273.9,203.5,287,203.5L287,203.5z"/>
		</g>
	</g>
	<g class="st9">
		<g>
			<path class="st10" d="M310,145.8c11.4,0,22.3-10,21.8-21.8c-0.5-11.8-9.6-21.8-21.8-21.8c-11.4,0-22.3,10-21.8,21.8
				C288.7,135.8,297.8,145.8,310,145.8L310,145.8z"/>
		</g>
	</g>
	<g class="st9">
		<g>
			<path class="st10" d="M283,483.8c13.9,0,13.9-21.6,0-21.6C269.1,462.2,269.1,483.8,283,483.8L283,483.8z"/>
		</g>
	</g>
	<g class="st9">
		<g>
			<path class="st10" d="M283,619.8c12.7,0,12.7-19.7,0-19.7C270.3,600.2,270.3,619.8,283,619.8L283,619.8z"/>
		</g>
	</g>
	<g class="st9">
		<g>
			<path class="st10" d="M284,593.7c17.6,0,17.7-27.4,0-27.4C266.4,566.3,266.3,593.7,284,593.7L284,593.7z"/>
		</g>
	</g>
	<g class="st9">
		<g>
			<path class="st10" d="M295,622.1c12.6,0,24.7-11.1,24.1-24.1c-0.6-13.1-10.6-24.1-24.1-24.1c-12.6,0-24.7,11.1-24.1,24.1
				C271.5,611.1,281.5,622.1,295,622.1L295,622.1z"/>
		</g>
	</g>
	<g class="st9">
		<g>
			<path class="st10" d="M373,601.6c8.7,0,17-7.7,16.6-16.6c-0.4-9-7.3-16.6-16.6-16.6c-8.7,0-17,7.7-16.6,16.6
				C356.8,594,363.7,601.6,373,601.6L373,601.6z"/>
		</g>
	</g>
	<g class="st9">
		<g>
			<path class="st10" d="M405.7,634.7c0.7-0.3,1.3-0.7,2-1c2.9-1.6,5.2-3.7,7-6.4c2.2-2.4,3.7-5.2,4.5-8.5c1-3.3,1.2-6.6,0.4-10
				c-0.2-3.3-1.1-6.4-3-9.3c-1.3-1.7-2.6-3.4-3.9-5.1c-3.1-3.1-6.8-5.2-11-6.4c-2.2-0.3-4.4-0.6-6.6-0.9c-4.5,0-8.7,1.2-12.6,3.4
				c-0.7,0.3-1.3,0.7-2,1c-2.9,1.6-5.2,3.7-7,6.4c-2.2,2.4-3.7,5.2-4.5,8.5c-1,3.3-1.2,6.6-0.4,10c0.2,3.3,1.1,6.4,3,9.3
				c1.3,1.7,2.6,3.4,3.9,5.1c3.1,3.1,6.8,5.2,11,6.4c2.2,0.3,4.4,0.6,6.6,0.9C397.6,638.1,401.8,636.9,405.7,634.7L405.7,634.7z"/>
		</g>
	</g>
	<g class="st9">
		<g>
			<path class="st10" d="M325,716.2c14.4,0,14.5-22.5,0-22.5C310.6,693.8,310.5,716.2,325,716.2L325,716.2z"/>
		</g>
	</g>
	<g class="st9">
		<g>
			<path class="st10" d="M370,703c8.4,0,16.4-7.4,16-16c-0.4-8.7-7-16-16-16c-8.4,0-16.4,7.4-16,16C354.4,695.7,361,703,370,703
				L370,703z"/>
		</g>
	</g>
	<g class="st9">
		<g>
			<path class="st10" d="M1027,603.4c17.2,0,17.2-26.8,0-26.8C1009.8,576.6,1009.8,603.4,1027,603.4L1027,603.4z"/>
		</g>
	</g>
	<g class="st9">
		<g>
			<path class="st10" d="M1007,660.9c10.4,0,20.3-9.1,19.9-19.9c-0.5-10.8-8.7-19.9-19.9-19.9c-10.4,0-20.3,9.1-19.9,19.9
				C987.6,651.8,995.9,660.9,1007,660.9L1007,660.9z"/>
		</g>
	</g>
	<g class="st9">
		<g>
			<path class="st10" d="M1130,679c13.1,0,25.6-11.5,25-25c-0.6-13.6-11-25-25-25c-13.1,0-25.6,11.5-25,25
				C1105.6,667.6,1116,679,1130,679L1130,679z"/>
		</g>
	</g>
	<g class="st9">
		<g>
			<path class="st10" d="M1159,498.3c7.7,0,14.3-6.6,14.3-14.3c0-7.8-6.6-14.3-14.3-14.3c-7.7,0-14.3,6.6-14.3,14.3
				C1144.7,491.8,1151.2,498.3,1159,498.3L1159,498.3z"/>
		</g>
	</g>
	<g class="st9">
		<g>
			<path class="st10" d="M1137,451.6c13.6,0,13.6-21.1,0-21.1C1123.4,430.4,1123.4,451.6,1137,451.6L1137,451.6z"/>
		</g>
	</g>
	<g class="st9">
		<g>
			<path class="st10" d="M1142,375.5c9.7,0,18.9-8.5,18.5-18.5c-0.4-10-8.1-18.5-18.5-18.5c-9.7,0-18.9,8.5-18.5,18.5
				C1124,367,1131.6,375.5,1142,375.5L1142,375.5z"/>
		</g>
	</g>
	<g class="st9">
		<g>
			<path class="st10" d="M1246,280c12.9,0,12.9-20.1,0-20.1C1233.1,260,1233.1,280,1246,280L1246,280z"/>
		</g>
	</g>
	<g class="st9">
		<g>
			<path class="st10" d="M1133,245c14.2,0,14.2-22,0-22C1118.8,223,1118.8,245,1133,245L1133,245z"/>
		</g>
	</g>
	<g class="st9">
		<g>
			<path class="st10" d="M1191,177.9c12.7,0,12.7-19.7,0-19.7C1178.3,158.1,1178.3,177.9,1191,177.9L1191,177.9z"/>
		</g>
	</g>
	<g class="st9">
		<g>
			<path class="st10" d="M1269,246.3c7.7,0,14.3-6.6,14.3-14.3c0-7.8-6.6-14.3-14.3-14.3c-7.7,0-14.3,6.6-14.3,14.3
				C1254.7,239.8,1261.2,246.3,1269,246.3L1269,246.3z"/>
		</g>
	</g>
	<g class="st9">
		<g>
			<path class="st10" d="M31.6,42c11,0,21.5-9.7,21-21c-0.5-11.4-9.2-21-21-21c-11,0-21.5,9.7-21,21C11.1,32.4,19.9,42,31.6,42
				L31.6,42z"/>
		</g>
	</g>
	<g class="st9">
		<g>
			<path class="st10" d="M43.6,85.9c16.6,0,16.6-25.8,0-25.8C27,60.1,27,85.9,43.6,85.9L43.6,85.9z"/>
		</g>
	</g>
	<g class="st9">
		<g>
			<path class="st10" d="M1157,90.1c16.9,0,16.9-26.3,0-26.3C1140.1,63.9,1140.1,90.1,1157,90.1L1157,90.1z"/>
		</g>
	</g>
	<g class="st9">
		<g>
			<path class="st10" d="M34.6,367.8c12.5,0,24.4-11,23.8-23.8c-0.6-12.9-10.5-23.8-23.8-23.8c-12.5,0-24.4,11-23.8,23.8
				C11.4,356.9,21.3,367.8,34.6,367.8L34.6,367.8z"/>
		</g>
	</g>
	<g class="st9">
		<g>
			<path class="st10" d="M1221,453.1c12.1,0,23.6-10.6,23.1-23.1c-0.6-12.5-10.1-23.1-23.1-23.1c-12.1,0-23.6,10.6-23.1,23.1
				C1198.5,442.5,1208.1,453.1,1221,453.1L1221,453.1z"/>
		</g>
	</g>
	<g class="st9">
		<g>
			<path class="st10" d="M51.6,452.5c8.1,0,15.8-7.1,15.5-15.5c-0.4-8.4-6.8-15.5-15.5-15.5c-8.1,0-15.8,7.1-15.5,15.5
				C36.5,445.4,43,452.5,51.6,452.5L51.6,452.5z"/>
		</g>
	</g>
	<g>
		<g>
			<path class="st11" d="M288,232.1c7.9,0,15.4-6.9,15.1-15.1c-0.4-8.2-6.6-15.1-15.1-15.1c-7.9,0-15.4,6.9-15.1,15.1
				C273.3,225.2,279.5,232.1,288,232.1L288,232.1z"/>
		</g>
	</g>
	<g>
		<g>
			<path class="st11" d="M293,284c12.8,0,12.8-19.9,0-19.9C280.2,264,280.2,284,293,284L293,284z"/>
		</g>
	</g>
	<g>
		<g>
			<path class="st11" d="M292,331.4c10.7,0,20.9-9.4,20.4-20.4c-0.5-11.1-9-20.4-20.4-20.4c-10.7,0-20.9,9.4-20.4,20.4
				C272.1,322.1,280.6,331.4,292,331.4L292,331.4z"/>
		</g>
	</g>
	<g>
		<g>
			<path class="st11" d="M144,165.1c11,0,21.6-9.7,21.1-21.1c-0.5-11.4-9.3-21.1-21.1-21.1c-11,0-21.6,9.7-21.1,21.1
				C123.4,155.4,132.2,165.1,144,165.1L144,165.1z"/>
		</g>
	</g>
	<g>
		<g>
			<path class="st11" d="M123,412.4c16,0,16-24.9,0-24.9C107,387.6,107,412.4,123,412.4L123,412.4z"/>
		</g>
	</g>
	<g>
		<g>
			<path class="st11" d="M180,503.8c11.9,0,23.4-10.5,22.8-22.8c-0.6-12.4-10-22.8-22.8-22.8c-11.9,0-23.4,10.5-22.8,22.8
				C157.7,493.4,167.2,503.8,180,503.8L180,503.8z"/>
		</g>
	</g>
	<g>
		<g>
			<path class="st11" d="M94,509.3c9.6,0,18.8-8.4,18.3-18.3c-0.4-9.9-8.1-18.3-18.3-18.3c-9.6,0-18.8,8.4-18.3,18.3
				C76.1,500.9,83.7,509.3,94,509.3L94,509.3z"/>
		</g>
	</g>
	<g>
		<g>
			<path class="st11" d="M165,616.3c15.8,0,15.8-24.6,0-24.6C149.2,591.7,149.2,616.3,165,616.3L165,616.3z"/>
		</g>
	</g>
	<g>
		<g>
			<path class="st11" d="M75,35.8c11.9,0,23.4-10.5,22.8-22.8C97.3,0.6,87.8-9.8,75-9.8C63.1-9.8,51.6,0.7,52.2,13
				C52.7,25.4,62.2,35.8,75,35.8L75,35.8z"/>
		</g>
	</g>
	<g>
		<g>
			<path class="st11" d="M131,23.1c7.9,0,15.4-6.9,15.1-15.1c-0.4-8.2-6.6-15.1-15.1-15.1c-7.9,0-15.4,6.9-15.1,15.1
				C116.3,16.2,122.5,23.1,131,23.1L131,23.1z"/>
		</g>
	</g>
	<g>
		<g>
			<path class="st11" d="M342,726.7c8.8,0,17.1-7.7,16.7-16.7c-0.4-9.1-7.4-16.7-16.7-16.7c-8.8,0-17.1,7.7-16.7,16.7
				C325.7,719.1,332.6,726.7,342,726.7L342,726.7z"/>
		</g>
	</g>
	<g>
		<g>
			<path class="st11" d="M508,715.2c11.6,0,22.8-10.2,22.2-22.2c-0.5-12-9.8-22.2-22.2-22.2c-11.6,0-22.8,10.2-22.2,22.2
				C486.3,705,495.5,715.2,508,715.2L508,715.2z"/>
		</g>
	</g>
	<g>
		<g>
			<path class="st11" d="M451,722.3c9.1,0,17.7-8,17.3-17.3c-0.4-9.4-7.6-17.3-17.3-17.3c-9.1,0-17.7,8-17.3,17.3
				C434.1,714.4,441.3,722.3,451,722.3L451,722.3z"/>
		</g>
	</g>
	<g>
		<g>
			<path class="st11" d="M232,734.4c8.1,0,15.8-7.1,15.4-15.4c-0.4-8.4-6.8-15.4-15.4-15.4c-8.1,0-15.8,7.1-15.4,15.4
				C216.9,727.4,223.3,734.4,232,734.4L232,734.4z"/>
		</g>
	</g>
	<g>
		<g>
			<path class="st11" d="M309,424c7.6,0,14-6.4,14-14c0-7.6-6.4-14-14-14c-7.6,0-14,6.4-14,14C295,417.6,301.4,424,309,424L309,424z
				"/>
		</g>
	</g>
	<g>
		<g>
			<path class="st11" d="M284,505.5c11.3,0,22.1-9.9,21.5-21.5c-0.5-11.7-9.5-21.5-21.5-21.5c-11.3,0-22.1,9.9-21.5,21.5
				C263,495.7,271.9,505.5,284,505.5L284,505.5z"/>
		</g>
	</g>
	<g>
		<g>
			<path class="st8" d="M632.7,181.8c8.8,0,17.2-7.7,16.8-16.8c-0.4-9.1-7.4-16.8-16.8-16.8c-8.8,0-17.2,7.7-16.8,16.8
				C616.3,174.1,623.3,181.8,632.7,181.8L632.7,181.8z"/>
		</g>
	</g>
	<g class="st9">
		<g>
			<path class="st8" d="M656,166.9c7.4,0,13.8-6.3,13.8-13.8c0-7.5-6.3-13.8-13.8-13.8c-7.4,0-13.8,6.3-13.8,13.8
				C642.3,160.6,648.6,166.9,656,166.9L656,166.9z"/>
		</g>
	</g>
	<g>
		<g>
			<path class="st10" d="M745.9,173.8c13,0,25.4-11.4,24.8-24.8c-0.6-13.4-10.9-24.8-24.8-24.8c-13,0-25.4,11.4-24.8,24.8
				C721.7,162.4,732,173.8,745.9,173.8L745.9,173.8z"/>
		</g>
	</g>
	<g class="st9">
		<g>
			<path class="st10" d="M701,173.8c13.9,0,13.9-21.6,0-21.6C687.1,152.2,687.1,173.8,701,173.8L701,173.8z"/>
		</g>
	</g>
	<g class="st9">
		<g>
			<path class="st10" d="M578.9,162.9c12.7,0,12.7-19.7,0-19.7C566.2,143.2,566.2,162.9,578.9,162.9L578.9,162.9z"/>
		</g>
	</g>
	<g class="st9">
		<g>
			<path class="st10" d="M608.9,167.7c17.6,0,17.7-27.4,0-27.4C591.2,140.3,591.2,167.7,608.9,167.7L608.9,167.7z"/>
		</g>
	</g>
	<g class="st9">
		<g>
			<path class="st10" d="M755,144.1c12.6,0,24.7-11.1,24.1-24.1c-0.6-13.1-10.6-24.1-24.1-24.1c-12.6,0-24.7,11.1-24.1,24.1
				C731.5,133.1,741.5,144.1,755,144.1L755,144.1z"/>
		</g>
	</g>
	<g>
		<g>
			<path class="st11" d="M758.3,179c7.6,0,14-6.4,14-14c0-7.6-6.4-14-14-14c-7.6,0-14,6.4-14,14C744.3,172.6,750.7,179,758.3,179
				L758.3,179z"/>
		</g>
	</g>
	<g>
		<g>
			<path class="st11" d="M678.9,165.5c11.3,0,22.1-9.9,21.5-21.5c-0.5-11.7-9.5-21.5-21.5-21.5c-11.3,0-22.1,9.9-21.5,21.5
				C657.8,155.7,666.8,165.5,678.9,165.5L678.9,165.5z"/>
		</g>
	</g>
	<g>
		<g>
			<path class="st11" d="M736,412.1c7.9,0,15.5-7,15.1-15.1c-0.4-8.2-6.6-15.1-15.1-15.1c-7.9,0-15.5,7-15.1,15.1
				C721.3,405.2,727.5,412.1,736,412.1L736,412.1z"/>
		</g>
	</g>
	<g>
		<g>
			<path class="st11" d="M671,451.8c13.9,0,13.9-21.6,0-21.6C657.1,430.2,657.1,451.8,671,451.8L671,451.8z"/>
		</g>
	</g>
	<g>
		<g>
			<path class="st11" d="M1118,503.1c14.3,0,14.3-22.2,0-22.2C1103.7,480.9,1103.7,503.1,1118,503.1L1118,503.1z"/>
		</g>
	</g>
	<g>
		<g>
			<path class="st11" d="M1160,229.1c12.9,0,13-20.1,0-20.1C1147.1,208.9,1147,229.1,1160,229.1L1160,229.1z"/>
		</g>
	</g>
	<g>
		<g>
			<path class="st11" d="M31.6,70.3c9,0,17.7-7.9,17.3-17.3c-0.4-9.4-7.6-17.3-17.3-17.3c-9,0-17.7,7.9-17.3,17.3
				C14.8,62.4,21.9,70.3,31.6,70.3L31.6,70.3z"/>
		</g>
	</g>
	<g>
		<g>
			<path class="st11" d="M1167,58c13.1,0,25.6-11.5,25-25c-0.6-13.5-11-25-25-25c-13.1,0-25.6,11.5-25,25
				C1142.6,46.5,1153,58,1167,58L1167,58z"/>
		</g>
	</g>
	<g>
		<g>
			<path class="st11" d="M65.6,308.8c7.4,0,13.8-6.3,13.8-13.8c0-7.5-6.3-13.8-13.8-13.8c-7.4,0-13.8,6.3-13.8,13.8
				C51.9,302.5,58.2,308.8,65.6,308.8L65.6,308.8z"/>
		</g>
	</g>
	<g>
		<g>
			<path class="st8" d="M1154,592.9c12.3,0,24.1-10.8,23.5-23.5c-0.6-12.7-10.3-23.5-23.5-23.5c-12.3,0-24.1,10.8-23.5,23.5
				C1131.1,582.1,1140.9,592.9,1154,592.9L1154,592.9z"/>
		</g>
	</g>
	<g>
		<g>
			<path class="st8" d="M1185.6,538.8c14.9,0,15-23.2,0-23.2C1170.7,515.6,1170.7,538.8,1185.6,538.8L1185.6,538.8z"/>
		</g>
	</g>
	<g>
		<g>
			<path class="st8" d="M1205.8,675.5c12.4,0,24.3-10.9,23.7-23.7c-0.6-12.9-10.4-23.7-23.7-23.7c-12.4,0-24.3,10.9-23.7,23.7
				C1182.6,664.6,1192.5,675.5,1205.8,675.5L1205.8,675.5z"/>
		</g>
	</g>
	<g class="st9">
		<g>
			<path class="st8" d="M1192.6,539.7c12.5,0,24.4-11,23.8-23.8c-0.6-12.9-10.5-23.8-23.8-23.8c-12.5,0-24.4,11-23.8,23.8
				C1169.4,528.7,1179.3,539.7,1192.6,539.7L1192.6,539.7z"/>
		</g>
	</g>
	<g class="st9">
		<g>
			<path class="st8" d="M1219,653.2c10.4,0,20.3-9.1,19.8-19.8c-0.5-10.7-8.7-19.8-19.8-19.8c-10.4,0-20.3,9.1-19.8,19.8
				C1199.6,644.1,1207.9,653.2,1219,653.2L1219,653.2z"/>
		</g>
	</g>
	<g>
		<g>
			<path class="st10" d="M1173,685c13.5,0,13.5-20.9,0-20.9C1159.5,664.1,1159.5,685,1173,685L1173,685z"/>
		</g>
	</g>
	<g>
		<g>
			<path class="st10" d="M1254,606.6c11.6,0,22.6-10.2,22.1-22.1c-0.5-12-9.7-22.1-22.1-22.1c-11.6,0-22.6,10.2-22.1,22.1
				C1232.4,596.5,1241.6,606.6,1254,606.6L1254,606.6z"/>
		</g>
	</g>
	<g>
		<g>
			<path class="st10" d="M40.6,495.4c12.7,0,12.7-19.7,0-19.7C27.9,475.8,27.9,495.4,40.6,495.4L40.6,495.4z"/>
		</g>
	</g>
	<g class="st9">
		<g>
			<path class="st10" d="M1224,580.6c12.9,0,12.9-20.1,0-20.1C1211,560.5,1211,580.6,1224,580.6L1224,580.6z"/>
		</g>
	</g>
	<g class="st9">
		<g>
			<path class="st10" d="M1247,546.9c7.7,0,14.3-6.6,14.3-14.3c0-7.8-6.6-14.3-14.3-14.3c-7.7,0-14.3,6.6-14.3,14.3
				C1232.6,540.3,1239.2,546.9,1247,546.9L1247,546.9z"/>
		</g>
	</g>
	<g class="st9">
		<g>
			<path class="st10" d="M1257,709.4c12.5,0,24.4-11,23.8-23.8c-0.6-12.9-10.5-23.8-23.8-23.8c-12.5,0-24.4,11-23.8,23.8
				C1233.7,698.5,1243.6,709.4,1257,709.4L1257,709.4z"/>
		</g>
	</g>
	<g>
		<g>
			<path class="st11" d="M43.6,609.4c7.4,0,13.8-6.3,13.8-13.8c0-7.5-6.3-13.8-13.8-13.8c-7.4,0-13.8,6.3-13.8,13.8
				C29.8,603.1,36.1,609.4,43.6,609.4L43.6,609.4z"/>
		</g>
	</g>
	<g>
		<g>
			<path class="st11" d="M1142,420.2c9,0,17.7-7.9,17.2-17.2c-0.4-9.3-7.6-17.2-17.2-17.2c-9,0-17.7,7.9-17.2,17.2
				C1125.2,412.3,1132.3,420.2,1142,420.2L1142,420.2z"/>
		</g>
	</g>
	<g>
		<g>
			<path class="st11" d="M1118,114.1c12.1,0,23.7-10.6,23.1-23.1c-0.6-12.5-10.1-23.1-23.1-23.1c-12.1,0-23.7,10.6-23.1,23.1
				C1095.5,103.5,1105.1,114.1,1118,114.1L1118,114.1z"/>
		</g>
	</g>
	<g>
		<g>
			<path class="st11" d="M52.6,681.9c11.4,0,22.4-10,21.8-21.8c-0.5-11.8-9.6-21.8-21.8-21.8c-11.4,0-22.4,10-21.8,21.8
				C31.3,671.9,40.4,681.9,52.6,681.9L52.6,681.9z"/>
		</g>
	</g>
	<g>
		<g>
			<path class="st11" d="M1144,694c9.4,0,18.4-8.3,18-18c-0.4-9.7-7.9-18-18-18c-9.4,0-18.4,8.3-18,18
				C1126.5,685.7,1133.9,694,1144,694L1144,694z"/>
		</g>
	</g>
	<g>
		<g>
			<path class="st11" d="M1215,149c11.5,0,22.5-10.1,22-22c-0.5-11.9-9.7-22-22-22c-11.5,0-22.5,10.1-22,22
				C1193.5,138.9,1202.7,149,1215,149L1215,149z"/>
		</g>
	</g>
	<g class="st9">
		<g>
			<path class="st8" d="M1263,188.4c17.2,0,17.2-26.7,0-26.7C1245.8,161.6,1245.8,188.4,1263,188.4L1263,188.4z"/>
		</g>
	</g>
	<g class="st9">
		<g>
			<path class="st8" d="M1247,87.1c14.3,0,14.4-22.3,0-22.3C1232.7,64.9,1232.6,87.1,1247,87.1L1247,87.1z"/>
		</g>
	</g>
	<g class="st9">
		<g>
			<path class="st8" d="M401,713c15.4,0,15.5-24,0-24C385.6,689,385.5,713,401,713L401,713z"/>
		</g>
	</g>
	<g class="st9">
		<g>
			<path class="st8" d="M554,726.8c14,0,14-21.7,0-21.7C540,705.2,540,726.8,554,726.8L554,726.8z"/>
		</g>
	</g>
	<g class="st9">
		<g>
			<path class="st8" d="M717,420.1c7.9,0,15.4-6.9,15.1-15.1c-0.4-8.2-6.6-15.1-15.1-15.1c-7.9,0-15.4,6.9-15.1,15.1
				C702.3,413.2,708.6,420.1,717,420.1L717,420.1z"/>
		</g>
	</g>
	<g class="st9">
		<g>
			<path class="st8" d="M676,297.2c11.8,0,11.9-18.4,0-18.4C664.2,278.8,664.1,297.2,676,297.2L676,297.2z"/>
		</g>
	</g>
	<g class="st9">
		<g>
			<path class="st8" d="M767,240.4c14.6,0,14.7-22.7,0-22.7C752.4,217.6,752.3,240.4,767,240.4L767,240.4z"/>
		</g>
	</g>
	<g class="st9">
		<g>
			<path class="st8" d="M761,244.3c12,0,12-18.6,0-18.6C749,225.7,749,244.3,761,244.3L761,244.3z"/>
		</g>
	</g>
	<g class="st9">
		<g>
			<path class="st8" d="M520,117c16.8,0,16.8-26.1,0-26.1C503.2,91,503.2,117,520,117L520,117z"/>
		</g>
	</g>
	<g class="st9">
		<g>
			<path class="st8" d="M618.2,130.6c7.9,0,14.6-6.7,14.6-14.6c0-7.9-6.7-14.6-14.6-14.6c-7.9,0-14.6,6.7-14.6,14.6
				C603.6,123.9,610.3,130.6,618.2,130.6L618.2,130.6z"/>
		</g>
	</g>
	<g class="st9">
		<g>
			<path class="st8" d="M571.8,137.3c13.3,0,13.3-20.7,0-20.7C558.4,116.7,558.4,137.3,571.8,137.3L571.8,137.3z"/>
		</g>
	</g>
	<g class="st9">
		<g>
			<path class="st8" d="M533,121.5c17.4,0,17.4-27,0-27C515.6,94.5,515.6,121.5,533,121.5L533,121.5z"/>
		</g>
	</g>
	<g class="st9">
		<g>
			<path class="st8" d="M967,448c14.2,0,14.2-22,0-22C952.8,426,952.8,448,967,448L967,448z"/>
		</g>
	</g>
	<g class="st9">
		<g>
			<path class="st8" d="M966,467c12.9,0,12.9-20.1,0-20.1C953.1,447,953.1,467,966,467L966,467z"/>
		</g>
	</g>
	<g class="st9">
		<g>
			<path class="st8" d="M972,491.1c16.8,0,16.9-26.2,0-26.2C955.2,464.9,955.1,491.1,972,491.1L972,491.1z"/>
		</g>
	</g>
	<g class="st9">
		<g>
			<path class="st8" d="M963,465.7c15.1,0,15.1-23.5,0-23.5C947.9,442.3,947.9,465.7,963,465.7L963,465.7z"/>
		</g>
	</g>
	<g class="st9">
		<g>
			<path class="st8" d="M956,480.1c8.4,0,16.5-7.4,16.1-16.1c-0.4-8.7-7.1-16.1-16.1-16.1c-8.4,0-16.5,7.4-16.1,16.1
				C940.3,472.7,947,480.1,956,480.1L956,480.1z"/>
		</g>
	</g>
	<g class="st9">
		<g>
			<path class="st8" d="M949,660c7.5,0,14-6.4,14-14c0-7.6-6.4-14-14-14c-7.5,0-14,6.4-14,14C935,653.6,941.4,660,949,660L949,660z"
				/>
		</g>
	</g>
	<g class="st9">
		<g>
			<path class="st8" d="M1032,285.9c15.3,0,15.3-23.7,0-23.7C1016.7,262.1,1016.7,285.9,1032,285.9L1032,285.9z"/>
		</g>
	</g>
	<g class="st9">
		<g>
			<path class="st8" d="M1030,293c14.2,0,14.2-22.1,0-22.1C1015.8,271,1015.8,293,1030,293L1030,293z"/>
		</g>
	</g>
	<g class="st9">
		<g>
			<path class="st8" d="M1040,171.3c15.8,0,15.8-24.6,0-24.6C1024.2,146.7,1024.2,171.3,1040,171.3L1040,171.3z"/>
		</g>
	</g>
	<g class="st9">
		<g>
			<path class="st8" d="M1033,178.8c7.5,0,13.8-6.4,13.8-13.8c0-7.5-6.3-13.8-13.8-13.8c-7.5,0-13.8,6.4-13.8,13.8
				C1019.2,172.5,1025.5,178.8,1033,178.8L1033,178.8z"/>
		</g>
	</g>
	<g class="st9">
		<g>
			<path class="st8" d="M957,140.7c12.5,0,12.5-19.4,0-19.4C944.5,121.3,944.5,140.7,957,140.7L957,140.7z"/>
		</g>
	</g>
	<g class="st9">
		<g>
			<path class="st8" d="M560,243.6c8.7,0,17-7.6,16.6-16.6c-0.4-9-7.3-16.6-16.6-16.6c-8.7,0-17,7.6-16.6,16.6
				C543.8,236,550.7,243.6,560,243.6L560,243.6z"/>
		</g>
	</g>
	<g class="st9">
		<g>
			<path class="st8" d="M603,254.9c16.6,0,16.6-25.7,0-25.7C586.4,229.1,586.4,254.9,603,254.9L603,254.9z"/>
		</g>
	</g>
	<g class="st9">
		<g>
			<path class="st8" d="M526,496.2c8,0,15.6-7,15.2-15.2c-0.4-8.2-6.7-15.2-15.2-15.2c-8,0-15.6,7-15.2,15.2
				C511.2,489.2,517.5,496.2,526,496.2L526,496.2z"/>
		</g>
	</g>
	<g class="st9">
		<g>
			<path class="st8" d="M437,326.4c15.9,0,15.9-24.7,0-24.7C421.1,301.6,421.1,326.4,437,326.4L437,326.4z"/>
		</g>
	</g>
	<g class="st9">
		<g>
			<path class="st8" d="M455,329.3c8,0,15.7-7.1,15.3-15.3c-0.4-8.3-6.7-15.3-15.3-15.3c-8,0-15.7,7.1-15.3,15.3
				C440,322.3,446.4,329.3,455,329.3L455,329.3z"/>
		</g>
	</g>
	<g class="st9">
		<g>
			<path class="st8" d="M419,171c7.6,0,14-6.4,14-14c0-7.6-6.4-14-14-14c-7.6,0-14,6.4-14,14C405,164.6,411.4,171,419,171L419,171z"
				/>
		</g>
	</g>
	<g class="st9">
		<g>
			<path class="st8" d="M385,621.4c8.1,0,15.8-7.1,15.4-15.4c-0.4-8.3-6.8-15.4-15.4-15.4c-8.1,0-15.8,7.1-15.4,15.4
				C370,614.3,376.4,621.4,385,621.4L385,621.4z"/>
		</g>
	</g>
	<g>
		<g>
			<path class="st10" d="M504.2,176.5c14.8,0,14.8-23,0-23C489.4,153.5,489.4,176.5,504.2,176.5L504.2,176.5z"/>
		</g>
	</g>
	<g class="st9">
		<g>
			<path class="st10" d="M508.2,155.6c8.7,0,17-7.7,16.6-16.6c-0.4-9-7.3-16.6-16.6-16.6c-8.7,0-17,7.7-16.6,16.6
				C492,148,498.9,155.6,508.2,155.6L508.2,155.6z"/>
		</g>
	</g>
	<g class="st9">
		<g>
			<path class="st10" d="M554.1,170.5c0.7-0.3,1.3-0.7,2-1c2.9-1.6,5.2-3.7,7-6.4c2.2-2.4,3.7-5.2,4.5-8.5c1-3.3,1.2-6.6,0.4-10
				c-0.2-3.3-1.1-6.4-3-9.3c-1.3-1.7-2.6-3.4-3.9-5.1c-3.1-3.1-6.8-5.2-11-6.4c-2.2-0.3-4.4-0.6-6.6-0.9c-4.5,0-8.7,1.2-12.6,3.4
				c-0.7,0.3-1.3,0.7-2,1c-2.9,1.6-5.2,3.7-7,6.4c-2.2,2.4-3.7,5.2-4.5,8.5c-1,3.3-1.2,6.6-0.4,10c0.2,3.3,1.1,6.4,3,9.3
				c1.3,1.7,2.6,3.4,3.9,5.1c3.1,3.1,6.8,5.2,11,6.4c2.2,0.3,4.4,0.6,6.6,0.9C546,173.9,550.2,172.8,554.1,170.5L554.1,170.5z"/>
		</g>
	</g>
	<g class="st9">
		<g>
			<path class="st8" d="M562.5,168.4c8.1,0,15.8-7.1,15.4-15.4c-0.4-8.3-6.8-15.4-15.4-15.4c-8.1,0-15.8,7.1-15.4,15.4
				C547.5,161.4,553.9,168.4,562.5,168.4L562.5,168.4z"/>
		</g>
	</g>
	<g class="st9">
		<g>
			<path class="st8" d="M523,719.3c13.3,0,13.3-20.6,0-20.6C509.7,698.7,509.7,719.3,523,719.3L523,719.3z"/>
		</g>
	</g>
	<g class="st9">
		<g>
			<path class="st8" d="M104,36.8c8,0,14.8-6.8,14.8-14.8c0-8-6.8-14.8-14.8-14.8C96,7.2,89.2,14,89.2,22C89.2,30,96,36.8,104,36.8
				L104,36.8z"/>
		</g>
	</g>
	<g class="st9">
		<g>
			<path class="st8" d="M187,17.4c14.6,0,14.6-22.7,0-22.7C172.4-5.4,172.4,17.4,187,17.4L187,17.4z"/>
		</g>
	</g>
	<g class="st9">
		<g>
			<path class="st8" d="M151,221.3c7.8,0,14.3-6.6,14.3-14.3c0-7.8-6.6-14.3-14.3-14.3c-7.8,0-14.3,6.6-14.3,14.3
				C136.7,214.8,143.2,221.3,151,221.3L151,221.3z"/>
		</g>
	</g>
	<g class="st9">
		<g>
			<path class="st8" d="M162,295.6c8.2,0,16-7.2,15.6-15.6c-0.4-8.5-6.9-15.6-15.6-15.6c-8.2,0-16,7.2-15.6,15.6
				C146.7,288.5,153.2,295.6,162,295.6L162,295.6z"/>
		</g>
	</g>
	<g class="st9">
		<g>
			<path class="st8" d="M1124,264c12.8,0,12.8-19.9,0-19.9C1111.2,244,1111.2,264,1124,264L1124,264z"/>
		</g>
	</g>
	<g class="st9">
		<g>
			<path class="st8" d="M1109,45.6c17.4,0,17.5-27.1,0-27.1C1091.6,18.4,1091.5,45.6,1109,45.6L1109,45.6z"/>
		</g>
	</g>
	<g class="st9">
		<g>
			<path class="st8" d="M58.6,162.7c17.6,0,17.6-27.3,0-27.3C41.1,135.4,41,162.7,58.6,162.7L58.6,162.7z"/>
		</g>
	</g>
	<g class="st9">
		<g>
			<path class="st8" d="M38.6,9.1c11.7,0,11.7-18.2,0-18.2C26.9-9.1,26.9,9.1,38.6,9.1L38.6,9.1z"/>
		</g>
	</g>
	<g class="st9">
		<g>
			<path class="st10" d="M420,177.6c13.7,0,13.7-21.3,0-21.3C406.3,156.4,406.3,177.6,420,177.6L420,177.6z"/>
		</g>
	</g>
	<g class="st9">
		<g>
			<path class="st10" d="M422,215.4c14.7,0,14.7-22.9,0-22.9C407.3,192.6,407.3,215.4,422,215.4L422,215.4z"/>
		</g>
	</g>
	<g class="st9">
		<g>
			<path class="st10" d="M468,325.5c17.3,0,17.3-26.9,0-26.9C450.7,298.5,450.7,325.5,468,325.5L468,325.5z"/>
		</g>
	</g>
	<g>
		<g>
			<path class="st10" d="M420,205.7c12.5,0,12.5-19.5,0-19.5C407.5,186.3,407.5,205.7,420,205.7L420,205.7z"/>
		</g>
	</g>
	<g>
		<g>
			<path class="st10" d="M478,328.2c15.8,0,15.8-24.5,0-24.5C462.2,303.8,462.2,328.2,478,328.2L478,328.2z"/>
		</g>
	</g>
	<g>
		<g>
			<path class="st10" d="M522,480.7c13.8,0,13.8-21.5,0-21.5C508.2,459.3,508.2,480.7,522,480.7L522,480.7z"/>
		</g>
	</g>
	<g>
		<g>
			<path class="st10" d="M776,250.3c13.3,0,13.3-20.6,0-20.6C762.7,229.7,762.7,250.3,776,250.3L776,250.3z"/>
		</g>
	</g>
	<g>
		<g>
			<path class="st10" d="M973,476.8c8.8,0,17.2-7.7,16.8-16.8c-0.4-9.1-7.4-16.8-16.8-16.8c-8.8,0-17.2,7.7-16.8,16.8
				C956.6,469.1,963.6,476.8,973,476.8L973,476.8z"/>
		</g>
	</g>
	<g>
		<g>
			<path class="st10" d="M957,168.9c7.5,0,13.9-6.4,13.9-13.9c0-7.5-6.4-13.9-13.9-13.9c-7.5,0-13.9,6.4-13.9,13.9
				C943.1,162.5,949.5,168.9,957,168.9L957,168.9z"/>
		</g>
	</g>
	<g>
		<g>
			<path class="st10" d="M101,605.1c15.6,0,15.7-24.3,0-24.3C85.4,580.9,85.3,605.1,101,605.1L101,605.1z"/>
		</g>
	</g>
	<g>
		<g>
			<path class="st10" d="M206,128.3c15.8,0,15.8-24.6,0-24.6C190.2,103.7,190.2,128.3,206,128.3L206,128.3z"/>
		</g>
	</g>
	<g>
		<g>
			<path class="st10" d="M302,259.1c16.8,0,16.8-26.1,0-26.1C285.2,232.9,285.2,259.1,302,259.1L302,259.1z"/>
		</g>
	</g>
	<g>
		<g>
			<path class="st10" d="M602,710.8c15.1,0,15.2-23.5,0-23.5C586.9,687.2,586.8,710.8,602,710.8L602,710.8z"/>
		</g>
	</g>
	<g>
		<g>
			<path class="st10" d="M643,713.6c5.9,0,5.9-9.2,0-9.2C637.1,704.4,637.1,713.6,643,713.6L643,713.6z"/>
		</g>
	</g>
	<g>
		<g>
			<path class="st10" d="M666,710.2c14.4,0,14.4-22.3,0-22.3C651.6,687.8,651.6,710.2,666,710.2L666,710.2z"/>
		</g>
	</g>
	<g>
		<g>
			<path class="st10" d="M724,718.3c14.6,0,14.6-22.6,0-22.6C709.4,695.7,709.4,718.3,724,718.3L724,718.3z"/>
		</g>
	</g>
	<g>
		<g>
			<path class="st10" d="M778,713c14.2,0,14.2-22,0-22C763.8,691,763.8,713,778,713L778,713z"/>
		</g>
	</g>
	<g>
		<g>
			<path class="st10" d="M842,709.1c11.8,0,11.8-18.3,0-18.3C830.2,690.9,830.2,709.1,842,709.1L842,709.1z"/>
		</g>
	</g>
	<g>
		<g>
			<path class="st10" d="M859,712.8c15.1,0,15.1-23.5,0-23.5C843.9,689.2,843.9,712.8,859,712.8L859,712.8z"/>
		</g>
	</g>
	<g>
		<g>
			<path class="st10" d="M905,716c11.5,0,11.5-17.9,0-17.9C893.5,698,893.5,716,905,716L905,716z"/>
		</g>
	</g>
	<g>
		<g>
			<path class="st10" d="M295,22.4c14.6,0,14.6-22.7,0-22.7C280.4-0.4,280.4,22.4,295,22.4L295,22.4z"/>
		</g>
	</g>
	<g>
		<g>
			<path class="st10" d="M323,23.2c5.4,0,5.4-8.3,0-8.3C317.6,14.8,317.6,23.2,323,23.2L323,23.2z"/>
		</g>
	</g>
	<g>
		<g>
			<path class="st10" d="M349,20.4c7,0,7-10.8,0-10.8C342,9.6,342,20.4,349,20.4L349,20.4z"/>
		</g>
	</g>
	<g>
		<g>
			<path class="st10" d="M387,38.2c9.3,0,9.3-14.4,0-14.4C377.7,23.8,377.7,38.2,387,38.2L387,38.2z"/>
		</g>
	</g>
	<g>
		<g>
			<path class="st10" d="M409,26.7c15.1,0,15.1-23.5,0-23.5C393.9,3.3,393.9,26.7,409,26.7L409,26.7z"/>
		</g>
	</g>
	<g>
		<g>
			<path class="st10" d="M421,21.6c7.3,0,7.3-11.3,0-11.3C413.7,10.4,413.7,21.6,421,21.6L421,21.6z"/>
		</g>
	</g>
	<g>
		<g>
			<path class="st10" d="M652.5,116.9c9.7,0,9.7-15.1,0-15.1C642.7,101.8,642.7,116.9,652.5,116.9L652.5,116.9z"/>
		</g>
	</g>
	<g>
		<g>
			<path class="st10" d="M552,115.9c12.8,0,12.8-19.8,0-19.8C539.2,96.1,539.2,115.9,552,115.9L552,115.9z"/>
		</g>
	</g>
	<g>
		<g>
			<path class="st10" d="M548,251.2c11.9,0,11.9-18.5,0-18.5C536.1,232.8,536.1,251.2,548,251.2L548,251.2z"/>
		</g>
	</g>
	<g>
		<g>
			<path class="st10" d="M729,423c11.5,0,11.6-18,0-18C717.5,405,717.4,423,729,423L729,423z"/>
		</g>
	</g>
	<g>
		<g>
			<path class="st10" d="M773,483.2c9.3,0,9.3-14.5,0-14.5C763.7,468.8,763.7,483.2,773,483.2L773,483.2z"/>
		</g>
	</g>
	<g>
		<g>
			<path class="st10" d="M789,463.7c7.3,0,7.3-11.4,0-11.4C781.7,452.3,781.7,463.7,789,463.7L789,463.7z"/>
		</g>
	</g>
	<g>
		<g>
			<path class="st10" d="M804,451.7c11.2,0,11.2-17.4,0-17.4C792.8,434.3,792.8,451.7,804,451.7L804,451.7z"/>
		</g>
	</g>
	<g>
		<g>
			<path class="st10" d="M799,464.8c11.4,0,11.4-17.7,0-17.7C787.6,447.2,787.6,464.8,799,464.8L799,464.8z"/>
		</g>
	</g>
	<g class="st9">
		<g>
			<path class="st8" d="M751,493.6c9.7,0,9.7-15.1,0-15.1C741.3,478.4,741.3,493.6,751,493.6L751,493.6z"/>
		</g>
	</g>
	<g class="st9">
		<g>
			<path class="st8" d="M792,458.6c5.9,0,5.9-9.1,0-9.1C786.1,449.4,786.1,458.6,792,458.6L792,458.6z"/>
		</g>
	</g>
	<g class="st9">
		<g>
			<path class="st8" d="M782,484.3c14.5,0,14.5-22.6,0-22.6C767.5,461.7,767.5,484.3,782,484.3L782,484.3z"/>
		</g>
	</g>
	<g class="st9">
		<g>
			<path class="st8" d="M812,445.2c7.9,0,7.9-12.3,0-12.3C804.1,432.8,804.1,445.2,812,445.2L812,445.2z"/>
		</g>
	</g>
	<g class="st9">
		<g>
			<path class="st8" d="M735,381.9c8.9,0,8.9-13.8,0-13.8C726.1,368.1,726.1,381.9,735,381.9L735,381.9z"/>
		</g>
	</g>
	<g class="st9">
		<g>
			<path class="st8" d="M324,19.4c7,0,7-10.8,0-10.8C317,8.6,317,19.4,324,19.4L324,19.4z"/>
		</g>
	</g>
	<g class="st9">
		<g>
			<path class="st8" d="M303,25.6c6,0,6-9.3,0-9.3C297,16.4,297,25.6,303,25.6L303,25.6z"/>
		</g>
	</g>
	<g class="st9">
		<g>
			<path class="st8" d="M352,27.9c15.3,0,15.3-23.8,0-23.8C336.7,4.1,336.7,27.9,352,27.9L352,27.9z"/>
		</g>
	</g>
	<g class="st9">
		<g>
			<path class="st8" d="M390,25.9c14,0,14.1-21.8,0-21.8C376,4.1,375.9,25.9,390,25.9L390,25.9z"/>
		</g>
	</g>
	<g class="st9">
		<g>
			<path class="st8" d="M419,26.5c9.7,0,9.7-15.1,0-15.1C409.3,11.5,409.3,26.5,419,26.5L419,26.5z"/>
		</g>
	</g>
	<g class="st9">
		<g>
			<path class="st8" d="M450,22.4c5.7,0,5.7-8.9,0-8.9C444.3,13.6,444.3,22.4,450,22.4L450,22.4z"/>
		</g>
	</g>
	<g class="st9">
		<g>
			<path class="st8" d="M331,33.3c14.6,0,14.6-22.7,0-22.7C316.4,10.7,316.4,33.3,331,33.3L331,33.3z"/>
		</g>
	</g>
	<g class="st9">
		<g>
			<path class="st8" d="M288,30.9c14,0,14-21.8,0-21.8C274,9.1,274,30.9,288,30.9L288,30.9z"/>
		</g>
	</g>
	<g class="st9">
		<g>
			<path class="st8" d="M589,697.1c13,0,13-20.2,0-20.2C576,676.9,576,697.1,589,697.1L589,697.1z"/>
		</g>
	</g>
	<g class="st9">
		<g>
			<path class="st8" d="M626,719c5.2,0,5.2-8,0-8C620.8,711,620.8,719,626,719L626,719z"/>
		</g>
	</g>
	<g class="st9">
		<g>
			<path class="st8" d="M649,705.5c8.4,0,8.4-13,0-13C640.6,692.5,640.6,705.5,649,705.5L649,705.5z"/>
		</g>
	</g>
	<g class="st9">
		<g>
			<path class="st8" d="M674,697.6c8.5,0,8.6-13.3,0-13.3C665.5,684.4,665.4,697.6,674,697.6L674,697.6z"/>
		</g>
	</g>
	<g class="st9">
		<g>
			<path class="st8" d="M711,712.5c13.5,0,13.5-21,0-21C697.5,691.5,697.5,712.5,711,712.5L711,712.5z"/>
		</g>
	</g>
	<g class="st9">
		<g>
			<path class="st8" d="M694,702.1c5.3,0,5.3-8.2,0-8.2C688.7,693.9,688.7,702.1,694,702.1L694,702.1z"/>
		</g>
	</g>
	<g class="st9">
		<g>
			<path class="st8" d="M769,707.3c12,0,12-18.6,0-18.6C757,688.7,757,707.3,769,707.3L769,707.3z"/>
		</g>
	</g>
	<g class="st9">
		<g>
			<path class="st8" d="M746.2,696c0-0.3,0-0.7,0-1c0-1.1-0.5-2.2-1.2-3c-0.7-0.7-1.9-1.3-3-1.2c-2.3,0.1-4.2,1.9-4.2,4.2
				c0,0.3,0,0.7,0,1c0,1.1,0.5,2.2,1.2,3c0.7,0.7,1.9,1.3,3,1.2C744.3,700.1,746.2,698.4,746.2,696L746.2,696z"/>
		</g>
	</g>
	<g class="st9">
		<g>
			<path class="st8" d="M797,706c11.5,0,11.5-17.9,0-17.9C785.5,688,785.5,706,797,706L797,706z"/>
		</g>
	</g>
	<g class="st9">
		<g>
			<path class="st8" d="M879,711.1c14.3,0,14.3-22.3,0-22.3C864.7,688.9,864.7,711.1,879,711.1L879,711.1z"/>
		</g>
	</g>
	<g class="st9">
		<g>
			<path class="st8" d="M976,714.4c9.5,0,9.5-14.7,0-14.7C966.5,699.6,966.5,714.4,976,714.4L976,714.4z"/>
		</g>
	</g>
	<g class="st9">
		<g>
			<path class="st8" d="M930,717.7c13.7,0,13.7-21.3,0-21.3C916.3,696.3,916.3,717.7,930,717.7L930,717.7z"/>
		</g>
	</g>
	<g class="st9">
		<g>
			<path class="st8" d="M898,705.7c8.7,0,8.7-13.4,0-13.4C889.3,692.3,889.3,705.7,898,705.7L898,705.7z"/>
		</g>
	</g>
	<g class="st9">
		<g>
			<path class="st8" d="M798,716.8c10.1,0,10.1-15.7,0-15.7C787.9,701.2,787.9,716.8,798,716.8L798,716.8z"/>
		</g>
	</g>
	<g class="st9">
		<g>
			<path class="st8" d="M1031,594.3c9.3,0,9.4-14.5,0-14.5C1021.7,579.7,1021.6,594.3,1031,594.3L1031,594.3z"/>
		</g>
	</g>
	<g class="st9">
		<g>
			<path class="st8" d="M982,163.9c15.3,0,15.3-23.8,0-23.8C966.7,140.1,966.7,163.9,982,163.9L982,163.9z"/>
		</g>
	</g>
	<g class="st9">
		<g>
			<path class="st8" d="M972,130.8c6.1,0,6.1-9.5,0-9.5C965.9,121.2,965.9,130.8,972,130.8L972,130.8z"/>
		</g>
	</g>
	<g class="st9">
		<g>
			<path class="st8" d="M178,250.3c11.9,0,11.9-18.5,0-18.5C166.1,231.7,166.1,250.3,178,250.3L178,250.3z"/>
		</g>
	</g>
	<g class="st9">
		<g>
			<path class="st8" d="M86,228.7c11.2,0,11.2-17.4,0-17.4C74.8,211.3,74.8,228.7,86,228.7L86,228.7z"/>
		</g>
	</g>
	<g class="st9">
		<g>
			<path class="st8" d="M88,244.5c5.7,0,5.8-8.9,0-8.9C82.3,235.5,82.2,244.5,88,244.5L88,244.5z"/>
		</g>
	</g>
	<g class="st9">
		<g>
			<path class="st8" d="M272,110.6c8.6,0,8.6-13.3,0-13.3C263.4,97.4,263.4,110.6,272,110.6L272,110.6z"/>
		</g>
	</g>
	<g class="st9">
		<g>
			<path class="st8" d="M309,210.6c9.8,0,9.8-15.2,0-15.2C299.2,195.4,299.2,210.6,309,210.6L309,210.6z"/>
		</g>
	</g>
	<g class="st9">
		<g>
			<path class="st8" d="M318,175.8c8.8,0,8.8-13.7,0-13.7C309.2,162.2,309.2,175.8,318,175.8L318,175.8z"/>
		</g>
	</g>
	<g class="st9">
		<g>
			<path class="st8" d="M472,327.9c14,0,14-21.8,0-21.8C458,306.1,458,327.9,472,327.9L472,327.9z"/>
		</g>
	</g>
	<g class="st9">
		<g>
			<path class="st8" d="M669,112.6c11.1,0,11.1-17.3,0-17.3C657.9,95.4,657.9,112.6,669,112.6L669,112.6z"/>
		</g>
	</g>
	<g class="st9">
		<g>
			<path class="st8" d="M701,104.6c8.4,0,8.4-13.1,0-13.1C692.6,91.4,692.6,104.6,701,104.6L701,104.6z"/>
		</g>
	</g>
	<g class="st9">
		<g>
			<path class="st8" d="M697,125.9c15.3,0,15.4-23.9,0-23.9C681.7,102.1,681.6,125.9,697,125.9L697,125.9z"/>
		</g>
	</g>
	<g class="st9">
		<g>
			<path class="st8" d="M697,111c6.4,0,6.5-10,0-10C690.6,101,690.5,111,697,111L697,111z"/>
		</g>
	</g>
	<g class="st9">
		<g>
			<path class="st8" d="M677,451.1c5.3,0,5.3-8.3,0-8.3C671.7,442.9,671.7,451.1,677,451.1L677,451.1z"/>
		</g>
	</g>
	<g class="st9">
		<g>
			<path class="st8" d="M525,27.5c7,0,7-10.9,0-10.9C518,16.5,518,27.5,525,27.5L525,27.5z"/>
		</g>
	</g>
	<g class="st9">
		<g>
			<path class="st8" d="M605,17.5c9.6,0,9.6-14.9,0-14.9C595.4,2.5,595.4,17.5,605,17.5L605,17.5z"/>
		</g>
	</g>
	<g class="st9">
		<g>
			<path class="st8" d="M690,18.8c7.4,0,7.4-11.5,0-11.5C682.6,7.2,682.6,18.8,690,18.8L690,18.8z"/>
		</g>
	</g>
	<g class="st9">
		<g>
			<path class="st8" d="M779,26C791.9,26,791.9,6,779,6C766.1,6,766.1,26,779,26L779,26z"/>
		</g>
	</g>
	<g class="st9">
		<g>
			<path class="st8" d="M805,16.2c6.7,0,6.7-10.3,0-10.3C798.3,5.8,798.3,16.2,805,16.2L805,16.2z"/>
		</g>
	</g>
	<g class="st9">
		<g>
			<path class="st8" d="M774,15.4c5.6,0,5.6-8.7,0-8.7C768.4,6.6,768.4,15.4,774,15.4L774,15.4z"/>
		</g>
	</g>
	<g class="st9">
		<g>
			<path class="st8" d="M959,19.4c12.1,0,12.2-18.9,0-18.9C946.9,0.6,946.8,19.4,959,19.4L959,19.4z"/>
		</g>
	</g>
	<g class="st9">
		<g>
			<path class="st8" d="M997,23.9c7.6,0,7.6-11.9,0-11.9C989.4,12.1,989.4,23.9,997,23.9L997,23.9z"/>
		</g>
	</g>
	<g class="st9">
		<g>
			<path class="st8" d="M921,20.2c10.5,0,10.6-16.4,0-16.4C910.5,3.8,910.4,20.2,921,20.2L921,20.2z"/>
		</g>
	</g>
	<g class="st9">
		<g>
			<path class="st10" d="M523,21.2c10.6,0,10.6-16.5,0-16.5C512.4,4.8,512.4,21.2,523,21.2L523,21.2z"/>
		</g>
	</g>
	<g class="st9">
		<g>
			<path class="st10" d="M547,28.7c13.8,0,13.8-21.5,0-21.5C533.2,7.3,533.2,28.7,547,28.7L547,28.7z"/>
		</g>
	</g>
	<g class="st9">
		<g>
			<path class="st10" d="M585,19.6c12.4,0,12.4-19.2,0-19.2C572.6,0.4,572.6,19.6,585,19.6L585,19.6z"/>
		</g>
	</g>
	<g class="st9">
		<g>
			<path class="st10" d="M554,23.3c6.8,0,6.8-10.5,0-10.5C547.2,12.7,547.2,23.3,554,23.3L554,23.3z"/>
		</g>
	</g>
	<g class="st9">
		<g>
			<path class="st10" d="M685,24.9c11.4,0,11.4-17.7,0-17.7C673.6,7.1,673.6,24.9,685,24.9L685,24.9z"/>
		</g>
	</g>
	<g class="st9">
		<g>
			<path class="st10" d="M667,18.9c8.8,0,8.9-13.7,0-13.7C658.2,5.1,658.1,18.9,667,18.9L667,18.9z"/>
		</g>
	</g>
	<g class="st9">
		<g>
			<path class="st10" d="M916,24.1c5.2,0,5.2-8.1,0-8.1C910.8,15.9,910.8,24.1,916,24.1L916,24.1z"/>
		</g>
	</g>
	<g class="st9">
		<g>
			<path class="st10" d="M911,14.6c11.1,0,11.1-17.2,0-17.2C899.9-2.6,899.9,14.6,911,14.6L911,14.6z"/>
		</g>
	</g>
	<g class="st9">
		<g>
			<path class="st10" d="M939,28.4c12.1,0,12.1-18.8,0-18.8C926.9,9.6,926.9,28.4,939,28.4L939,28.4z"/>
		</g>
	</g>
	<g class="st9">
		<g>
			<path class="st10" d="M975,13c14.2,0,14.2-22,0-22C960.8-9,960.8,13,975,13L975,13z"/>
		</g>
	</g>
	<g class="st9">
		<g>
			<path class="st10" d="M980,30.2c14.3,0,14.4-22.3,0-22.3C965.7,7.8,965.6,30.2,980,30.2L980,30.2z"/>
		</g>
	</g>
	<g class="st9">
		<g>
			<path class="st10" d="M796,17c5.2,0,5.2-8.1,0-8.1C790.8,9,790.8,17,796,17L796,17z"/>
		</g>
	</g>
	<g class="st9">
		<g>
			<path class="st10" d="M814,21.5c5.7,0,5.7-8.9,0-8.9C808.3,12.5,808.3,21.5,814,21.5L814,21.5z"/>
		</g>
	</g>
	<g class="st9">
		<g>
			<path class="st10" d="M778,36.2c11.8,0,11.8-18.3,0-18.3C766.2,17.8,766.2,36.2,778,36.2L778,36.2z"/>
		</g>
	</g>
</g>
<g id="дорожк">
	<line class="st12" x1="1074.3" y1="-19" x2="1088.3" y2="744.2"/>
	<line class="st12" x1="1074.3" y1="41.1" x2="-42.9" y2="51.4"/>
	<line class="st12" x1="491.8" y1="-89.3" x2="493.7" y2="46.9"/>
	<path class="st12" d="M455.3,47.2l0.4,151.4c0.5,18.2-13.7,33.4-31.9,34.2h0c-21.2,0.9-37.9-11.6-40.4-36.6l0.4-45.2
		c2.1-19.6,10.4-30.6,29.4-31.4l42.3-0.2"/>
	<line class="st12" x1="1085.7" y1="573" x2="977.7" y2="813.7"/>
	<polyline class="st13" points="1036.6,677 429.2,655.3 -23.6,639 	"/>
	<path class="st12" d="M248.7-42.6c-0.7,2.5-13.2,569.6-14.9,645.8c-0.1,5.6-0.5,11.2-1.1,16.8l-2.6,23.1c-2.8,24.4-21.7,43.7-46,47
		l-206.5,11.1"/>
	<line class="st14" x1="-60.5" y1="89.5" x2="1079" y2="80.9"/>
	<path class="st14" d="M476.9,201.5"/>
	<path class="st14" d="M476.9,86.9v101.4c0,7.3,6,13.2,13.3,13.1l295.7-3c8.8-0.1,16,6.9,16.2,15.6l1.1,33.3
		c0.2,9.5-7.4,17.4-16.9,17.5l-259.5,0.6"/>
	<path class="st14" d="M241.4,356.2l280.2,2c7.5,0.1,13.7,6.1,13.8,13.6l1.9,79.2c0.2,8.6,7.2,15.5,15.8,15.6l178.7,2.7
		c6.3,0.1,12.3-2.3,16.9-6.6l52.3-50.1c4.9-4.7,7.7-11.2,7.7-18l-0.1-101.8c0-5.8-4.7-10.5-10.5-10.5h-28.7
		c-6.1,0-11.9,2.4-16.1,6.7L641.6,397.7c-4.5,4.5-10.6,7-17,7H569c-6.8,0-12.2,5.5-12.2,12.2v19.1c0,6,4.9,10.9,10.9,10.9h79.9"/>
	<path class="st14" d="M556.3,428.1H642c7.6,0,14.9-2.9,20.4-8.2l61.3-58.7c5.2-5,12.1-7.8,19.3-7.8h40.4c5.3,0,9.6,4.3,9.6,9.6
		v21.8c0,6-2.5,11.7-6.8,15.8l-44.1,41.9c-4.1,3.9-9.6,6.1-15.3,6.1h-21.7c-5.9,0-10.7-4.8-10.7-10.7v-46.3"/>
	<path class="st14" d="M745.6,353.2v-29.3c0-5.5,4.4-9.9,9.9-9.9h19.8c4.8,0,8.7,3.9,8.7,8.7v30"/>
	<path class="st14" d="M415.6,357.6c-0.1,2-2.4,150.9-3.3,208.1c-0.2,12.1,9.5,22.1,21.7,22.3l356,5.4c10.8,0.2,21.3-3.9,29.2-11.4
		l97.6-92.8c8.8-8.3,13.7-19.9,13.7-32L930,82.6"/>
	<line class="st14" x1="930.7" y1="326.2" x2="1078.4" y2="326.2"/>
	<line class="st14" x1="783.6" y1="594" x2="781.4" y2="667.5"/>
	<path class="st14" d="M455.5,212.5l58.1,0.4c6.4,0,11.7,5.2,11.9,11.6l1.5,48.8c0.2,6.7-5.2,12.2-11.9,12.2l-97.2-1
		c-5.2-0.1-9.4,4.1-9.4,9.3v39.4c0,5.1,4.1,9.2,9.2,9.3l75.9,1c5.8,0.1,10.6-4.6,10.7-10.4l0.8-45.8"/>
	<path class="st14" d="M647.6,265.4c0.1,0.9,0,125.7,0,125.7"/>
	<line class="st14" x1="444.3" y1="589.8" x2="441.7" y2="652.7"/>
	<path class="st14" d="M1002.4,81.9c0,1.2-1.5,365.3-1.8,437.9c0,8-3.3,15.6-9,21.2L858.5,670.6"/>
	<path class="st14" d="M349.3,86.3c-0.4-0.3-14.6,562.3-14.6,562.3"/>
</g>
<g id="дома">
	<g>
		<g>
			<path class="st2" d="M805.6,121.2h16v-4.9h34.3v-7h19.4l14.1,14.1v67.5h-52.7v-24.1h-31V121.2 M839.9,307.5h64.8V190.9h-68.4v6.8
				H824v65.7c0,0,5.1-1.4,5.1,0c0,1.4,0,14.3,0,14.3h10.4L839.9,307.5z" fill="silver" name="12"/>
		</g>
	</g>
	<g>
		<g>
			<path class="st2" d="M839.7,326h65.5V434H836v-35.1h-4.2v-55h7.9V326z M836,454l-52.8,50.1h-24.9v66.4h44.8l98.7-94.5v-41.9H836
				L836,454z M758.3,570.5v-66.6h-30.4v-7.5h-56.8v8h-18.7v66L758.3,570.5z" fill="silver" name="13"/>
		</g>
	</g>
	<g>
		<g>
			<path class="st2" d="M516.6,570.2V506h35v-7.2h65.3v7.8h21.5v63.6L516.6,570.2z M516.6,556.2V517h-13.9v-61.8h-53.3v100.3
				L516.6,556.2z M452.7,455.2h44.9v-26.5c0,0,16.9,0,17.8,0s0-26.8,0-26.8s-17.9-0.6-17.9,0c0,0.6,0-12.4,0-12.4h-44.9V455.2z" fill="silver" name="14"/>
		</g>
	</g>
	<path class="st2" d="M805.6,121.2"/>
</g>
<g id="подписи">
	<g class="st15">
		<path class="st16" d="M544.3,53.6l1.3-3.6l-3-8.2l2.4,0l1.7,5.1l1.8-5.2l2.2,0l-4.2,11.9L544.3,53.6z"/>
		<path class="st16" d="M550.7,50l0-1.9c0.1,0,0.2,0,0.3,0c0.5,0,0.9-0.5,1-1.6c0-0.3,0-0.9,0.1-1.7c0-0.8,0.1-1.6,0.1-2.2l0-1
			l6.3,0l0,8.3l-2.4,0l0-6.3l-1.9,0c-0.1,2-0.2,3.1-0.2,3.2c-0.1,1.1-0.4,1.9-0.8,2.5c-0.4,0.5-1,0.8-1.8,0.8c-0.1,0-0.3,0-0.4,0
			C551,50.1,550.9,50.1,550.7,50L550.7,50z"/>
		<path class="st16" d="M565.9,49.9l0-4.7l-3,4.8l-2.4,0l0-8.3l2.4,0l0,4.8l3-4.9l2.3,0l0,8.3L565.9,49.9z"/>
		<path class="st16" d="M570.2,49.9l0-8.3l2.4,0l0,6.3l2.7,0l0-6.3l2.4,0l0,6.3l1.2,0l0,4l-2.1,0l0-2.1L570.2,49.9z"/>
		<path class="st16" d="M586.5,50c-0.5,0-0.9-0.1-1.2-0.3c-0.3-0.2-0.5-0.5-0.5-1c-0.7,0.9-1.5,1.3-2.5,1.3c-0.8,0-1.5-0.2-2-0.7
			c-0.5-0.4-0.7-1.1-0.7-1.8c0-0.8,0.3-1.5,0.9-1.9c0.6-0.5,1.4-0.7,2.5-0.7l1.5,0l0-0.2c0-0.5-0.1-0.9-0.4-1.1s-0.7-0.3-1.3-0.3
			c-0.4,0-0.8,0-1.2,0.1c-0.4,0.1-0.7,0.1-1,0.2l-0.3,0.1l0-1.7c0.8-0.3,1.7-0.4,2.8-0.4c1.3,0,2.3,0.2,2.9,0.7
			c0.6,0.5,0.9,1.3,0.9,2.3l0,3.2c0,0.2,0.1,0.4,0.2,0.5s0.3,0.1,0.6,0.1l0.2,0l0,1.5C587.3,49.9,586.9,50,586.5,50z M582.2,48
			c0.2,0.2,0.4,0.2,0.7,0.2c0.3,0,0.6-0.1,0.8-0.2c0.2-0.1,0.4-0.2,0.5-0.3l0.1-0.2l0-1.3l-0.9,0c-1.1,0-1.6,0.4-1.6,1.1
			C581.9,47.6,582,47.8,582.2,48z"/>
		<path class="st16" d="M590.9,49.8l3.6-11.5l2.5,0l3.6,11.5l-2.3,0l-0.7-2.2l-3.8,0l-0.7,2.2L590.9,49.8z M594.3,45.5l2.6,0
			l-1.3-4.3L594.3,45.5z"/>
		<path class="st16" d="M605.7,49.7l-4,0l0-8.3l4,0c0.9,0,1.7,0.2,2.2,0.5c0.5,0.4,0.7,0.9,0.7,1.5c0,0.4-0.1,0.7-0.3,1
			c-0.2,0.3-0.5,0.5-0.8,0.7c0.4,0.1,0.8,0.4,1.1,0.7c0.3,0.3,0.4,0.7,0.4,1.2c0,0.8-0.3,1.4-0.9,1.9
			C607.5,49.5,606.7,49.7,605.7,49.7z M604,44.8l1.1,0c0.3,0,0.6-0.1,0.8-0.3c0.2-0.2,0.3-0.4,0.3-0.7c0-0.6-0.4-0.9-1.1-0.9l-1.2,0
			L604,44.8z M604,48.2l1.4,0c0.4,0,0.6-0.1,0.8-0.3s0.3-0.4,0.3-0.8c0-0.3-0.1-0.5-0.3-0.7s-0.5-0.3-0.9-0.3l-1.4,0L604,48.2z"/>
		<path class="st16" d="M615.8,49.6l0-4.7l-3,4.8l-2.4,0l0-8.3l2.4,0l0,4.8l3-4.9l2.3,0l0,8.3L615.8,49.6z"/>
		<path class="st16" d="M626.4,49.8c-0.5,0-0.9-0.1-1.2-0.3c-0.3-0.2-0.5-0.5-0.5-1c-0.7,0.9-1.5,1.3-2.5,1.3c-0.8,0-1.5-0.2-2-0.7
			s-0.7-1.1-0.7-1.8c0-0.8,0.3-1.5,0.9-1.9c0.6-0.5,1.4-0.7,2.5-0.7l1.5,0l0-0.2c0-0.5-0.1-0.9-0.4-1.1s-0.7-0.3-1.3-0.3
			c-0.4,0-0.8,0-1.2,0.1c-0.4,0.1-0.7,0.1-1,0.2l-0.3,0.1l0-1.7c0.8-0.3,1.7-0.4,2.8-0.4c1.3,0,2.3,0.2,2.9,0.7
			c0.6,0.5,0.9,1.3,0.9,2.3l0,3.2c0,0.2,0.1,0.4,0.2,0.5c0.1,0.1,0.3,0.1,0.6,0.1l0.2,0l0,1.5C627.2,49.7,626.8,49.8,626.4,49.8z
			 M622.1,47.8c0.2,0.2,0.4,0.2,0.7,0.2c0.3,0,0.6-0.1,0.8-0.2c0.2-0.1,0.4-0.2,0.5-0.3l0.1-0.2l0-1.3l-0.9,0
			c-1.1,0-1.6,0.4-1.6,1.1C621.8,47.4,621.9,47.6,622.1,47.8z"/>
		<path class="st16" d="M628.7,49.6l0-8.3l2.4,0l0,6.3l2.7,0l0-6.3l2.4,0l0,6.3l1.2,0l0,4l-2.1,0l0-2.1L628.7,49.6z"/>
		<path class="st16" d="M644,49.5l0-4.7l-3,4.8l-2.4,0l0-8.3l2.4,0l0,4.8l3-4.9l2.3,0l0,8.3L644,49.5z"/>
		<path class="st16" d="M652,49.6c-1.3,0-2.3-0.4-3-1.1c-0.7-0.8-1.1-1.8-1.1-3.2c0-1.3,0.4-2.4,1.1-3.1c0.7-0.8,1.7-1.2,3-1.2
			c1.3,0,2.3,0.4,3,1.1c0.7,0.8,1.1,1.8,1.1,3.1c0,1.3-0.4,2.4-1.1,3.2S653.3,49.6,652,49.6z M652,47.9c1.1,0,1.6-0.9,1.6-2.6
			c0-1.7-0.6-2.5-1.7-2.5c-1.1,0-1.7,0.9-1.6,2.6C650.4,47,650.9,47.9,652,47.9z"/>
		<path class="st16" d="M657.7,49.4l0-8.3l2.4,0l0,3.1l2.8,0l0-3.1l2.4,0l0,8.3l-2.4,0l0-3.3l-2.8,0l0,3.3L657.7,49.4z"/>
		<path class="st16" d="M667.1,49.4l0-8.3l2.4,0l0,3.1l2.8,0l0-3.1l2.4,0l0,8.3l-2.4,0l0-3.3l-2.8,0l0,3.3L667.1,49.4z"/>
		<path class="st16" d="M682.9,49.5c-0.5,0-0.9-0.1-1.2-0.3s-0.5-0.5-0.5-1c-0.7,0.9-1.5,1.3-2.5,1.3c-0.8,0-1.5-0.2-2-0.7
			c-0.5-0.4-0.7-1.1-0.7-1.8c0-0.8,0.3-1.5,0.9-1.9s1.4-0.7,2.5-0.7l1.5,0l0-0.2c0-0.5-0.1-0.9-0.4-1.1c-0.3-0.2-0.7-0.3-1.3-0.3
			c-0.4,0-0.8,0-1.2,0.1s-0.7,0.1-1,0.2l-0.3,0.1l0-1.7c0.8-0.3,1.7-0.4,2.7-0.4c1.3,0,2.3,0.2,2.9,0.7c0.6,0.5,0.9,1.3,0.9,2.3
			l0,3.2c0,0.2,0.1,0.4,0.2,0.5c0.1,0.1,0.3,0.1,0.6,0.1l0.2,0l0,1.5C683.7,49.4,683.3,49.5,682.9,49.5z M678.6,47.5
			c0.2,0.2,0.4,0.2,0.7,0.2c0.3,0,0.6-0.1,0.8-0.2c0.2-0.1,0.4-0.2,0.5-0.3l0.1-0.2l0-1.3l-0.9,0c-1.1,0-1.6,0.4-1.6,1.1
			C678.3,47.1,678.4,47.3,678.6,47.5z"/>
		<path class="st16" d="M689.6,46.5l-0.8,0l-1.6,2.8l-2.5,0l1.9-3.2c-1.1-0.4-1.6-1.2-1.6-2.3c0-0.8,0.3-1.5,0.8-2
			c0.6-0.5,1.4-0.8,2.5-0.8l3.8,0l0,8.3l-2.4,0L689.6,46.5z M689.6,44.9l0-2.3l-1,0c-0.4,0-0.7,0.1-0.9,0.3
			c-0.2,0.2-0.3,0.5-0.3,0.8c0,0.4,0.1,0.6,0.4,0.8c0.2,0.2,0.6,0.3,1,0.3L689.6,44.9z"/>
	</g>
	<g class="st15">
		<path class="st16" d="M610.4,668.4l1.5-3.5l-2.7-8.4l2.4,0.1l1.5,5.2l2.1-5.1l2.2,0.1l-4.8,11.7L610.4,668.4z"/>
		<path class="st16" d="M617,665.1l0.1-1.9c0.1,0,0.2,0.1,0.3,0.1c0.5,0,0.9-0.5,1.1-1.5c0-0.3,0.1-0.9,0.2-1.7
			c0.1-0.8,0.2-1.6,0.2-2.2l0.1-1l6.3,0.3l-0.3,8.2l-2.4-0.1l0.3-6.3l-1.9-0.1c-0.2,2-0.3,3.1-0.4,3.2c-0.2,1.1-0.5,1.9-0.9,2.4
			s-1,0.8-1.8,0.7c-0.1,0-0.3,0-0.4-0.1S617.1,665.1,617,665.1L617,665.1z"/>
		<path class="st16" d="M632.1,665.7l0.2-4.7l-3.2,4.6l-2.3-0.1l0.3-8.2l2.4,0.1l-0.2,4.8l3.2-4.7l2.3,0.1l-0.3,8.2L632.1,665.7z"/>
		<path class="st16" d="M636.4,665.8l0.3-8.2l2.4,0.1l-0.3,6.3l2.7,0.1l0.3-6.3l2.4,0.1l-0.3,6.3l1.2,0l-0.2,4l-2.1-0.1l0.1-2.1
			L636.4,665.8z"/>
		<path class="st16" d="M652.7,666.7c-0.5,0-0.9-0.1-1.2-0.3c-0.3-0.2-0.4-0.5-0.5-1c-0.7,0.8-1.6,1.2-2.6,1.2
			c-0.8,0-1.5-0.3-1.9-0.8c-0.5-0.5-0.7-1.1-0.6-1.9c0-0.8,0.4-1.5,1-1.9c0.6-0.4,1.4-0.6,2.5-0.6l1.5,0l0-0.2
			c0-0.5-0.1-0.9-0.3-1.1c-0.2-0.2-0.7-0.4-1.3-0.4c-0.4,0-0.8,0-1.2,0c-0.4,0-0.7,0.1-1,0.2l-0.3,0.1l0.1-1.7
			c0.8-0.3,1.7-0.4,2.8-0.3c1.3,0.1,2.3,0.3,2.8,0.9c0.6,0.5,0.8,1.3,0.8,2.4l-0.1,3.2c0,0.2,0,0.4,0.2,0.5c0.1,0.1,0.3,0.1,0.6,0.2
			l0.2,0l-0.1,1.5C653.5,666.7,653.1,666.7,652.7,666.7z M648.5,664.5c0.2,0.2,0.4,0.2,0.7,0.3c0.3,0,0.6,0,0.8-0.1
			c0.3-0.1,0.4-0.2,0.5-0.3l0.2-0.2l0.1-1.3l-0.9,0c-1.1,0-1.6,0.3-1.7,1C648.2,664.1,648.3,664.3,648.5,664.5z"/>
		<path class="st16" d="M667,667.3c-1.4-0.1-2.5-0.5-3.3-1.4c-0.8-0.9-1.2-2.1-1.3-3.7l-1.3-0.1l-0.2,4.8l-2.4-0.1l0.5-11.4l2.4,0.1
			l-0.2,4.6l1.3,0.1c0.2-1.5,0.8-2.6,1.6-3.4c0.8-0.8,1.9-1.2,3.3-1.1c1.6,0.1,2.7,0.6,3.5,1.7c0.8,1.1,1.1,2.6,1.1,4.4
			c-0.1,1.9-0.6,3.3-1.4,4.3C669.7,666.9,668.5,667.4,667,667.3z M667.1,665.2c1.5,0.1,2.3-1.2,2.4-3.7c0.1-2.6-0.6-3.9-2.1-3.9
			c-1.5-0.1-2.4,1.2-2.5,3.7c-0.1,1.3,0.1,2.2,0.4,2.9S666.3,665.2,667.1,665.2z"/>
		<path class="st16" d="M677.4,667.5l0.1-3.2l-0.5,0l-2,3.2l-2.5-0.1l2.6-4.1l-2.2-4.1l2.5,0.1l1.7,3.2l0.5,0l0.1-3.1l2.4,0.1
			l-0.1,3.1l0.5,0l2-3l2.5,0.1l-2.5,3.8l2.3,4.4l-2.6-0.1l-1.7-3.3l-0.5,0l-0.1,3.2L677.4,667.5z"/>
		<path class="st16" d="M685.8,667.9l0.3-8.2l2.4,0.1l-0.1,3.1l2.8,0.1l0.1-3.1l2.4,0.1l-0.3,8.2l-2.4-0.1l0.1-3.3l-2.8-0.1
			l-0.1,3.3L685.8,667.9z"/>
		<path class="st16" d="M701.5,668.7c-0.5,0-0.9-0.1-1.2-0.3c-0.3-0.2-0.4-0.5-0.5-1c-0.7,0.8-1.6,1.2-2.6,1.2
			c-0.8,0-1.5-0.3-1.9-0.8c-0.5-0.5-0.7-1.1-0.6-1.9c0-0.8,0.4-1.5,1-1.9s1.4-0.6,2.5-0.6l1.5,0l0-0.2c0-0.5-0.1-0.9-0.3-1.1
			c-0.2-0.2-0.7-0.4-1.3-0.4c-0.4,0-0.8,0-1.2,0s-0.7,0.1-1,0.2l-0.3,0.1l0.1-1.7c0.8-0.3,1.7-0.4,2.8-0.3c1.3,0.1,2.3,0.3,2.8,0.9
			c0.6,0.5,0.8,1.3,0.8,2.4l-0.1,3.2c0,0.2,0,0.4,0.2,0.5c0.1,0.1,0.3,0.1,0.6,0.2l0.2,0l-0.1,1.5
			C702.4,668.7,702,668.7,701.5,668.7z M697.3,666.5c0.2,0.2,0.4,0.2,0.7,0.3c0.3,0,0.6,0,0.8-0.1c0.3-0.1,0.4-0.2,0.5-0.3l0.2-0.2
			l0.1-1.3l-0.9,0c-1.1,0-1.6,0.3-1.7,1C697,666.1,697.1,666.4,697.3,666.5z"/>
		<path class="st16" d="M708.4,666l-0.8,0l-1.7,2.7l-2.5-0.1l2-3.1c-1.1-0.5-1.6-1.3-1.5-2.4c0-0.8,0.3-1.5,0.9-2
			c0.6-0.5,1.4-0.7,2.5-0.7l3.8,0.2l-0.3,8.2l-2.4-0.1L708.4,666z M708.4,664.5l0.1-2.3l-1,0c-0.4,0-0.7,0.1-1,0.3
			c-0.2,0.2-0.3,0.5-0.4,0.8s0.1,0.6,0.3,0.8c0.2,0.2,0.6,0.3,1,0.3L708.4,664.5z"/>
	</g>
	<g class="st15">
		<path class="st16" d="M245.1,432.6l-3.6-1.4l-8.3,2.8l0-2.4l5.2-1.6l-5.1-2l0-2.2l11.8,4.5L245.1,432.6z"/>
		<path class="st16" d="M241.6,426.1l-1.9,0c0-0.1,0.1-0.2,0.1-0.3c0-0.5-0.5-0.9-1.5-1c-0.3,0-0.9-0.1-1.7-0.1
			c-0.8-0.1-1.6-0.1-2.2-0.2l-1-0.1l0.1-6.3l8.3,0.2l0,2.4l-6.3-0.1l0,1.9c2,0.2,3.1,0.3,3.2,0.3c1.1,0.1,1.9,0.4,2.4,0.8
			c0.5,0.4,0.8,1,0.8,1.8c0,0.1,0,0.3,0,0.4C241.7,425.9,241.7,426,241.6,426.1L241.6,426.1z"/>
		<path class="st16" d="M241.9,411l-4.7-0.1l4.7,3.1l0,2.4l-8.3-0.2l0-2.4l4.8,0.1l-4.8-3.1l0-2.3l8.3,0.2L241.9,411z"/>
		<path class="st16" d="M242,406.7l-8.3-0.2l0-2.4l6.3,0.1l0.1-2.7l-6.3-0.1l0-2.4l6.3,0.1l0-1.2l4,0.1l0,2.1l-2.1,0L242,406.7z"/>
		<path class="st16" d="M242.5,390.4c0,0.5-0.1,0.9-0.3,1.2c-0.2,0.3-0.5,0.4-1,0.5c0.8,0.7,1.2,1.5,1.2,2.5c0,0.8-0.3,1.5-0.7,1.9
			c-0.5,0.5-1.1,0.7-1.8,0.7c-0.8,0-1.5-0.3-1.9-0.9c-0.5-0.6-0.7-1.4-0.7-2.5l0-1.5l-0.2,0c-0.5,0-0.9,0.1-1.1,0.4
			c-0.2,0.2-0.4,0.7-0.4,1.3c0,0.4,0,0.8,0.1,1.2c0.1,0.4,0.1,0.7,0.2,1l0.1,0.3l-1.7,0c-0.3-0.8-0.4-1.7-0.4-2.8
			c0-1.3,0.3-2.3,0.8-2.9c0.5-0.6,1.3-0.9,2.4-0.8l3.2,0.1c0.2,0,0.4-0.1,0.5-0.2c0.1-0.1,0.1-0.3,0.1-0.6l0-0.2l1.5,0
			C242.5,389.5,242.5,389.9,242.5,390.4z M240.4,394.6c0.2-0.2,0.2-0.4,0.2-0.7c0-0.3,0-0.6-0.2-0.8c-0.1-0.2-0.2-0.4-0.3-0.5
			l-0.2-0.1l-1.3,0l0,0.9c0,1.1,0.4,1.6,1.1,1.6C240,394.9,240.3,394.8,240.4,394.6z"/>
		<path class="st16" d="M242.7,383c0,0.3,0,0.5-0.1,0.8c0,0.2-0.1,0.4-0.1,0.5l-0.1,0.1l-2,0c0.1-0.3,0.2-0.6,0.2-0.9
			c0-0.3-0.1-0.6-0.2-0.8c-0.2-0.2-0.4-0.4-0.9-0.7l-8.5,3.3l0-2.4l5.9-2.3l-5.8-2.5l0-2.2l7.8,3.3c1.3,0.5,2.3,1.1,2.9,1.6
			S242.7,382.1,242.7,383z"/>
		<path class="st16" d="M242.7,370.8l-3.3,2l0,0.6l3.2,0.1l0,2.4l-8.3-0.2l0-2.4l3.1,0.1l0-0.6l-3.1-2.1l0.1-2.5l3.9,2.6l4.4-2.7
			L242.7,370.8z"/>
		<path class="st16" d="M242.8,365.7l-6.3-0.1l0,2.3l-1.9,0l0.1-7l1.9,0l0,2.3l6.3,0.1L242.8,365.7z"/>
		<path class="st16" d="M246.6,359l-3.6-1.4l-8.3,2.8l0-2.4l5.2-1.6l-5.1-2l0-2.2l11.8,4.5L246.6,359z"/>
		<path class="st16" d="M243.4,347.8c0,1.3-0.4,2.3-1.2,3c-0.8,0.7-1.8,1.1-3.2,1.1c-1.3,0-2.4-0.4-3.1-1.2
			c-0.8-0.8-1.1-1.8-1.1-3.1c0-0.4,0-0.7,0.1-1.1c0.1-0.3,0.1-0.6,0.2-0.7l0.1-0.2l1.7,0c-0.2,0.5-0.4,1-0.4,1.6
			c0,0.7,0.2,1.2,0.6,1.6c0.4,0.4,1,0.6,1.8,0.6c0.8,0,1.5-0.2,1.9-0.5c0.5-0.4,0.7-0.9,0.7-1.6c0-0.3,0-0.6-0.1-0.8
			c0-0.3-0.1-0.5-0.1-0.6l-0.1-0.2l1.7,0C243.3,346.3,243.4,347,243.4,347.8z"/>
		<path class="st16" d="M243.5,340.6c0,1.3-0.4,2.3-1.2,3c-0.8,0.7-1.8,1.1-3.2,1.1c-1.3,0-2.4-0.4-3.1-1.2
			c-0.8-0.8-1.1-1.8-1.1-3.1c0-0.4,0-0.7,0.1-1.1c0.1-0.3,0.1-0.6,0.2-0.7l0.1-0.2l1.7,0c-0.2,0.5-0.4,1-0.4,1.6
			c0,0.7,0.2,1.2,0.6,1.6s1,0.6,1.8,0.6c0.8,0,1.5-0.2,1.9-0.5c0.5-0.4,0.7-0.9,0.7-1.6c0-0.3,0-0.6-0.1-0.8c0-0.3-0.1-0.5-0.1-0.6
			l-0.1-0.2l1.7,0C243.4,339,243.6,339.7,243.5,340.6z"/>
		<path class="st16" d="M243.5,331.9l-3.3,2l0,0.6l3.2,0.1l0,2.4l-8.3-0.2l0-2.4l3.1,0.1l0-0.6l-3.1-2.1l0.1-2.5l3.9,2.6l4.4-2.7
			L243.5,331.9z"/>
		<path class="st16" d="M243.9,322.1c0,0.5-0.1,0.9-0.3,1.2c-0.2,0.3-0.5,0.4-1,0.5c0.8,0.7,1.2,1.5,1.2,2.5c0,0.8-0.3,1.5-0.7,1.9
			s-1.1,0.7-1.8,0.7c-0.8,0-1.5-0.3-1.9-0.9c-0.5-0.6-0.7-1.4-0.7-2.5l0-1.5l-0.2,0c-0.5,0-0.9,0.1-1.1,0.4
			c-0.2,0.2-0.4,0.7-0.4,1.3c0,0.4,0,0.8,0.1,1.2c0.1,0.4,0.1,0.7,0.2,1l0.1,0.3l-1.7,0c-0.3-0.8-0.4-1.7-0.4-2.8
			c0-1.3,0.3-2.3,0.8-2.9c0.5-0.6,1.3-0.9,2.4-0.8l3.2,0.1c0.2,0,0.4-0.1,0.5-0.2c0.1-0.1,0.1-0.3,0.1-0.6l0-0.2l1.5,0
			C243.9,321.3,243.9,321.7,243.9,322.1z M241.8,326.4c0.2-0.2,0.2-0.4,0.2-0.7c0-0.3,0-0.6-0.2-0.8c-0.1-0.2-0.2-0.4-0.3-0.5
			l-0.2-0.1l-1.3,0l0,0.9c0,1.1,0.4,1.6,1.1,1.6C241.4,326.6,241.7,326.5,241.8,326.4z"/>
		<path class="st16" d="M241.1,315.3l0,0.8l2.7,1.7l-0.1,2.5l-3.1-2c-0.5,1.1-1.2,1.6-2.3,1.6c-0.8,0-1.5-0.3-2-0.9
			c-0.5-0.6-0.7-1.4-0.7-2.5l0.1-3.8l8.3,0.2l0,2.4L241.1,315.3z M239.5,315.3l-2.3,0l0,1c0,0.4,0.1,0.7,0.3,1
			c0.2,0.2,0.5,0.3,0.8,0.3c0.4,0,0.6-0.1,0.8-0.3c0.2-0.2,0.3-0.6,0.3-1L239.5,315.3z"/>
	</g>
	<g class="st15">
		<path class="st16" d="M1072.7,274l3.6,1.3l8.2-3.1l0,2.4l-5.1,1.8l5.2,1.8l0,2.2l-11.9-4.2L1072.7,274z"/>
		<path class="st16" d="M1076.3,280.4l1.9,0c0,0.1,0,0.2,0,0.3c0,0.5,0.5,0.9,1.6,1c0.3,0,0.9,0,1.7,0.1c0.8,0,1.6,0.1,2.2,0.1l1,0
			l0.1,6.3l-8.3,0.1l0-2.4l6.3-0.1l0-1.9c-2.1-0.1-3.1-0.2-3.2-0.2c-1.1-0.1-1.9-0.4-2.5-0.8c-0.5-0.4-0.8-1-0.8-1.8
			c0-0.1,0-0.3,0-0.4C1076.3,280.7,1076.3,280.6,1076.3,280.4L1076.3,280.4z"/>
		<path class="st16" d="M1076.5,295.5l4.7,0l-4.8-2.9l0-2.4l8.3-0.1l0,2.4l-4.8,0l4.9,3l0,2.3l-8.3,0.1L1076.5,295.5z"/>
		<path class="st16" d="M1076.6,299.8l8.3-0.1l0,2.4l-6.3,0.1l0,2.7l6.3-0.1l0,2.4l-6.3,0.1l0,1.2l-4,0l0-2.1l2.1,0L1076.6,299.8z"
			/>
		<path class="st16" d="M1076.5,316.1c0-0.5,0.1-0.9,0.3-1.2c0.2-0.3,0.5-0.5,1-0.6c-0.9-0.7-1.3-1.5-1.3-2.5c0-0.8,0.2-1.5,0.7-2
			c0.4-0.5,1-0.7,1.8-0.7c0.8,0,1.5,0.3,1.9,0.9c0.5,0.6,0.7,1.4,0.8,2.5l0,1.5l0.2,0c0.5,0,0.9-0.1,1.1-0.4
			c0.2-0.3,0.3-0.7,0.3-1.3c0-0.4,0-0.8-0.1-1.2s-0.1-0.7-0.2-1l-0.1-0.3l1.7,0c0.3,0.8,0.4,1.7,0.5,2.7c0,1.3-0.2,2.3-0.7,2.9
			c-0.5,0.6-1.3,0.9-2.3,0.9l-3.2,0c-0.2,0-0.4,0.1-0.5,0.2c-0.1,0.1-0.1,0.3-0.1,0.6l0,0.2l-1.5,0
			C1076.6,317,1076.6,316.6,1076.5,316.1z M1078.5,311.8c-0.2,0.2-0.2,0.4-0.2,0.7c0,0.3,0.1,0.6,0.2,0.8c0.1,0.2,0.2,0.4,0.3,0.5
			l0.2,0.1l1.3,0l0-0.9c-0.1-1.1-0.4-1.6-1.1-1.6C1078.9,311.5,1078.7,311.6,1078.5,311.8z"/>
		<path class="st16" d="M1076.6,325.4c0-1.2,0.3-2.1,0.8-2.8c0.6-0.7,1.3-1.1,2.3-1.1c1.2,0,2.2,0.7,3,2c0.6-1.1,1.5-1.7,2.7-1.7
			c0.9,0,1.6,0.3,2.2,1c0.6,0.6,0.9,1.5,0.9,2.6c0,1.1-0.3,2-0.8,2.6s-1.2,0.9-2.1,0.9c-1.2,0-2.1-0.5-2.8-1.7
			c-0.4,0.8-0.8,1.3-1.3,1.7c-0.5,0.4-1,0.5-1.7,0.5c-1,0-1.7-0.4-2.3-1.1C1076.9,327.5,1076.6,326.6,1076.6,325.4z M1078.5,325.4
			c0,0.5,0.1,0.9,0.4,1.2s0.6,0.5,1,0.4c0.8,0,1.4-0.6,1.9-1.9c-0.5-0.9-1.1-1.4-1.9-1.4c-0.4,0-0.8,0.2-1,0.5
			C1078.6,324.6,1078.5,324.9,1078.5,325.4z M1085.3,323.9c-0.7,0-1.2,0.5-1.6,1.5c0.4,0.8,1,1.2,1.7,1.2c0.4,0,0.6-0.1,0.9-0.4
			c0.2-0.2,0.3-0.6,0.3-1c0-0.4-0.1-0.8-0.4-1S1085.7,323.9,1085.3,323.9z"/>
		<path class="st16" d="M1077.4,338.1l4.7-1.9l-5.2-0.1l0-2l8.3,0.2l0,2.8l-5,2l5.1,1.9l0,2.8l-8.3,0.4l0-2.2l5.4-0.2l-5-1.8
			L1077.4,338.1z"/>
		<path class="st16" d="M1076.9,352.3c0-0.5,0.1-0.9,0.3-1.2s0.5-0.5,1-0.6c-0.9-0.7-1.3-1.5-1.3-2.5c0-0.8,0.2-1.5,0.7-2
			s1-0.7,1.8-0.7c0.8,0,1.5,0.3,1.9,0.9c0.5,0.6,0.7,1.4,0.8,2.5l0,1.5l0.2,0c0.5,0,0.9-0.1,1.1-0.4s0.3-0.7,0.3-1.3
			c0-0.4,0-0.8-0.1-1.2c-0.1-0.4-0.1-0.7-0.2-1l-0.1-0.3l1.7,0c0.3,0.8,0.4,1.7,0.5,2.7c0,1.3-0.2,2.3-0.7,2.9
			c-0.5,0.6-1.3,0.9-2.3,0.9l-3.2,0c-0.2,0-0.4,0.1-0.5,0.2c-0.1,0.1-0.1,0.3-0.1,0.6l0,0.2l-1.5,0
			C1077,353.1,1076.9,352.7,1076.9,352.3z M1078.9,348c-0.2,0.2-0.2,0.4-0.2,0.7c0,0.3,0.1,0.6,0.2,0.8c0.1,0.2,0.2,0.4,0.3,0.5
			l0.2,0.1l1.3,0l0-0.9c-0.1-1.1-0.4-1.6-1.1-1.6C1079.2,347.7,1079,347.8,1078.9,348z"/>
		<path class="st16" d="M1077,359.3c0-0.8,0.2-1.4,0.6-2l-4.1,0l0-2.4l9.7-0.1c0.2,0,0.4-0.1,0.5-0.2c0.1-0.1,0.1-0.3,0.1-0.6l0-0.1
			l1.5,0c0.1,0.3,0.2,0.7,0.2,1.2c0,1-0.4,1.6-1.3,1.7c0.3,0.2,0.6,0.4,0.9,0.9c0.3,0.4,0.4,0.9,0.4,1.6c0,1.2-0.4,2-1.1,2.6
			c-0.8,0.5-1.8,0.8-3,0.8c-1.3,0-2.4-0.3-3.2-0.9C1077.4,361.3,1077,360.4,1077,359.3z M1078.9,358.7c0,0.5,0.2,0.9,0.7,1.2
			c0.4,0.3,1,0.4,1.8,0.4c1.5,0,2.3-0.6,2.3-1.7c0-0.3-0.1-0.5-0.2-0.8s-0.2-0.4-0.4-0.5l-0.2-0.1l-3.5,0c0,0,0,0.1-0.1,0.1
			c0,0.1-0.1,0.2-0.1,0.2s-0.1,0.2-0.1,0.3c0,0.1-0.1,0.2-0.1,0.4S1078.9,358.5,1078.9,358.7z"/>
		<path class="st16" d="M1077.2,365.8l6.3-0.1l0-2.3l1.9,0l0.1,7l-1.9,0l0-2.3l-6.3,0.1L1077.2,365.8z"/>
		<path class="st16" d="M1077.2,377.8c0-0.5,0.1-0.9,0.3-1.2c0.2-0.3,0.5-0.5,1-0.6c-0.9-0.7-1.3-1.5-1.3-2.5c0-0.8,0.2-1.5,0.7-2
			s1-0.7,1.8-0.7c0.8,0,1.5,0.3,1.9,0.9c0.5,0.6,0.7,1.4,0.8,2.5l0,1.5l0.2,0c0.5,0,0.9-0.1,1.1-0.4c0.2-0.3,0.3-0.7,0.3-1.3
			c0-0.4,0-0.8-0.1-1.2c-0.1-0.4-0.1-0.7-0.2-1l-0.1-0.3l1.7,0c0.3,0.8,0.4,1.7,0.5,2.7c0,1.3-0.2,2.3-0.7,2.9s-1.3,0.9-2.3,0.9
			l-3.2,0c-0.2,0-0.4,0.1-0.5,0.2c-0.1,0.1-0.1,0.3-0.1,0.6l0,0.2l-1.5,0C1077.2,378.7,1077.2,378.3,1077.2,377.8z M1079.1,373.5
			c-0.2,0.2-0.2,0.4-0.2,0.7c0,0.3,0.1,0.6,0.2,0.8s0.2,0.4,0.3,0.5l0.2,0.1l1.3,0l0-0.9c-0.1-1.1-0.4-1.6-1.1-1.6
			C1079.5,373.2,1079.3,373.3,1079.1,373.5z"/>
	</g>
</g>
<g id="p">
	<polygon class="st20" points="440.1,359.6 430.5,354.2 430.6,365.5 	"/>
	<g class="st22">
		<path class="st16" d="M313,363v-5.2h5.1v5.2h-1.6v-4h-1.9v4H313z"/>
		<path class="st16" d="M321.9,363.2c-0.9,0-1.5-0.2-2-0.7c-0.5-0.5-0.8-1.1-0.8-2s0.3-1.5,0.8-2c0.5-0.5,1.2-0.7,2-0.7
			c0.9,0,1.5,0.2,2,0.7c0.5,0.5,0.8,1.1,0.8,2c0,0.8-0.3,1.5-0.8,2C323.5,362.9,322.8,363.2,321.9,363.2z M321.9,362.1
			c0.7,0,1.1-0.5,1.1-1.6c0-1.1-0.4-1.6-1.1-1.6c-0.8,0-1.1,0.5-1.1,1.6C320.8,361.5,321.2,362.1,321.9,362.1z"/>
		<path class="st16" d="M326.7,363v1.3h-1.4v-2.5h0.6c0.2-0.2,0.4-0.6,0.5-1.2c0-0.2,0.1-0.5,0.1-1c0-0.5,0.1-0.9,0.1-1.2l0-0.5h4.4
			v4h0.8v2.5h-1.4V363H326.7z M327.7,360.7c-0.1,0.6-0.2,1-0.4,1.2h2v-2.8h-1.4C327.8,359.8,327.7,360.4,327.7,360.7z"/>
		<path class="st16" d="M334,363.2c-0.3,0-0.7,0-0.9-0.1s-0.5-0.1-0.6-0.1l-0.2-0.1v-1.1c0.4,0.2,0.9,0.2,1.5,0.2
			c0.7,0,1.1-0.2,1.1-0.6c0-0.3-0.3-0.5-1-0.5h-0.9v-1h0.9c0.5,0,0.8-0.2,0.8-0.5c0-0.3-0.3-0.5-0.9-0.5c-0.2,0-0.5,0-0.7,0
			c-0.3,0-0.4,0.1-0.6,0.1l-0.2,0V358c0.5-0.1,1.1-0.2,1.8-0.2c0.7,0,1.3,0.1,1.7,0.4c0.4,0.2,0.6,0.6,0.6,1c0,0.5-0.3,0.9-0.8,1.1
			c0.7,0.2,1,0.6,1,1.2c0,0.5-0.2,0.9-0.7,1.2C335.5,363,334.8,363.2,334,363.2z"/>
		<path class="st16" d="M340.3,363.2c-0.9,0-1.7-0.2-2.2-0.7s-0.8-1.1-0.8-1.9c0-0.9,0.2-1.5,0.7-2c0.5-0.5,1.1-0.7,2-0.7
			c0.4,0,0.8,0.1,1.1,0.2c0.3,0.1,0.6,0.3,0.7,0.5c0.2,0.2,0.3,0.5,0.4,0.7s0.1,0.5,0.1,0.8l0,0.8H339c0.1,0.8,0.6,1.2,1.6,1.2
			c0.2,0,0.5,0,0.8-0.1c0.3,0,0.5-0.1,0.6-0.1l0.2-0.1v1C341.7,363.1,341.1,363.2,340.3,363.2z M339,360h2c0-0.7-0.3-1.1-0.9-1.1
			C339.4,358.8,339.1,359.2,339,360z"/>
		<path class="st16" d="M346.1,362.8l-1.2-3l-0.1,3.2h-1.3l0.2-5.2h1.9l1.3,3.2l1.3-3.2h1.9l0.2,5.2h-1.5l-0.1-3.4l-1.3,3.1
			L346.1,362.8z"/>
		<path class="st16" d="M351.5,363v-5.2h1.6v1.9h1.9v-1.9h1.6v5.2H355v-2h-1.9v2H351.5z"/>
		<path class="st16" d="M357.9,363v-5.2h1.6v1.6h0.9c0.7,0,1.3,0.2,1.6,0.5c0.4,0.3,0.6,0.7,0.6,1.3c0,0.5-0.2,1-0.6,1.3
			c-0.4,0.3-1,0.5-1.7,0.5H357.9z M359.5,362h0.6c0.3,0,0.5-0.1,0.7-0.2c0.2-0.1,0.3-0.3,0.3-0.6c0-0.2-0.1-0.4-0.2-0.5
			s-0.4-0.2-0.7-0.2h-0.6V362z M363.3,363v-5.2h1.6v5.2H363.3z"/>
		<path class="st16" d="M369.8,363v-3l-2,3h-1.6v-5.2h1.6v3l2.1-3h1.6v5.2H369.8z M368.8,357.1c-0.5,0-1-0.1-1.3-0.4
			c-0.4-0.3-0.5-0.7-0.5-1.2h1.2c0,0.1,0,0.2,0,0.3c0,0.1,0.1,0.2,0.2,0.3c0.1,0.1,0.3,0.2,0.4,0.2c0.2,0,0.4-0.1,0.5-0.3
			s0.1-0.4,0.1-0.5h1.2c0,0.5-0.2,0.9-0.5,1.2C369.8,356.9,369.3,357.1,368.8,357.1z"/>
		<path class="st16" d="M375,363v-5.2h5.1v5.2h-1.6v-4h-1.9v4H375z"/>
		<path class="st16" d="M385.7,363.2c-0.3,0-0.6-0.1-0.8-0.2c-0.2-0.1-0.3-0.3-0.4-0.6c-0.5,0.5-1,0.8-1.7,0.8c-0.6,0-1-0.1-1.3-0.4
			c-0.3-0.3-0.5-0.7-0.5-1.1c0-0.5,0.2-0.9,0.6-1.2c0.4-0.3,1-0.4,1.7-0.5l1,0v-0.1c0-0.3-0.1-0.5-0.3-0.7c-0.2-0.1-0.5-0.2-0.9-0.2
			c-0.3,0-0.5,0-0.8,0.1c-0.3,0-0.5,0.1-0.6,0.1l-0.2,0.1V358c0.5-0.2,1.2-0.3,1.9-0.3c0.9,0,1.6,0.2,2,0.5c0.4,0.3,0.6,0.8,0.6,1.5
			v2c0,0.2,0,0.3,0.1,0.3c0.1,0.1,0.2,0.1,0.4,0.1h0.1v0.9C386.3,363.1,386,363.2,385.7,363.2z M382.8,361.9
			c0.1,0.1,0.3,0.1,0.5,0.1c0.2,0,0.4,0,0.6-0.1s0.3-0.1,0.4-0.2l0.1-0.1v-0.8l-0.6,0c-0.7,0-1.1,0.3-1.1,0.7
			C382.6,361.7,382.7,361.8,382.8,361.9z"/>
		<path class="st16" d="M390.5,363.2c-0.5,0-1-0.1-1.3-0.4v2.5h-1.6v-6.1c0-0.2,0-0.3-0.1-0.3s-0.2-0.1-0.4-0.1h-0.1v-1
			c0.2-0.1,0.5-0.1,0.8-0.1c0.7,0,1.1,0.3,1.2,0.8c0.1-0.2,0.3-0.4,0.6-0.5c0.3-0.2,0.6-0.3,1.1-0.3c0.8,0,1.4,0.2,1.7,0.7
			c0.4,0.5,0.5,1.1,0.5,1.9c0,0.8-0.2,1.5-0.6,2C391.9,362.9,391.3,363.2,390.5,363.2z M390.1,362c0.4,0,0.6-0.1,0.8-0.4
			c0.2-0.3,0.3-0.6,0.3-1.1c0-0.9-0.4-1.4-1.1-1.4c-0.2,0-0.4,0-0.5,0.1s-0.3,0.2-0.3,0.2l-0.1,0.1v2.2c0,0,0,0,0.1,0.1
			c0.1,0,0.1,0.1,0.1,0.1c0,0,0.1,0,0.2,0.1c0.1,0,0.2,0.1,0.2,0.1C389.9,362,390,362,390.1,362z"/>
		<path class="st16" d="M397.4,363l-1.4-2h-0.4v2h-1.6v-5.2h1.6v1.9l0.4,0l1.4-1.9h1.7l-1.7,2.4l1.9,2.7H397.4z"/>
		<path class="st16" d="M403.4,363v-3l-2,3h-1.6v-5.2h1.6v3l2.1-3h1.6v5.2H403.4z"/>
		<path class="st16" d="M406.3,363v-5.2h1.6v1.9h1.9v-1.9h1.6v5.2h-1.6v-2H408v2H406.3z"/>
		<path class="st16" d="M412.8,363v-5.2h3.8v1.2h-2.2v4H412.8z"/>
	</g>
</g>
<g id="компас">
	<g id="компас_2_">
		<g id="компас_3_">
			<g id="компас_4_">
				<g>
					<path class="st23" d="M84.9,478.3c-37.1,15.8-54.1,59.1-37.4,96.1c15.9,34.7,56.7,51.4,92.2,37.2c37.6-15.1,55.5-58,39.7-95.2
						l0,0C163.9,479.6,121.6,462.8,84.9,478.3"/>
					<path class="st24" d="M110.5,575.5l-7.5-29.5l23.5,3.6L110.5,575.5z M100,542.9L100,542.9l9.6,37.9l20.6-33.3l-9.7-37.9
						L100,542.9z"/>
					<path class="st24" d="M146.4,549.9c-2.2,15.2-15.1,26.4-30.4,26.8l0.1-1.5c16.6-0.4,29.8-14.4,29.3-31
						c-0.4-12.8-8.6-23.9-20.7-27.9l0.5-1.4C139.6,519.9,148.5,534.6,146.4,549.9"/>
					<path class="st24" d="M105.9,573.9l-0.4,1.5C89,570,79.7,552.1,85,535.5c4.2-13,16.3-21.8,29.9-21.9l-0.1,1.5
						c-14.9,0-27.5,10.8-29.7,25.6C83,555.3,91.9,569.4,105.9,573.9"/>
					<polygon class="st24" points="155.4,551.2 149.9,546.7 148.7,553.9 					"/>
					<polygon class="st24" points="74.7,538.9 80.4,543.4 81.4,536.3 					"/>
					<path class="st24" d="M118.7,501.4c-0.8-1.1-1.3-2.5-1.1-3.9c0.1-1.3,0.8-2.8,1.9-3.7c1.2-1,2.5-1.4,3.9-1.1
						c1,0.1,1.9,0.5,2.7,1.1l-0.2,1c-0.9-0.6-1.8-1-2.7-1.3c-1-0.2-2.3,0.2-3.1,0.9c-1.7,1.5-2,4.2-0.6,6.1c0.7,0.8,1.7,1.4,2.9,1.5
						c1,0.2,2.2,0,3-0.7l-0.2,1c-1,0.5-2.1,0.8-3.2,0.6C121,503.1,119.7,502.5,118.7,501.4"/>
					<path class="st24" d="M109.6,598.3c1,0.2,1.9-0.2,2.8-0.8c1.7-1.5,2.1-4.2,0.9-6.2c-0.6-0.9-1.4-1.4-2.4-1.5
						c-1-0.2-1.9,0.2-2.8,0.8c-1.7,1.5-2.1,4.2-0.9,6.2C107.7,597.5,108.7,598.1,109.6,598.3 M106.3,597.3c-0.8-1.1-1.1-2.4-0.9-3.8
						l-2.1-0.2l-0.7,4.7l-1-0.2l1.5-10.2l1,0.2l-0.6,4.6l2.1,0.2c0.3-1.3,1.1-2.3,2-3.2c2.2-1.6,5-1,6.5,1l0.1,0.1
						c0.7,1.2,1.1,2.6,0.8,4c-0.1,1.4-0.9,2.7-1.9,3.5c-1,0.8-2.2,1.2-3.7,1C108.2,599,107.1,598.4,106.3,597.3"/>
				</g>
			</g>
		</g>
	</g>
</g>
</svg>
