<?xml version="1.0" encoding="utf-8"?>
<!-- Generator: Adobe Illustrator 24.0.2, SVG Export Plug-In . SVG Version: 6.00 Build 0)  -->
<svg version="1.1" id="Layer_1" xmlns="http://www.w3.org/2000/svg" xmlns:xlink="http://www.w3.org/1999/xlink" x="0px" y="0px"
	 viewBox="0 0 860 480" style="enable-background:new 0 0 860 480;" xml:space="preserve">
<style type="text/css">
	<!-- .st0{clip-path:url(#SVGID_2_);} -->
	.st1{fill:#FFFFFF;}
	.st2{clip-path:url(#SVGID_4_);}
	.st3{fill:#A0B9EB;}
	.st4{clip-path:url(#SVGID_6_);}
	.st5{fill:#254558;}
	.st6{clip-path:url(#SVGID_8_);}
	.st7{fill:#F8FAFF;}
	.st8{clip-path:url(#SVGID_10_);}
	.st9{fill:#C6C6C6;}
	.st10{fill:#FEF69A;}
	.st11{fill:#8FE0F7;}
	.st12{fill-rule:evenodd;clip-rule:evenodd;fill:#A2BFF4;}
	.st13{fill-rule:evenodd;clip-rule:evenodd;fill:#FAC998;}
	.st14{clip-path:url(#SVGID_12_);}
	.st15{clip-path:url(#SVGID_14_);}
	.st16{clip-path:url(#SVGID_16_);}
	.st17{clip-path:url(#SVGID_18_);}
	.st18{fill:#DEFFC5;}
	.st19{fill:#1E1E1E;}
	.st20{fill-rule:evenodd;clip-rule:evenodd;fill:#FFFFFF;stroke:#000000;stroke-linecap:square;stroke-miterlimit:9;}
	.st21{fill-rule:evenodd;clip-rule:evenodd;}
</style>
<g id="Layer_2_1_">
	<g>
		<g>
			<g>
				<defs>
					<rect id="SVGID_1_" width="860" height="480"/>
				</defs>
				<clipPath id="SVGID_2_">
					<use xlink:href="#SVGID_1_"  style="overflow:visible;"/>
				</clipPath>
				<g class="st0">
					<rect x="-27.7" y="-24.4" class="st1" width="919.1" height="523.9"/>
				</g>
			</g>
		</g>
		<g>
			<g>
				<defs>
					<rect id="SVGID_3_" width="860" height="480"/>
				</defs>
				<clipPath id="SVGID_4_">
					<use xlink:href="#SVGID_3_"  style="overflow:visible;"/>
				</clipPath>
				<g class="st2">
					<g>
						<path class="st3" d="M231,174.6h-36.7v-32.8H231V174.6z M194.5,174.4h36.2v-32.3h-36.2V174.4z"/>
					</g>
					<g>
						<path class="st3" d="M309.7,174.6h-33.1v-32.8h33.1V174.6z M276.8,174.4h32.6v-32.3h-32.6V174.4z"/>
					</g>
					<g>
						<path class="st3" d="M391.5,174.6h-35.8v-32.8h35.8V174.6z M355.9,174.4h35.3v-32.3h-35.3V174.4z"/>
					</g>
					<g>
						<path class="st3" d="M468.4,174.6h-32.7v-32.8h32.7V174.6z M435.9,174.4h32.2v-32.3h-32.2V174.4z"/>
					</g>
					<g>
						<path class="st3" d="M580.7,178.6h-39.4v-36.8h23.9v0.1L580.7,178.6z M541.6,178.4h38.7l-15.2-36.3h-23.5V178.4z"/>
					</g>
				</g>
			</g>
		</g>
		<g>
			<g>
				<defs>
					<rect id="SVGID_5_" width="860" height="480"/>
				</defs>
				<clipPath id="SVGID_6_">
					<use xlink:href="#SVGID_5_"  style="overflow:visible;"/>
				</clipPath>
				<g class="st4">
					<g>
						<polygon class="st5" points="643.9,427.1 130.9,427.1 130.9,395.8 131.1,395.8 131.1,426.8 643.6,426.8 643.6,289.5 
							643.9,289.5 						"/>
					</g>
					<g>
						<polygon class="st5" points="131.1,196.9 130.9,196.9 130.9,59.8 675.3,59.8 675.3,108.6 675.1,108.6 675.1,60 131.1,60 
													"/>
					</g>
					<g>
						<rect x="521.8" y="59.9" class="st5" width="0.2" height="48.6"/>
					</g>
					<g>
						<rect x="541.4" y="59.9" class="st5" width="0.2" height="48.6"/>
					</g>
				</g>
			</g>
		</g>
		<g>
			<g>
				<defs>
					<rect id="SVGID_7_" width="860" height="480"/>
				</defs>
				<clipPath id="SVGID_8_">
					<use xlink:href="#SVGID_7_"  style="overflow:visible;"/>
				</clipPath>
				<g id="Robert_Schuman" class="st6">
					<rect x="550.9" y="213.6" class="st7" width="68" height="69.6"/>
				</g>
			</g>
		</g>
		<g>
			<g>
				<defs>
					<rect id="SVGID_9_" width="860" height="480"/>
				</defs>
				<clipPath id="SVGID_10_">
					<use xlink:href="#SVGID_9_"  style="overflow:visible;"/>
				</clipPath>
				<g class="st8">
					<g id="Seine">
						<rect x="643.8" y="208.2" class="st9" width="34.8" height="81.5"/>
					</g>
					<g id="Pierre_Mendès_France">
						<polygon class="st10" points="633.7,318 633.7,395.9 527.4,395.9 527.4,318 554.2,318 554.2,327.5 606.9,327.5 606.9,318" name="Дом №2"/>
					</g>
					<g id="Vauban_1_">
						<path class="st11" d="M476.9,265.6v4.7h-51v-4.7h-27.5v4.7h-55.2v-4.7h-27.5v4.7h-55.2v-4.7H233v102.1h13v28.2h245.4v-28.2h13
							V265.6H476.9z M315.6,362.8h-55.2v-37.3h55.2V362.8z M398.3,362.8h-55.2v-37.3h55.2V362.8z M476.9,362.8h-51v-37.3h51V362.8z"
							name="Дом №3" />
					</g>
					<g>
						<polygon class="st9" points="213.3,334.9 213.3,395.9 131,395.9 131,285.7 144.4,285.7 144.4,309.5 176.9,309.5 176.9,334.9" name="Дом №4"/>
					</g>
					<g>
						<polygon class="st9" points="83.9,220.6 83.9,270.5 131,270.5 131,293.7 52.5,293.7 52.5,197.4 131,197.4 131,220.6" name="Дом №5"/>
					</g>
					<g>
						<rect x="188" y="419.7" class="st9" width="7.3" height="7.3"/>
					</g>
					<g>
						<rect x="188" y="395.9" class="st9" width="7.3" height="7.3"/>
					</g>
					<g id="Seine_1_">
						<polygon class="st12" points="996.6,-344.4 996.4,-341.8 988.6,-250.6 980.5,-155.8 978.8,-135.3 978.2,-128.5 975.2,-91 
							974.1,-78.1 974.5,-76.2 975.1,-74.7 975.9,-73.5 977.2,-72.5 976.9,-68.8 973,-69.2 971.8,-51.4 968.6,-4.9 968.4,-2.8 
							968,3.2 972.1,3.5 972,6.9 968.1,6.9 967,75.8 963.2,158.3 960.9,159.1 958.7,160.4 957.2,162.3 956.1,164.6 955.9,167.6 
							947,316.2 938.5,402.6 945.3,581.2 945.6,589.4 947,653.9 949.9,749 952.4,836.2 956,843.7 956.7,854.4 963.1,984.7 
							967.6,1062.2 968.4,1087.6 969.6,1112.1 973.1,1186.5 973.3,1191 767,1191 764.7,1115.2 763.6,1084.4 762.4,1038.2 762,1023 
							756.6,969.5 753.8,887.9 752.9,862.1 751.2,830.8 745.8,649.4 740.8,387.8 760.1,88.8 760.6,78.4 765.6,-44.7 782.6,-43.9 
							786.7,-44.6 790.7,-48.8 790.7,-52.3 789.7,-204.1 789,-324.4 789,-344.4 						"/>
					</g>
					<g id="Colbert">
						<path class="st13" d="M800.8,104.8v44.7H649.1c-6.1,7.7-15.6,12.7-26.2,12.7c-4.3,0-8.5-0.8-12.2-2.3l-13.4,2.8l-0.9-4.2
							l-18.6,3.9l0.9,4.2l-16.9,3.6l-4.4-20.7h-51.1v26.3H500v20.8h4.4v26.2h-27.5v-73.3h-53.7v26.3h2.7v47h-27.5v-47h2.7v-26.3
							h-60.6v26.3h2.7v47.5h-27.5v-47.5h2.7v-26.3h-57.9v73.3H233v-26.2h8.8v-47.1H181v31h-36.6v-16.2H131v-17.7h29.7v-41.8H551
							l49.2-10.4l1.8,8.4c5.7-4.6,13-7.4,20.9-7.4c9,0,17.2,3.6,23.2,9.4H800.8z" name="Дом №1"/>
					</g>
				</g>
			</g>
		</g>
		<g>
			<g>
				<defs>
					<rect id="SVGID_11_" width="860" height="480"/>
				</defs>
				<clipPath id="SVGID_12_">
					<use xlink:href="#SVGID_11_"  style="overflow:visible;"/>
				</clipPath>
				<g class="st14">
					<g>
						<g>
							<g>
								<path class="st3" d="M260.6,222.8h-0.3H260.6z"/>
							</g>
						</g>
						<g>
							<g>
								<path class="st3" d="M260.6,230.8h-0.2v-2.7h0.2V230.8z M260.6,228.1h-0.2v-2.7h0.2V228.1z"/>
							</g>
						</g>
						<g>
							<g>
								<path class="st3" d="M260.6,262.9h-0.2v-2.7h0.2V262.9z M260.6,260.3h-0.2v-2.7h0.2V260.3z M260.6,254.9h-0.2H260.6
									L260.6,254.9z M260.6,252.2h-0.2v-2.7h0.2V252.2z M260.6,249.6h-0.2v-2.7h0.2V249.6z M260.6,244.2h-0.2H260.6L260.6,244.2z
									 M260.6,241.5h-0.2v-2.7h0.2V241.5z M260.6,238.9h-0.2v-2.7h0.2V238.9z M260.6,233.5h-0.2H260.6L260.6,233.5z"/>
							</g>
						</g>
						<g>
							<g>
								<path class="st3" d="M260.6,265.6h-0.3H260.6z"/>
							</g>
						</g>
					</g>
					<g>
						<g>
							<g>
								<path class="st3" d="M315.7,223.3h-0.2H315.7z"/>
							</g>
						</g>
						<g>
							<g>
								<path class="st3" d="M315.7,231.2h-0.2v-2.6h0.2V231.2z M315.7,228.6h-0.2V226h0.2V228.6z"/>
							</g>
						</g>
						<g>
							<g>
								<path class="st3" d="M315.7,263h-0.2v-2.6h0.2V263z M315.7,260.3h-0.2v-2.6h0.2V260.3z M315.7,255h-0.2H315.7L315.7,255z
									 M315.7,252.4h-0.2v-2.6h0.2V252.4z M315.7,249.7h-0.2v-2.6h0.2V249.7z M315.7,244.4h-0.2H315.7L315.7,244.4z M315.7,241.8
									h-0.2v-2.6h0.2V241.8z M315.7,239.1h-0.2v-2.6h0.2V239.1z M315.7,233.9h-0.2H315.7L315.7,233.9z"/>
							</g>
						</g>
						<g>
							<g>
								<path class="st3" d="M315.7,265.6h-0.2H315.7z"/>
							</g>
						</g>
					</g>
					<g>
						<g>
							<g>
								<path class="st3" d="M398.4,222.8h-0.2H398.4z"/>
							</g>
						</g>
						<g>
							<g>
								<path class="st3" d="M398.4,230.8h-0.2v-2.7h0.2V230.8z M398.4,228.1h-0.2v-2.7h0.2V228.1z"/>
							</g>
						</g>
						<g>
							<g>
								<path class="st3" d="M398.4,262.9h-0.2v-2.7h0.2V262.9z M398.4,260.3h-0.2v-2.7h0.2V260.3z M398.4,254.9h-0.2H398.4
									L398.4,254.9z M398.4,252.2h-0.2v-2.7h0.2V252.2z M398.4,249.6h-0.2v-2.7h0.2V249.6z M398.4,244.2h-0.2H398.4L398.4,244.2z
									 M398.4,241.5h-0.2v-2.7h0.2V241.5z M398.4,238.9h-0.2v-2.7h0.2V238.9z M398.4,233.5h-0.2H398.4L398.4,233.5z"/>
							</g>
						</g>
						<g>
							<g>
								<path class="st3" d="M398.4,265.6h-0.2H398.4z"/>
							</g>
						</g>
					</g>
					<g>
						<g>
							<g>
								<path class="st3" d="M426,222.8h-0.3H426z"/>
							</g>
						</g>
						<g>
							<g>
								<path class="st3" d="M426,230.8h-0.2v-2.7h0.2V230.8z M426,228.1h-0.2v-2.7h0.2V228.1z"/>
							</g>
						</g>
						<g>
							<g>
								<path class="st3" d="M426,262.9h-0.2v-2.7h0.2V262.9z M426,260.3h-0.2v-2.7h0.2V260.3z M426,254.9h-0.2H426L426,254.9z
									 M426,252.2h-0.2v-2.7h0.2V252.2z M426,249.6h-0.2v-2.7h0.2V249.6z M426,244.2h-0.2H426L426,244.2z M426,241.5h-0.2v-2.7
									h0.2V241.5z M426,238.9h-0.2v-2.7h0.2V238.9z M426,233.5h-0.2H426L426,233.5z"/>
							</g>
						</g>
						<g>
							<g>
								<path class="st3" d="M426,265.6h-0.3H426z"/>
							</g>
						</g>
					</g>
					<g>
						<g>
							<g>
								<path class="st3" d="M477,222.8h-0.3H477z"/>
							</g>
						</g>
						<g>
							<g>
								<path class="st3" d="M477,230.8h-0.2v-2.7h0.2V230.8z M477,228.1h-0.2v-2.7h0.2V228.1z"/>
							</g>
						</g>
						<g>
							<g>
								<path class="st3" d="M477,262.9h-0.2v-2.7h0.2V262.9z M477,260.3h-0.2v-2.7h0.2V260.3z M477,254.9h-0.2H477L477,254.9z
									 M477,252.2h-0.2v-2.7h0.2V252.2z M477,249.6h-0.2v-2.7h0.2V249.6z M477,244.2h-0.2H477L477,244.2z M477,241.5h-0.2v-2.7
									h0.2V241.5z M477,238.9h-0.2v-2.7h0.2V238.9z M477,233.5h-0.2H477L477,233.5z"/>
							</g>
						</g>
						<g>
							<g>
								<path class="st3" d="M477,265.6h-0.3H477z"/>
							</g>
						</g>
					</g>
					<g>
						<g>
							<g>
								<path class="st3" d="M233,222.8h-0.2H233z"/>
							</g>
						</g>
						<g>
							<g>
								<path class="st3" d="M233,230.8h-0.2v-2.7h0.2V230.8z M233,228.1h-0.2v-2.7h0.2V228.1z"/>
							</g>
						</g>
						<g>
							<g>
								<path class="st3" d="M233,262.9h-0.2v-2.7h0.2V262.9z M233,260.3h-0.2v-2.7h0.2V260.3z M233,254.9h-0.2H233L233,254.9z
									 M233,252.2h-0.2v-2.7h0.2V252.2z M233,249.6h-0.2v-2.7h0.2V249.6z M233,244.2h-0.2H233L233,244.2z M233,241.5h-0.2v-2.7
									h0.2V241.5z M233,238.9h-0.2v-2.7h0.2V238.9z M233,233.5h-0.2H233L233,233.5z"/>
							</g>
						</g>
						<g>
							<g>
								<path class="st3" d="M233,265.6h-0.2H233z"/>
							</g>
						</g>
					</g>
				</g>
			</g>
		</g>
		<g>
			<g>
				<defs>
					<rect id="SVGID_13_" width="860" height="480"/>
				</defs>
				<clipPath id="SVGID_14_">
					<use xlink:href="#SVGID_13_"  style="overflow:visible;"/>
				</clipPath>
				<g class="st15">
					<g>
						<path class="st5" d="M504.5,242.4h-2.9v-17h2.9V242.4z M501.9,242.1h2.4v-16.5h-2.4V242.1z"/>
					</g>
					<g>
						<path class="st5" d="M504.5,263h-2.9v-17h2.9V263z M501.9,262.8h2.4v-16.5h-2.4V262.8z"/>
					</g>
				</g>
			</g>
		</g>
		<g>
			<g>
				<defs>
					<rect id="SVGID_15_" width="860" height="480"/>
				</defs>
				<clipPath id="SVGID_16_">
					<use xlink:href="#SVGID_15_"  style="overflow:visible;"/>
				</clipPath>
				<g class="st16">
					<g>
						<rect x="124.9" y="222.6" class="st5" width="0.2" height="46"/>
					</g>
					<g>
						<rect x="128.9" y="224.6" class="st5" width="0.2" height="42"/>
					</g>
					<g>
						<rect x="132.9" y="226.6" class="st5" width="0.2" height="38"/>
					</g>
					<g>
						<rect x="136.9" y="228.6" class="st5" width="0.2" height="34"/>
					</g>
				</g>
			</g>
		</g>
		<g>
			<g>
				<defs>
					<rect id="SVGID_17_" width="860" height="480"/>
				</defs>
				<clipPath id="SVGID_18_">
					<use xlink:href="#SVGID_17_"  style="overflow:visible;"/>
				</clipPath>
				<g class="st17">
					<g>
						<rect x="152.3" y="187.4" class="st18" width="69.9" height="19.4"/>
					</g>
					<g>
						<rect x="276.6" y="187.4" class="st18" width="30" height="24.3"/>
					</g>
					<g>
						<rect x="355.8" y="187.4" class="st18" width="30.1" height="24.3"/>
					</g>
					<g>
						<rect x="438" y="187.4" class="st18" width="32" height="24.3"/>
					</g>
					<g>
						<rect x="546.4" y="177.1" class="st18" width="29.1" height="13.9"/>
					</g>
					<g>
						<rect x="152.3" y="268.6" class="st18" width="57.9" height="33.7"/>
					</g>
				</g>
			</g>
		</g>
	</g>
</g>
</svg>
